<svg width="24" height="24" viewBox="0 0 24 24" fill="none" xmlns="http://www.w3.org/2000/svg">
<path d="M20.0308 9.53055L12.5308 17.0306C12.4611 17.1003 12.3784 17.1556 12.2874 17.1933C12.1963 17.2311 12.0987 17.2505 12.0002 17.2505C11.9016 17.2505 11.804 17.2311 11.713 17.1933C11.6219 17.1556 11.5392 17.1003 11.4695 17.0306L3.96955 9.53055C3.82882 9.38982 3.74976 9.19895 3.74976 8.99993C3.74976 8.80091 3.82882 8.61003 3.96955 8.4693C4.11028 8.32857 4.30115 8.24951 4.50017 8.24951C4.6992 8.24951 4.89007 8.32857 5.0308 8.4693L12.0002 15.4396L18.9695 8.4693C19.0392 8.39962 19.122 8.34435 19.213 8.30663C19.304 8.26892 19.4016 8.24951 19.5002 8.24951C19.5987 8.24951 19.6963 8.26892 19.7873 8.30663C19.8784 8.34435 19.9611 8.39962 20.0308 8.4693C20.1005 8.53899 20.1558 8.62171 20.1935 8.71276C20.2312 8.8038 20.2506 8.90138 20.2506 8.99993C20.2506 9.09847 20.2312 9.19606 20.1935 9.2871C20.1558 9.37815 20.1005 9.46087 20.0308 9.53055Z" fill="#F8F8FF"/>
</svg>
