<svg width="18" height="10" viewBox="0 0 18 10" fill="none" xmlns="http://www.w3.org/2000/svg">
<path d="M17.0308 2.04711L9.5308 9.54711C9.46114 9.61684 9.37843 9.67216 9.28738 9.7099C9.19633 9.74765 9.09873 9.76707 9.00017 9.76707C8.90161 9.76707 8.80402 9.74765 8.71297 9.7099C8.62192 9.67216 8.5392 9.61684 8.46955 9.54711L0.969548 2.04711C0.828817 1.90638 0.749756 1.71551 0.749756 1.51648C0.749756 1.31746 0.828817 1.12659 0.969548 0.985859C1.11028 0.845129 1.30115 0.766068 1.50017 0.766068C1.6992 0.766068 1.89007 0.845129 2.0308 0.985859L9.00017 7.95617L15.9695 0.985859C16.0392 0.916176 16.122 0.860901 16.213 0.823189C16.304 0.785477 16.4016 0.766068 16.5002 0.766068C16.5987 0.766068 16.6963 0.785477 16.7873 0.823189C16.8784 0.860901 16.9611 0.916176 17.0308 0.985859C17.1005 1.05554 17.1558 1.13827 17.1935 1.22931C17.2312 1.32036 17.2506 1.41794 17.2506 1.51648C17.2506 1.61503 17.2312 1.71261 17.1935 1.80366C17.1558 1.8947 17.1005 1.97743 17.0308 2.04711Z" fill="#330066"/>
</svg>
