<svg width="21" height="21" viewBox="0 0 21 21" fill="none" xmlns="http://www.w3.org/2000/svg">
<path d="M10.5 0.766479C8.57164 0.766479 6.68657 1.33831 5.08319 2.40965C3.47982 3.48099 2.23013 5.00374 1.49218 6.78532C0.754225 8.5669 0.561142 10.5273 0.937348 12.4186C1.31355 14.3099 2.24215 16.0472 3.60571 17.4108C4.96928 18.7743 6.70656 19.7029 8.59787 20.0791C10.4892 20.4553 12.4496 20.2623 14.2312 19.5243C16.0127 18.7864 17.5355 17.5367 18.6068 15.9333C19.6782 14.3299 20.25 12.4448 20.25 10.5165C20.2473 7.93146 19.2192 5.45309 17.3913 3.6252C15.5634 1.79732 13.085 0.769209 10.5 0.766479ZM10.5 18.7665C8.86831 18.7665 7.27326 18.2826 5.91655 17.3761C4.55984 16.4696 3.50242 15.1811 2.878 13.6736C2.25358 12.1661 2.0902 10.5073 2.40853 8.90698C2.72685 7.30664 3.51259 5.83663 4.66637 4.68285C5.82016 3.52907 7.29017 2.74333 8.89051 2.425C10.4909 2.10667 12.1497 2.27005 13.6571 2.89447C15.1646 3.5189 16.4531 4.57632 17.3596 5.93302C18.2661 7.28973 18.75 8.88478 18.75 10.5165C18.7475 12.7038 17.8775 14.8007 16.3309 16.3474C14.7843 17.894 12.6873 18.764 10.5 18.7665ZM14.7806 9.98585C14.8504 10.0555 14.9057 10.1382 14.9434 10.2293C14.9812 10.3203 15.0006 10.4179 15.0006 10.5165C15.0006 10.615 14.9812 10.7126 14.9434 10.8037C14.9057 10.8947 14.8504 10.9775 14.7806 11.0471L11.7806 14.0471C11.6399 14.1878 11.449 14.2669 11.25 14.2669C11.051 14.2669 10.8601 14.1878 10.7194 14.0471C10.5786 13.9064 10.4996 13.7155 10.4996 13.5165C10.4996 13.3175 10.5786 13.1266 10.7194 12.9859L12.4397 11.2665H6.75C6.55109 11.2665 6.36033 11.1875 6.21967 11.0468C6.07902 10.9062 6 10.7154 6 10.5165C6 10.3176 6.07902 10.1268 6.21967 9.98615C6.36033 9.8455 6.55109 9.76648 6.75 9.76648H12.4397L10.7194 8.0471C10.5786 7.90637 10.4996 7.7155 10.4996 7.51648C10.4996 7.31746 10.5786 7.12658 10.7194 6.98585C10.8601 6.84512 11.051 6.76606 11.25 6.76606C11.449 6.76606 11.6399 6.84512 11.7806 6.98585L14.7806 9.98585Z" fill="#6600CC"/>
</svg>
