<svg width="24" height="25" viewBox="0 0 24 25" fill="none" xmlns="http://www.w3.org/2000/svg">
<path d="M21 12.5165C21 12.7154 20.921 12.9062 20.7803 13.0468C20.6397 13.1875 20.4489 13.2665 20.25 13.2665H3.75C3.55109 13.2665 3.36032 13.1875 3.21967 13.0468C3.07902 12.9062 3 12.7154 3 12.5165C3 12.3176 3.07902 12.1268 3.21967 11.9861C3.36032 11.8455 3.55109 11.7665 3.75 11.7665H20.25C20.4489 11.7665 20.6397 11.8455 20.7803 11.9861C20.921 12.1268 21 12.3176 21 12.5165ZM3.75 7.26648H20.25C20.4489 7.26648 20.6397 7.18746 20.7803 7.04681C20.921 6.90616 21 6.71539 21 6.51648C21 6.31757 20.921 6.1268 20.7803 5.98615C20.6397 5.8455 20.4489 5.76648 20.25 5.76648H3.75C3.55109 5.76648 3.36032 5.8455 3.21967 5.98615C3.07902 6.1268 3 6.31757 3 6.51648C3 6.71539 3.07902 6.90616 3.21967 7.04681C3.36032 7.18746 3.55109 7.26648 3.75 7.26648ZM20.25 17.7665H3.75C3.55109 17.7665 3.36032 17.8455 3.21967 17.9861C3.07902 18.1268 3 18.3176 3 18.5165C3 18.7154 3.07902 18.9062 3.21967 19.0468C3.36032 19.1875 3.55109 19.2665 3.75 19.2665H20.25C20.4489 19.2665 20.6397 19.1875 20.7803 19.0468C20.921 18.9062 21 18.7154 21 18.5165C21 18.3176 20.921 18.1268 20.7803 17.9861C20.6397 17.8455 20.4489 17.7665 20.25 17.7665Z" fill="#070707"/>
</svg>
