<svg width="360" height="143" viewBox="0 0 360 143" fill="none" xmlns="http://www.w3.org/2000/svg">
<path opacity="0.3" d="M-9 106.456L-9 142.172L410.215 142.172V78.3592C399.562 84.7087 374.81 99.4079 361.024 107.408C343.792 117.409 322.173 123.123 290.215 130.267C258.257 137.41 203.427 106.456 199.981 105.027C196.534 103.599 167.396 80.7403 111.626 75.5019C67.0101 71.3112 12.6187 94.3917 -9 106.456Z" fill="#F8F8FF"/>
<path d="M-0.0898437 84.1703L-0.0898438 140L443.492 140V40.251C432.22 50.1762 406.03 73.1533 391.443 85.6591C373.209 101.291 350.333 110.224 316.518 121.39C282.702 132.556 224.685 84.1703 221.038 81.9371C217.391 79.7039 186.559 43.9729 127.548 35.7846C80.3384 29.2339 22.7855 65.3123 -0.0898437 84.1703Z" fill="#F8F8FF"/>
<path opacity="0.6" d="M0.65625 68.1703L0.65625 124L445.34 124V24.251C434.04 34.1762 407.784 57.1533 393.161 69.6591C374.882 85.2914 351.95 94.2242 318.05 105.39C284.15 116.556 225.989 68.1703 222.333 65.9371C218.678 63.7039 187.769 27.9729 128.611 19.7846C81.2842 13.2339 23.5884 49.3123 0.65625 68.1703Z" fill="#F8F8FF"/>
<path opacity="0.15" d="M556.96 49.9529V105.783L-2.32617 105.783V6.03355C11.8859 15.9588 44.908 38.9358 63.3 51.4417C86.2901 67.074 115.132 76.0068 157.768 87.1727C200.404 98.3386 273.555 49.9529 278.153 47.7197C282.751 45.4865 321.625 9.75553 396.029 1.56718C455.552 -4.98351 528.118 31.0949 556.96 49.9529Z" fill="#F8F8FF"/>
<path opacity="0.2" d="M655.636 52.8242V111.84L-9.34497 111.84V6.39839C7.55292 16.8901 46.8157 41.1784 68.6835 54.3979C96.0183 70.9223 130.311 80.3649 181.005 92.168C231.698 103.971 318.673 52.8242 324.14 50.4635C329.607 48.1029 375.827 10.3328 464.293 1.67714C535.065 -5.24738 621.343 32.8899 655.636 52.8242Z" fill="#F8F8FF"/>
</svg>
