<svg width="1440" height="177" viewBox="0 0 1440 177" fill="none" xmlns="http://www.w3.org/2000/svg">
<path opacity="0.3" d="M-9 121.17L-9 177L1416.89 177V77.251C1380.66 87.1762 1296.47 110.153 1249.58 122.659C1190.96 138.291 1117.43 147.224 1008.73 158.39C900.031 169.556 713.536 121.17 701.813 118.937C690.091 116.704 590.982 80.9729 401.29 72.7846C249.536 66.2339 64.5324 102.312 -9 121.17Z" fill="#F8F8FF"/>
<path d="M-0.0898437 81.1703L-0.0898438 137L1454.56 137V37.251C1417.59 47.1762 1331.71 70.1533 1283.87 82.6591C1224.08 98.2914 1149.06 107.224 1038.17 118.39C927.276 129.556 737.019 81.1703 725.06 78.9371C713.101 76.7039 611.993 40.9729 418.475 32.7846C263.66 26.2339 74.9257 62.3123 -0.0898437 81.1703Z" fill="#F8F8FF"/>
<path opacity="0.6" d="M0.65625 65.1703L0.65625 121L1458 121V21.251C1420.97 31.1762 1334.92 54.1533 1287 66.6591C1227.09 82.2914 1151.94 91.2242 1040.84 102.39C929.743 113.556 739.133 65.1703 727.152 62.9371C715.171 60.7039 613.875 24.9729 419.998 16.7846C264.896 10.2339 75.811 46.3123 0.65625 65.1703Z" fill="#F8F8FF"/>
<path opacity="0.15" d="M1459.73 49.1703V105L-4.54358 105V5.25095C32.6652 15.1762 119.12 38.1533 167.273 50.6591C227.463 66.2914 302.975 75.2242 414.601 86.3901C526.227 97.556 717.742 49.1703 729.78 46.9371C741.818 44.7039 843.595 8.97294 1038.39 0.784584C1194.23 -5.76611 1384.21 30.3123 1459.73 49.1703Z" fill="#F8F8FF"/>
<path opacity="0.2" d="M1458.58 79.1703V135L-3.80151 135V35.251C33.3591 45.1762 119.703 68.1533 167.793 80.6591C227.906 96.2914 303.32 105.224 414.802 116.39C526.284 127.556 717.552 79.1703 729.574 76.9371C741.597 74.7039 843.242 38.9729 1037.79 30.7846C1193.43 24.2339 1383.16 60.3123 1458.58 79.1703Z" fill="#F8F8FF"/>
</svg>
