<svg width="41" height="41" viewBox="0 0 41 41" fill="none" xmlns="http://www.w3.org/2000/svg">
<path d="M20.1004 24.5951C22.42 24.5951 24.3004 22.7147 24.3004 20.3951C24.3004 18.0755 22.42 16.1951 20.1004 16.1951C17.7808 16.1951 15.9004 18.0755 15.9004 20.3951C15.9004 22.7147 17.7808 24.5951 20.1004 24.5951Z" fill="#F8F8FF"/>
<path d="M20.1003 0.39502C9.05466 0.39502 0.100342 9.34934 0.100342 20.395C0.100342 31.4407 9.05466 40.395 20.1003 40.395C31.146 40.395 40.1003 31.4407 40.1003 20.395C40.1003 9.34934 31.146 0.39502 20.1003 0.39502ZM32.457 25.4782C32.361 27.3797 31.8267 29.2547 30.441 30.6257C29.0419 32.0097 27.1579 32.5253 25.2382 32.6204H14.9626C13.0426 32.5253 11.1589 32.01 9.75978 30.6257C8.37402 29.2547 7.83978 27.3797 7.74378 25.4782V15.3118C7.83978 13.4104 8.3741 11.5353 9.75978 10.1643C11.1589 8.7803 13.0428 8.26462 14.9626 8.16966H25.2381C27.1581 8.26462 29.0418 8.78006 30.4409 10.1643C31.8267 11.5353 32.3609 13.4104 32.4569 15.3118L32.457 25.4782Z" fill="#F8F8FF"/>
<path d="M25.1084 10.4865C22.6055 10.4179 17.5959 10.4179 15.093 10.4865C13.7906 10.5223 12.314 10.8465 11.386 11.8377C10.4217 12.8681 10.0573 14.1129 10.0203 15.5054C9.95537 17.9496 10.0203 25.2856 10.0203 25.2856C10.0626 26.678 10.4217 27.9229 11.386 28.9533C12.314 29.9448 13.7906 30.2687 15.093 30.3045C17.5959 30.3731 22.6055 30.3731 25.1084 30.3045C26.4109 30.2687 27.8874 29.9445 28.8154 28.9533C29.7798 27.9229 30.1442 26.6781 30.1811 25.2856V15.5054C30.1442 14.1129 29.7798 12.8681 28.8154 11.8377C27.8871 10.8462 26.4106 10.5223 25.1084 10.4865ZM20.1004 26.9055C18.8129 26.9055 17.5542 26.5237 16.4836 25.8084C15.4131 25.093 14.5787 24.0763 14.086 22.8868C13.5932 21.6972 13.4643 20.3883 13.7155 19.1255C13.9667 17.8626 14.5867 16.7027 15.4971 15.7922C16.4076 14.8818 17.5676 14.2618 18.8304 14.0106C20.0932 13.7594 21.4021 13.8883 22.5917 14.381C23.7812 14.8738 24.7979 15.7082 25.5133 16.7787C26.2286 17.8493 26.6104 19.1079 26.6104 20.3955C26.6104 22.1221 25.9245 23.7779 24.7037 24.9988C23.4828 26.2196 21.827 26.9055 20.1004 26.9055ZM26.6381 15.2293C26.3806 15.2292 26.1289 15.1528 25.9148 15.0097C25.7008 14.8666 25.5339 14.6632 25.4354 14.4253C25.3369 14.1874 25.3112 13.9256 25.3615 13.6731C25.4117 13.4205 25.5358 13.1885 25.7179 13.0065C25.9 12.8244 26.132 12.7005 26.3845 12.6503C26.6371 12.6 26.8988 12.6258 27.1367 12.7244C27.3746 12.823 27.578 12.9898 27.721 13.2039C27.8641 13.418 27.9404 13.6698 27.9404 13.9273C27.9404 14.0983 27.9067 14.2676 27.8413 14.4256C27.7758 14.5836 27.6799 14.7271 27.5589 14.848C27.438 14.9689 27.2944 15.0648 27.1364 15.1302C26.9784 15.1957 26.8091 15.2293 26.6381 15.2293Z" fill="#F8F8FF"/>
</svg>
