<svg width="41" height="41" viewBox="0 0 41 41" fill="none" xmlns="http://www.w3.org/2000/svg">
<path d="M20.1001 0.39502C9.05427 0.39502 0.100098 9.34919 0.100098 20.395C0.100098 31.4409 9.05427 40.395 20.1001 40.395C31.1459 40.395 40.1001 31.4409 40.1001 20.395C40.1001 9.34919 31.1459 0.39502 20.1001 0.39502ZM15.2043 28.6846H11.1543V15.6513H15.2043V28.6846ZM13.1543 14.0513C11.8751 14.0513 11.048 13.145 11.048 12.0242C11.048 10.8804 11.9001 10.0013 13.2063 10.0013C14.5126 10.0013 15.3126 10.8804 15.3376 12.0242C15.3376 13.145 14.5126 14.0513 13.1543 14.0513ZM29.9959 28.6846H25.9459V21.4617C25.9459 19.7804 25.3584 18.6388 23.8938 18.6388C22.7751 18.6388 22.1105 19.4117 21.8168 20.1554C21.7084 20.42 21.6813 20.795 21.6813 21.1679V28.6825H17.6293V19.8075C17.6293 18.1804 17.5772 16.82 17.523 15.6492H21.0418L21.2272 17.4596H21.3084C21.8418 16.6096 23.148 15.3554 25.3334 15.3554C27.998 15.3554 29.9959 17.1409 29.9959 20.9784V28.6846Z" fill="#F8F8FF"/>
</svg>
