<svg width="170" height="49" viewBox="0 0 170 49" fill="none" xmlns="http://www.w3.org/2000/svg">
<rect y="0.516479" width="170" height="48" rx="8" fill="#330066"/>
<path d="M45.5308 32.9859L40.8368 28.2927C42.1973 26.6593 42.8757 24.5643 42.7309 22.4434C42.5861 20.3226 41.6293 18.3392 40.0593 16.9058C38.4894 15.4725 36.4274 14.6996 34.3021 14.7479C32.1769 14.7962 30.1521 15.662 28.6489 17.1652C27.1457 18.6683 26.2799 20.6931 26.2316 22.8184C26.1833 24.9436 26.9562 27.0057 28.3896 28.5756C29.8229 30.1455 31.8063 31.1024 33.9272 31.2472C36.048 31.392 38.1431 30.7136 39.7765 29.353L44.4696 34.0471C44.5393 34.1168 44.622 34.1721 44.713 34.2098C44.8041 34.2475 44.9017 34.2669 45.0002 34.2669C45.0988 34.2669 45.1963 34.2475 45.2874 34.2098C45.3784 34.1721 45.4612 34.1168 45.5308 34.0471C45.6005 33.9774 45.6558 33.8947 45.6935 33.8037C45.7312 33.7126 45.7506 33.615 45.7506 33.5165C45.7506 33.4179 45.7312 33.3204 45.6935 33.2293C45.6558 33.1383 45.6005 33.0555 45.5308 32.9859ZM27.7502 23.0165C27.7502 21.6815 28.1461 20.3764 28.8878 19.2664C29.6295 18.1563 30.6837 17.2912 31.9171 16.7803C33.1505 16.2694 34.5077 16.1357 35.8171 16.3962C37.1264 16.6566 38.3292 17.2995 39.2732 18.2435C40.2172 19.1875 40.8601 20.3902 41.1205 21.6996C41.381 23.009 41.2473 24.3662 40.7364 25.5996C40.2255 26.833 39.3603 27.8872 38.2503 28.6289C37.1403 29.3706 35.8352 29.7665 34.5002 29.7665C32.7106 29.7645 30.9949 29.0527 29.7294 27.7873C28.464 26.5218 27.7522 24.8061 27.7502 23.0165Z" fill="#F8F8FF"/>
<path d="M61.3897 30.6285C60.611 30.6285 59.907 30.4951 59.2777 30.2285C58.659 29.9618 58.1684 29.5778 57.8057 29.0765C57.443 28.5751 57.2564 27.9831 57.2457 27.3005H59.6457C59.6777 27.7591 59.8377 28.1218 60.1257 28.3885C60.4244 28.6551 60.8297 28.7885 61.3417 28.7885C61.8644 28.7885 62.275 28.6658 62.5737 28.4205C62.8724 28.1645 63.0217 27.8338 63.0217 27.4285C63.0217 27.0978 62.9204 26.8258 62.7177 26.6125C62.515 26.3991 62.259 26.2338 61.9497 26.1165C61.651 25.9885 61.235 25.8498 60.7017 25.7005C59.9764 25.4871 59.3844 25.2791 58.9257 25.0765C58.4777 24.8631 58.0884 24.5485 57.7577 24.1325C57.4377 23.7058 57.2777 23.1405 57.2777 22.4365C57.2777 21.7751 57.443 21.1991 57.7737 20.7085C58.1044 20.2178 58.5684 19.8445 59.1657 19.5885C59.763 19.3218 60.4457 19.1885 61.2137 19.1885C62.3657 19.1885 63.299 19.4711 64.0137 20.0365C64.739 20.5911 65.139 21.3698 65.2137 22.3725H62.7497C62.7284 21.9885 62.563 21.6738 62.2537 21.4285C61.955 21.1725 61.555 21.0445 61.0537 21.0445C60.6164 21.0445 60.2644 21.1565 59.9977 21.3805C59.7417 21.6045 59.6137 21.9298 59.6137 22.3565C59.6137 22.6551 59.7097 22.9058 59.9017 23.1085C60.1044 23.3005 60.3497 23.4605 60.6377 23.5885C60.9364 23.7058 61.3524 23.8445 61.8857 24.0045C62.611 24.2178 63.203 24.4311 63.6617 24.6445C64.1204 24.8578 64.515 25.1778 64.8457 25.6045C65.1764 26.0311 65.3417 26.5911 65.3417 27.2845C65.3417 27.8818 65.187 28.4365 64.8777 28.9485C64.5684 29.4605 64.115 29.8711 63.5177 30.1805C62.9204 30.4791 62.211 30.6285 61.3897 30.6285ZM75.5237 25.8925C75.5237 26.2125 75.5024 26.5005 75.4597 26.7565H68.9797C69.033 27.3965 69.257 27.8978 69.6517 28.2605C70.0464 28.6231 70.5317 28.8045 71.1077 28.8045C71.9397 28.8045 72.5317 28.4471 72.8837 27.7325H75.2997C75.0437 28.5858 74.553 29.2898 73.8277 29.8445C73.1024 30.3885 72.2117 30.6605 71.1557 30.6605C70.3024 30.6605 69.5344 30.4738 68.8517 30.1005C68.1797 29.7165 67.6517 29.1778 67.2677 28.4845C66.8944 27.7911 66.7077 26.9911 66.7077 26.0845C66.7077 25.1671 66.8944 24.3618 67.2677 23.6685C67.641 22.9751 68.1637 22.4418 68.8357 22.0685C69.5077 21.6951 70.281 21.5085 71.1557 21.5085C71.9984 21.5085 72.7504 21.6898 73.4117 22.0525C74.0837 22.4151 74.601 22.9325 74.9637 23.6045C75.337 24.2658 75.5237 25.0285 75.5237 25.8925ZM73.2037 25.2525C73.193 24.6765 72.985 24.2178 72.5797 23.8765C72.1744 23.5245 71.6784 23.3485 71.0917 23.3485C70.537 23.3485 70.0677 23.5191 69.6837 23.8605C69.3104 24.1911 69.081 24.6551 68.9957 25.2525H73.2037ZM76.5827 26.0525C76.5827 25.1565 76.7587 24.3618 77.1107 23.6685C77.4734 22.9751 77.9587 22.4418 78.5667 22.0685C79.1854 21.6951 79.8734 21.5085 80.6307 21.5085C81.292 21.5085 81.868 21.6418 82.3587 21.9085C82.86 22.1751 83.26 22.5111 83.5587 22.9165V21.6525H85.8147V30.5165H83.5587V29.2205C83.2707 29.6365 82.8707 29.9831 82.3587 30.2605C81.8574 30.5271 81.276 30.6605 80.6147 30.6605C79.868 30.6605 79.1854 30.4685 78.5667 30.0845C77.9587 29.7005 77.4734 29.1618 77.1107 28.4685C76.7587 27.7645 76.5827 26.9591 76.5827 26.0525ZM83.5587 26.0845C83.5587 25.5405 83.452 25.0765 83.2387 24.6925C83.0254 24.2978 82.7374 23.9991 82.3747 23.7965C82.012 23.5831 81.6227 23.4765 81.2067 23.4765C80.7907 23.4765 80.4067 23.5778 80.0547 23.7805C79.7027 23.9831 79.4147 24.2818 79.1907 24.6765C78.9774 25.0605 78.8707 25.5191 78.8707 26.0525C78.8707 26.5858 78.9774 27.0551 79.1907 27.4605C79.4147 27.8551 79.7027 28.1591 80.0547 28.3725C80.4174 28.5858 80.8014 28.6925 81.2067 28.6925C81.6227 28.6925 82.012 28.5911 82.3747 28.3885C82.7374 28.1751 83.0254 27.8765 83.2387 27.4925C83.452 27.0978 83.5587 26.6285 83.5587 26.0845ZM90.2424 23.0285C90.5304 22.5591 90.9038 22.1911 91.3624 21.9245C91.8318 21.6578 92.3651 21.5245 92.9624 21.5245V23.8765H92.3704C91.6664 23.8765 91.1331 24.0418 90.7704 24.3725C90.4184 24.7031 90.2424 25.2791 90.2424 26.1005V30.5165H88.0024V21.6525H90.2424V23.0285ZM93.8952 26.0845C93.8952 25.1671 94.0819 24.3671 94.4552 23.6845C94.8285 22.9911 95.3459 22.4578 96.0072 22.0845C96.6685 21.7005 97.4259 21.5085 98.2792 21.5085C99.3779 21.5085 100.285 21.7858 100.999 22.3405C101.725 22.8845 102.21 23.6525 102.455 24.6445H100.039C99.9112 24.2605 99.6925 23.9618 99.3832 23.7485C99.0845 23.5245 98.7112 23.4125 98.2632 23.4125C97.6232 23.4125 97.1165 23.6471 96.7432 24.1165C96.3699 24.5751 96.1832 25.2311 96.1832 26.0845C96.1832 26.9271 96.3699 27.5831 96.7432 28.0525C97.1165 28.5111 97.6232 28.7405 98.2632 28.7405C99.1699 28.7405 99.7619 28.3351 100.039 27.5245H102.455C102.21 28.4845 101.725 29.2471 100.999 29.8125C100.274 30.3778 99.3672 30.6605 98.2792 30.6605C97.4259 30.6605 96.6685 30.4738 96.0072 30.1005C95.3459 29.7165 94.8285 29.1831 94.4552 28.5005C94.0819 27.8071 93.8952 27.0018 93.8952 26.0845ZM109.088 21.5245C109.76 21.5245 110.358 21.6738 110.88 21.9725C111.403 22.2605 111.808 22.6925 112.096 23.2685C112.395 23.8338 112.544 24.5165 112.544 25.3165V30.5165H110.304V25.6205C110.304 24.9165 110.128 24.3778 109.776 24.0045C109.424 23.6205 108.944 23.4285 108.336 23.4285C107.718 23.4285 107.227 23.6205 106.864 24.0045C106.512 24.3778 106.336 24.9165 106.336 25.6205V30.5165H104.096V18.6765H106.336V22.7565C106.624 22.3725 107.008 22.0738 107.488 21.8605C107.968 21.6365 108.502 21.5245 109.088 21.5245Z" fill="#F8F8FF"/>
<path d="M142.031 22.0471L134.531 29.5471C134.461 29.6168 134.378 29.6722 134.287 29.7099C134.196 29.7476 134.098 29.7671 134 29.7671C133.901 29.7671 133.804 29.7476 133.713 29.7099C133.622 29.6722 133.539 29.6168 133.469 29.5471L125.969 22.0471C125.829 21.9064 125.75 21.7155 125.75 21.5165C125.75 21.3175 125.829 21.1266 125.969 20.9859C126.11 20.8451 126.301 20.7661 126.5 20.7661C126.699 20.7661 126.89 20.8451 127.031 20.9859L134 27.9562L140.969 20.9859C141.039 20.9162 141.122 20.8609 141.213 20.8232C141.304 20.7855 141.401 20.7661 141.5 20.7661C141.598 20.7661 141.696 20.7855 141.787 20.8232C141.878 20.8609 141.961 20.9162 142.031 20.9859C142.1 21.0555 142.156 21.1383 142.193 21.2293C142.231 21.3204 142.25 21.4179 142.25 21.5165C142.25 21.615 142.231 21.7126 142.193 21.8037C142.156 21.8947 142.1 21.9774 142.031 22.0471Z" fill="#F8F8FF"/>
</svg>
