<svg width="312" height="49" viewBox="0 0 312 49" fill="none" xmlns="http://www.w3.org/2000/svg">
<rect y="0.516479" width="312" height="48" rx="8" fill="#330066"/>
<path d="M108.531 32.9859L103.837 28.2927C105.197 26.6593 105.876 24.5643 105.731 22.4434C105.586 20.3226 104.629 18.3392 103.059 16.9058C101.489 15.4725 99.4274 14.6996 97.3021 14.7479C95.1769 14.7962 93.1521 15.662 91.6489 17.1652C90.1457 18.6683 89.2799 20.6931 89.2316 22.8184C89.1833 24.9436 89.9562 27.0057 91.3896 28.5756C92.8229 30.1455 94.8063 31.1024 96.9272 31.2472C99.048 31.392 101.143 30.7136 102.776 29.353L107.47 34.0471C107.539 34.1168 107.622 34.1721 107.713 34.2098C107.804 34.2475 107.902 34.2669 108 34.2669C108.099 34.2669 108.196 34.2475 108.287 34.2098C108.378 34.1721 108.461 34.1168 108.531 34.0471C108.601 33.9774 108.656 33.8947 108.694 33.8037C108.731 33.7126 108.751 33.615 108.751 33.5165C108.751 33.4179 108.731 33.3204 108.694 33.2293C108.656 33.1383 108.601 33.0555 108.531 32.9859ZM90.7502 23.0165C90.7502 21.6815 91.1461 20.3764 91.8878 19.2664C92.6295 18.1563 93.6837 17.2912 94.9171 16.7803C96.1505 16.2694 97.5077 16.1357 98.8171 16.3962C100.126 16.6566 101.329 17.2995 102.273 18.2435C103.217 19.1875 103.86 20.3902 104.121 21.6996C104.381 23.009 104.247 24.3662 103.736 25.5996C103.226 26.833 102.36 27.8872 101.25 28.6289C100.14 29.3706 98.8352 29.7665 97.5002 29.7665C95.7106 29.7645 93.9949 29.0527 92.7294 27.7873C91.464 26.5218 90.7522 24.8061 90.7502 23.0165Z" fill="#F8F8FF"/>
<path d="M132.39 30.6285C131.611 30.6285 130.907 30.4951 130.278 30.2285C129.659 29.9618 129.168 29.5778 128.806 29.0765C128.443 28.5751 128.256 27.9831 128.246 27.3005H130.646C130.678 27.7591 130.838 28.1218 131.126 28.3885C131.424 28.6551 131.83 28.7885 132.342 28.7885C132.864 28.7885 133.275 28.6658 133.574 28.4205C133.872 28.1645 134.022 27.8338 134.022 27.4285C134.022 27.0978 133.92 26.8258 133.718 26.6125C133.515 26.3991 133.259 26.2338 132.95 26.1165C132.651 25.9885 132.235 25.8498 131.702 25.7005C130.976 25.4871 130.384 25.2791 129.926 25.0765C129.478 24.8631 129.088 24.5485 128.758 24.1325C128.438 23.7058 128.278 23.1405 128.278 22.4365C128.278 21.7751 128.443 21.1991 128.774 20.7085C129.104 20.2178 129.568 19.8445 130.166 19.5885C130.763 19.3218 131.446 19.1885 132.214 19.1885C133.366 19.1885 134.299 19.4711 135.014 20.0365C135.739 20.5911 136.139 21.3698 136.214 22.3725H133.75C133.728 21.9885 133.563 21.6738 133.254 21.4285C132.955 21.1725 132.555 21.0445 132.054 21.0445C131.616 21.0445 131.264 21.1565 130.998 21.3805C130.742 21.6045 130.614 21.9298 130.614 22.3565C130.614 22.6551 130.71 22.9058 130.902 23.1085C131.104 23.3005 131.35 23.4605 131.638 23.5885C131.936 23.7058 132.352 23.8445 132.886 24.0045C133.611 24.2178 134.203 24.4311 134.662 24.6445C135.12 24.8578 135.515 25.1778 135.846 25.6045C136.176 26.0311 136.342 26.5911 136.342 27.2845C136.342 27.8818 136.187 28.4365 135.878 28.9485C135.568 29.4605 135.115 29.8711 134.518 30.1805C133.92 30.4791 133.211 30.6285 132.39 30.6285ZM146.524 25.8925C146.524 26.2125 146.502 26.5005 146.46 26.7565H139.98C140.033 27.3965 140.257 27.8978 140.652 28.2605C141.046 28.6231 141.532 28.8045 142.108 28.8045C142.94 28.8045 143.532 28.4471 143.884 27.7325H146.3C146.044 28.5858 145.553 29.2898 144.828 29.8445C144.102 30.3885 143.212 30.6605 142.156 30.6605C141.302 30.6605 140.534 30.4738 139.852 30.1005C139.18 29.7165 138.652 29.1778 138.268 28.4845C137.894 27.7911 137.708 26.9911 137.708 26.0845C137.708 25.1671 137.894 24.3618 138.268 23.6685C138.641 22.9751 139.164 22.4418 139.836 22.0685C140.508 21.6951 141.281 21.5085 142.156 21.5085C142.998 21.5085 143.75 21.6898 144.412 22.0525C145.084 22.4151 145.601 22.9325 145.964 23.6045C146.337 24.2658 146.524 25.0285 146.524 25.8925ZM144.204 25.2525C144.193 24.6765 143.985 24.2178 143.58 23.8765C143.174 23.5245 142.678 23.3485 142.092 23.3485C141.537 23.3485 141.068 23.5191 140.684 23.8605C140.31 24.1911 140.081 24.6551 139.996 25.2525H144.204ZM147.583 26.0525C147.583 25.1565 147.759 24.3618 148.111 23.6685C148.473 22.9751 148.959 22.4418 149.567 22.0685C150.185 21.6951 150.873 21.5085 151.631 21.5085C152.292 21.5085 152.868 21.6418 153.359 21.9085C153.86 22.1751 154.26 22.5111 154.559 22.9165V21.6525H156.815V30.5165H154.559V29.2205C154.271 29.6365 153.871 29.9831 153.359 30.2605C152.857 30.5271 152.276 30.6605 151.615 30.6605C150.868 30.6605 150.185 30.4685 149.567 30.0845C148.959 29.7005 148.473 29.1618 148.111 28.4685C147.759 27.7645 147.583 26.9591 147.583 26.0525ZM154.559 26.0845C154.559 25.5405 154.452 25.0765 154.239 24.6925C154.025 24.2978 153.737 23.9991 153.375 23.7965C153.012 23.5831 152.623 23.4765 152.207 23.4765C151.791 23.4765 151.407 23.5778 151.055 23.7805C150.703 23.9831 150.415 24.2818 150.191 24.6765C149.977 25.0605 149.871 25.5191 149.871 26.0525C149.871 26.5858 149.977 27.0551 150.191 27.4605C150.415 27.8551 150.703 28.1591 151.055 28.3725C151.417 28.5858 151.801 28.6925 152.207 28.6925C152.623 28.6925 153.012 28.5911 153.375 28.3885C153.737 28.1751 154.025 27.8765 154.239 27.4925C154.452 27.0978 154.559 26.6285 154.559 26.0845ZM161.242 23.0285C161.53 22.5591 161.904 22.1911 162.362 21.9245C162.832 21.6578 163.365 21.5245 163.962 21.5245V23.8765H163.37C162.666 23.8765 162.133 24.0418 161.77 24.3725C161.418 24.7031 161.242 25.2791 161.242 26.1005V30.5165H159.002V21.6525H161.242V23.0285ZM164.895 26.0845C164.895 25.1671 165.082 24.3671 165.455 23.6845C165.829 22.9911 166.346 22.4578 167.007 22.0845C167.669 21.7005 168.426 21.5085 169.279 21.5085C170.378 21.5085 171.285 21.7858 171.999 22.3405C172.725 22.8845 173.21 23.6525 173.455 24.6445H171.039C170.911 24.2605 170.693 23.9618 170.383 23.7485C170.085 23.5245 169.711 23.4125 169.263 23.4125C168.623 23.4125 168.117 23.6471 167.743 24.1165C167.37 24.5751 167.183 25.2311 167.183 26.0845C167.183 26.9271 167.37 27.5831 167.743 28.0525C168.117 28.5111 168.623 28.7405 169.263 28.7405C170.17 28.7405 170.762 28.3351 171.039 27.5245H173.455C173.21 28.4845 172.725 29.2471 171.999 29.8125C171.274 30.3778 170.367 30.6605 169.279 30.6605C168.426 30.6605 167.669 30.4738 167.007 30.1005C166.346 29.7165 165.829 29.1831 165.455 28.5005C165.082 27.8071 164.895 27.0018 164.895 26.0845ZM180.088 21.5245C180.76 21.5245 181.358 21.6738 181.88 21.9725C182.403 22.2605 182.808 22.6925 183.096 23.2685C183.395 23.8338 183.544 24.5165 183.544 25.3165V30.5165H181.304V25.6205C181.304 24.9165 181.128 24.3778 180.776 24.0045C180.424 23.6205 179.944 23.4285 179.336 23.4285C178.718 23.4285 178.227 23.6205 177.864 24.0045C177.512 24.3778 177.336 24.9165 177.336 25.6205V30.5165H175.096V18.6765H177.336V22.7565C177.624 22.3725 178.008 22.0738 178.488 21.8605C178.968 21.6365 179.502 21.5245 180.088 21.5245Z" fill="#F8F8FF"/>
<path d="M221.031 22.0471L213.531 29.5471C213.461 29.6168 213.378 29.6721 213.287 29.7099C213.196 29.7476 213.099 29.7671 213 29.7671C212.902 29.7671 212.804 29.7476 212.713 29.7099C212.622 29.6721 212.539 29.6168 212.47 29.5471L204.97 22.0471C204.829 21.9064 204.75 21.7155 204.75 21.5165C204.75 21.3174 204.829 21.1266 204.97 20.9858C205.11 20.8451 205.301 20.766 205.5 20.766C205.699 20.766 205.89 20.8451 206.031 20.9858L213 27.9562L219.97 20.9858C220.039 20.9162 220.122 20.8609 220.213 20.8232C220.304 20.7855 220.402 20.766 220.5 20.766C220.599 20.766 220.696 20.7855 220.787 20.8232C220.878 20.8609 220.961 20.9162 221.031 20.9858C221.1 21.0555 221.156 21.1382 221.193 21.2293C221.231 21.3203 221.251 21.4179 221.251 21.5165C221.251 21.615 221.231 21.7126 221.193 21.8036C221.156 21.8947 221.1 21.9774 221.031 22.0471Z" fill="#F8F8FF"/>
</svg>
