<svg width="20" height="21" viewBox="0 0 20 21" fill="none" xmlns="http://www.w3.org/2000/svg">
<path d="M19.5308 18.9859L14.8368 14.2927C16.1973 12.6593 16.8757 10.5643 16.7309 8.44342C16.5861 6.32255 15.6293 4.33916 14.0593 2.90583C12.4894 1.4725 10.4274 0.699593 8.30213 0.747893C6.17687 0.796193 4.15205 1.66198 2.64888 3.16515C1.14571 4.66832 0.279927 6.69314 0.231627 8.81839C0.183327 10.9436 0.956234 13.0057 2.38956 14.5756C3.82289 16.1455 5.80629 17.1024 7.92715 17.2472C10.048 17.392 12.1431 16.7136 13.7765 15.353L18.4696 20.0471C18.5393 20.1168 18.622 20.1721 18.713 20.2098C18.8041 20.2475 18.9017 20.2669 19.0002 20.2669C19.0988 20.2669 19.1963 20.2475 19.2874 20.2098C19.3784 20.1721 19.4612 20.1168 19.5308 20.0471C19.6005 19.9774 19.6558 19.8947 19.6935 19.8037C19.7312 19.7126 19.7506 19.615 19.7506 19.5165C19.7506 19.4179 19.7312 19.3204 19.6935 19.2293C19.6558 19.1383 19.6005 19.0555 19.5308 18.9859ZM1.75021 9.01648C1.75021 7.68146 2.14609 6.37641 2.88779 5.26638C3.62949 4.15635 4.6837 3.29118 5.9171 2.78029C7.1505 2.2694 8.5077 2.13573 9.81707 2.39618C11.1264 2.65663 12.3292 3.2995 13.2732 4.24351C14.2172 5.18751 14.8601 6.39025 15.1205 7.69962C15.381 9.00899 15.2473 10.3662 14.7364 11.5996C14.2255 12.833 13.3603 13.8872 12.2503 14.6289C11.1403 15.3706 9.83524 15.7665 8.50021 15.7665C6.71061 15.7645 4.99488 15.0527 3.72944 13.7873C2.464 12.5218 1.7522 10.8061 1.75021 9.01648Z" fill="#330066"/>
</svg>
