<svg width="172" height="51" viewBox="0 0 172 51" fill="none" xmlns="http://www.w3.org/2000/svg">
<rect x="0.5" y="1.01648" width="171" height="49" rx="8.5" stroke="#6600CC"/>
<path d="M46.5308 33.9859L41.8368 29.2927C43.1973 27.6593 43.8757 25.5643 43.7309 23.4434C43.5861 21.3226 42.6293 19.3392 41.0593 17.9058C39.4894 16.4725 37.4274 15.6996 35.3021 15.7479C33.1769 15.7962 31.1521 16.662 29.6489 18.1652C28.1457 19.6683 27.2799 21.6931 27.2316 23.8184C27.1833 25.9436 27.9562 28.0057 29.3896 29.5756C30.8229 31.1455 32.8063 32.1024 34.9272 32.2472C37.048 32.392 39.1431 31.7136 40.7765 30.353L45.4696 35.0471C45.5393 35.1168 45.622 35.1721 45.713 35.2098C45.8041 35.2475 45.9017 35.2669 46.0002 35.2669C46.0988 35.2669 46.1963 35.2475 46.2874 35.2098C46.3784 35.1721 46.4612 35.1168 46.5308 35.0471C46.6005 34.9774 46.6558 34.8947 46.6935 34.8037C46.7312 34.7126 46.7506 34.615 46.7506 34.5165C46.7506 34.4179 46.7312 34.3204 46.6935 34.2293C46.6558 34.1383 46.6005 34.0555 46.5308 33.9859ZM28.7502 24.0165C28.7502 22.6815 29.1461 21.3764 29.8878 20.2664C30.6295 19.1563 31.6837 18.2912 32.9171 17.7803C34.1505 17.2694 35.5077 17.1357 36.8171 17.3962C38.1264 17.6566 39.3292 18.2995 40.2732 19.2435C41.2172 20.1875 41.8601 21.3902 42.1205 22.6996C42.381 24.009 42.2473 25.3662 41.7364 26.5996C41.2255 27.833 40.3603 28.8872 39.2503 29.6289C38.1403 30.3706 36.8352 30.7665 35.5002 30.7665C33.7106 30.7645 31.9949 30.0527 30.7294 28.7873C29.464 27.5218 28.7522 25.8061 28.7502 24.0165Z" fill="#330066"/>
<path d="M62.3897 31.6285C61.611 31.6285 60.907 31.4951 60.2777 31.2285C59.659 30.9618 59.1684 30.5778 58.8057 30.0765C58.443 29.5751 58.2564 28.9831 58.2457 28.3005H60.6457C60.6777 28.7591 60.8377 29.1218 61.1257 29.3885C61.4244 29.6551 61.8297 29.7885 62.3417 29.7885C62.8644 29.7885 63.275 29.6658 63.5737 29.4205C63.8724 29.1645 64.0217 28.8338 64.0217 28.4285C64.0217 28.0978 63.9204 27.8258 63.7177 27.6125C63.515 27.3991 63.259 27.2338 62.9497 27.1165C62.651 26.9885 62.235 26.8498 61.7017 26.7005C60.9764 26.4871 60.3844 26.2791 59.9257 26.0765C59.4777 25.8631 59.0884 25.5485 58.7577 25.1325C58.4377 24.7058 58.2777 24.1405 58.2777 23.4365C58.2777 22.7751 58.443 22.1991 58.7737 21.7085C59.1044 21.2178 59.5684 20.8445 60.1657 20.5885C60.763 20.3218 61.4457 20.1885 62.2137 20.1885C63.3657 20.1885 64.299 20.4711 65.0137 21.0365C65.739 21.5911 66.139 22.3698 66.2137 23.3725H63.7497C63.7284 22.9885 63.563 22.6738 63.2537 22.4285C62.955 22.1725 62.555 22.0445 62.0537 22.0445C61.6164 22.0445 61.2644 22.1565 60.9977 22.3805C60.7417 22.6045 60.6137 22.9298 60.6137 23.3565C60.6137 23.6551 60.7097 23.9058 60.9017 24.1085C61.1044 24.3005 61.3497 24.4605 61.6377 24.5885C61.9364 24.7058 62.3524 24.8445 62.8857 25.0045C63.611 25.2178 64.203 25.4311 64.6617 25.6445C65.1204 25.8578 65.515 26.1778 65.8457 26.6045C66.1764 27.0311 66.3417 27.5911 66.3417 28.2845C66.3417 28.8818 66.187 29.4365 65.8777 29.9485C65.5684 30.4605 65.115 30.8711 64.5177 31.1805C63.9204 31.4791 63.211 31.6285 62.3897 31.6285ZM76.5237 26.8925C76.5237 27.2125 76.5024 27.5005 76.4597 27.7565H69.9797C70.033 28.3965 70.257 28.8978 70.6517 29.2605C71.0464 29.6231 71.5317 29.8045 72.1077 29.8045C72.9397 29.8045 73.5317 29.4471 73.8837 28.7325H76.2997C76.0437 29.5858 75.553 30.2898 74.8277 30.8445C74.1024 31.3885 73.2117 31.6605 72.1557 31.6605C71.3024 31.6605 70.5344 31.4738 69.8517 31.1005C69.1797 30.7165 68.6517 30.1778 68.2677 29.4845C67.8944 28.7911 67.7077 27.9911 67.7077 27.0845C67.7077 26.1671 67.8944 25.3618 68.2677 24.6685C68.641 23.9751 69.1637 23.4418 69.8357 23.0685C70.5077 22.6951 71.281 22.5085 72.1557 22.5085C72.9984 22.5085 73.7504 22.6898 74.4117 23.0525C75.0837 23.4151 75.601 23.9325 75.9637 24.6045C76.337 25.2658 76.5237 26.0285 76.5237 26.8925ZM74.2037 26.2525C74.193 25.6765 73.985 25.2178 73.5797 24.8765C73.1744 24.5245 72.6784 24.3485 72.0917 24.3485C71.537 24.3485 71.0677 24.5191 70.6837 24.8605C70.3104 25.1911 70.081 25.6551 69.9957 26.2525H74.2037ZM77.5827 27.0525C77.5827 26.1565 77.7587 25.3618 78.1107 24.6685C78.4734 23.9751 78.9587 23.4418 79.5667 23.0685C80.1854 22.6951 80.8734 22.5085 81.6307 22.5085C82.292 22.5085 82.868 22.6418 83.3587 22.9085C83.86 23.1751 84.26 23.5111 84.5587 23.9165V22.6525H86.8147V31.5165H84.5587V30.2205C84.2707 30.6365 83.8707 30.9831 83.3587 31.2605C82.8574 31.5271 82.276 31.6605 81.6147 31.6605C80.868 31.6605 80.1854 31.4685 79.5667 31.0845C78.9587 30.7005 78.4734 30.1618 78.1107 29.4685C77.7587 28.7645 77.5827 27.9591 77.5827 27.0525ZM84.5587 27.0845C84.5587 26.5405 84.452 26.0765 84.2387 25.6925C84.0254 25.2978 83.7374 24.9991 83.3747 24.7965C83.012 24.5831 82.6227 24.4765 82.2067 24.4765C81.7907 24.4765 81.4067 24.5778 81.0547 24.7805C80.7027 24.9831 80.4147 25.2818 80.1907 25.6765C79.9774 26.0605 79.8707 26.5191 79.8707 27.0525C79.8707 27.5858 79.9774 28.0551 80.1907 28.4605C80.4147 28.8551 80.7027 29.1591 81.0547 29.3725C81.4174 29.5858 81.8014 29.6925 82.2067 29.6925C82.6227 29.6925 83.012 29.5911 83.3747 29.3885C83.7374 29.1751 84.0254 28.8765 84.2387 28.4925C84.452 28.0978 84.5587 27.6285 84.5587 27.0845ZM91.2424 24.0285C91.5304 23.5591 91.9038 23.1911 92.3624 22.9245C92.8318 22.6578 93.3651 22.5245 93.9624 22.5245V24.8765H93.3704C92.6664 24.8765 92.1331 25.0418 91.7704 25.3725C91.4184 25.7031 91.2424 26.2791 91.2424 27.1005V31.5165H89.0024V22.6525H91.2424V24.0285ZM94.8952 27.0845C94.8952 26.1671 95.0819 25.3671 95.4552 24.6845C95.8285 23.9911 96.3459 23.4578 97.0072 23.0845C97.6685 22.7005 98.4259 22.5085 99.2792 22.5085C100.378 22.5085 101.285 22.7858 101.999 23.3405C102.725 23.8845 103.21 24.6525 103.455 25.6445H101.039C100.911 25.2605 100.693 24.9618 100.383 24.7485C100.085 24.5245 99.7112 24.4125 99.2632 24.4125C98.6232 24.4125 98.1165 24.6471 97.7432 25.1165C97.3699 25.5751 97.1832 26.2311 97.1832 27.0845C97.1832 27.9271 97.3699 28.5831 97.7432 29.0525C98.1165 29.5111 98.6232 29.7405 99.2632 29.7405C100.17 29.7405 100.762 29.3351 101.039 28.5245H103.455C103.21 29.4845 102.725 30.2471 101.999 30.8125C101.274 31.3778 100.367 31.6605 99.2792 31.6605C98.4259 31.6605 97.6685 31.4738 97.0072 31.1005C96.3459 30.7165 95.8285 30.1831 95.4552 29.5005C95.0819 28.8071 94.8952 28.0018 94.8952 27.0845ZM110.088 22.5245C110.76 22.5245 111.358 22.6738 111.88 22.9725C112.403 23.2605 112.808 23.6925 113.096 24.2685C113.395 24.8338 113.544 25.5165 113.544 26.3165V31.5165H111.304V26.6205C111.304 25.9165 111.128 25.3778 110.776 25.0045C110.424 24.6205 109.944 24.4285 109.336 24.4285C108.718 24.4285 108.227 24.6205 107.864 25.0045C107.512 25.3778 107.336 25.9165 107.336 26.6205V31.5165H105.096V19.6765H107.336V23.7565C107.624 23.3725 108.008 23.0738 108.488 22.8605C108.968 22.6365 109.502 22.5245 110.088 22.5245Z" fill="#330066"/>
<path d="M143.031 23.0471L135.531 30.5471C135.461 30.6168 135.378 30.6722 135.287 30.7099C135.196 30.7476 135.098 30.7671 135 30.7671C134.901 30.7671 134.804 30.7476 134.713 30.7099C134.622 30.6722 134.539 30.6168 134.469 30.5471L126.969 23.0471C126.829 22.9064 126.75 22.7155 126.75 22.5165C126.75 22.3175 126.829 22.1266 126.969 21.9859C127.11 21.8451 127.301 21.7661 127.5 21.7661C127.699 21.7661 127.89 21.8451 128.031 21.9859L135 28.9562L141.969 21.9859C142.039 21.9162 142.122 21.8609 142.213 21.8232C142.304 21.7855 142.401 21.7661 142.5 21.7661C142.598 21.7661 142.696 21.7855 142.787 21.8232C142.878 21.8609 142.961 21.9162 143.031 21.9859C143.1 22.0555 143.156 22.1383 143.193 22.2293C143.231 22.3204 143.25 22.4179 143.25 22.5165C143.25 22.615 143.231 22.7126 143.193 22.8037C143.156 22.8947 143.1 22.9774 143.031 23.0471Z" fill="#330066"/>
</svg>
