<svg width="314" height="51" viewBox="0 0 314 51" fill="none" xmlns="http://www.w3.org/2000/svg">
<rect x="0.5" y="1.01648" width="313" height="49" rx="8.5" stroke="#6600CC"/>
<path d="M109.531 33.9859L104.837 29.2927C106.197 27.6593 106.876 25.5643 106.731 23.4434C106.586 21.3226 105.629 19.3392 104.059 17.9058C102.489 16.4725 100.427 15.6996 98.3021 15.7479C96.1769 15.7962 94.1521 16.662 92.6489 18.1652C91.1457 19.6683 90.2799 21.6931 90.2316 23.8184C90.1833 25.9436 90.9562 28.0057 92.3896 29.5756C93.8229 31.1455 95.8063 32.1024 97.9272 32.2472C100.048 32.392 102.143 31.7136 103.776 30.353L108.47 35.0471C108.539 35.1168 108.622 35.1721 108.713 35.2098C108.804 35.2475 108.902 35.2669 109 35.2669C109.099 35.2669 109.196 35.2475 109.287 35.2098C109.378 35.1721 109.461 35.1168 109.531 35.0471C109.601 34.9774 109.656 34.8947 109.694 34.8037C109.731 34.7126 109.751 34.615 109.751 34.5165C109.751 34.4179 109.731 34.3204 109.694 34.2293C109.656 34.1383 109.601 34.0555 109.531 33.9859ZM91.7502 24.0165C91.7502 22.6815 92.1461 21.3764 92.8878 20.2664C93.6295 19.1563 94.6837 18.2912 95.9171 17.7803C97.1505 17.2694 98.5077 17.1357 99.8171 17.3962C101.126 17.6566 102.329 18.2995 103.273 19.2435C104.217 20.1875 104.86 21.3902 105.121 22.6996C105.381 24.009 105.247 25.3662 104.736 26.5996C104.226 27.833 103.36 28.8872 102.25 29.6289C101.14 30.3706 99.8352 30.7665 98.5002 30.7665C96.7106 30.7645 94.9949 30.0527 93.7294 28.7873C92.464 27.5218 91.7522 25.8061 91.7502 24.0165Z" fill="#330066"/>
<path d="M133.39 31.6285C132.611 31.6285 131.907 31.4951 131.278 31.2285C130.659 30.9618 130.168 30.5778 129.806 30.0765C129.443 29.5751 129.256 28.9831 129.246 28.3005H131.646C131.678 28.7591 131.838 29.1218 132.126 29.3885C132.424 29.6551 132.83 29.7885 133.342 29.7885C133.864 29.7885 134.275 29.6658 134.574 29.4205C134.872 29.1645 135.022 28.8338 135.022 28.4285C135.022 28.0978 134.92 27.8258 134.718 27.6125C134.515 27.3991 134.259 27.2338 133.95 27.1165C133.651 26.9885 133.235 26.8498 132.702 26.7005C131.976 26.4871 131.384 26.2791 130.926 26.0765C130.478 25.8631 130.088 25.5485 129.758 25.1325C129.438 24.7058 129.278 24.1405 129.278 23.4365C129.278 22.7751 129.443 22.1991 129.774 21.7085C130.104 21.2178 130.568 20.8445 131.166 20.5885C131.763 20.3218 132.446 20.1885 133.214 20.1885C134.366 20.1885 135.299 20.4711 136.014 21.0365C136.739 21.5911 137.139 22.3698 137.214 23.3725H134.75C134.728 22.9885 134.563 22.6738 134.254 22.4285C133.955 22.1725 133.555 22.0445 133.054 22.0445C132.616 22.0445 132.264 22.1565 131.998 22.3805C131.742 22.6045 131.614 22.9298 131.614 23.3565C131.614 23.6551 131.71 23.9058 131.902 24.1085C132.104 24.3005 132.35 24.4605 132.638 24.5885C132.936 24.7058 133.352 24.8445 133.886 25.0045C134.611 25.2178 135.203 25.4311 135.662 25.6445C136.12 25.8578 136.515 26.1778 136.846 26.6045C137.176 27.0311 137.342 27.5911 137.342 28.2845C137.342 28.8818 137.187 29.4365 136.878 29.9485C136.568 30.4605 136.115 30.8711 135.518 31.1805C134.92 31.4791 134.211 31.6285 133.39 31.6285ZM147.524 26.8925C147.524 27.2125 147.502 27.5005 147.46 27.7565H140.98C141.033 28.3965 141.257 28.8978 141.652 29.2605C142.046 29.6231 142.532 29.8045 143.108 29.8045C143.94 29.8045 144.532 29.4471 144.884 28.7325H147.3C147.044 29.5858 146.553 30.2898 145.828 30.8445C145.102 31.3885 144.212 31.6605 143.156 31.6605C142.302 31.6605 141.534 31.4738 140.852 31.1005C140.18 30.7165 139.652 30.1778 139.268 29.4845C138.894 28.7911 138.708 27.9911 138.708 27.0845C138.708 26.1671 138.894 25.3618 139.268 24.6685C139.641 23.9751 140.164 23.4418 140.836 23.0685C141.508 22.6951 142.281 22.5085 143.156 22.5085C143.998 22.5085 144.75 22.6898 145.412 23.0525C146.084 23.4151 146.601 23.9325 146.964 24.6045C147.337 25.2658 147.524 26.0285 147.524 26.8925ZM145.204 26.2525C145.193 25.6765 144.985 25.2178 144.58 24.8765C144.174 24.5245 143.678 24.3485 143.092 24.3485C142.537 24.3485 142.068 24.5191 141.684 24.8605C141.31 25.1911 141.081 25.6551 140.996 26.2525H145.204ZM148.583 27.0525C148.583 26.1565 148.759 25.3618 149.111 24.6685C149.473 23.9751 149.959 23.4418 150.567 23.0685C151.185 22.6951 151.873 22.5085 152.631 22.5085C153.292 22.5085 153.868 22.6418 154.359 22.9085C154.86 23.1751 155.26 23.5111 155.559 23.9165V22.6525H157.815V31.5165H155.559V30.2205C155.271 30.6365 154.871 30.9831 154.359 31.2605C153.857 31.5271 153.276 31.6605 152.615 31.6605C151.868 31.6605 151.185 31.4685 150.567 31.0845C149.959 30.7005 149.473 30.1618 149.111 29.4685C148.759 28.7645 148.583 27.9591 148.583 27.0525ZM155.559 27.0845C155.559 26.5405 155.452 26.0765 155.239 25.6925C155.025 25.2978 154.737 24.9991 154.375 24.7965C154.012 24.5831 153.623 24.4765 153.207 24.4765C152.791 24.4765 152.407 24.5778 152.055 24.7805C151.703 24.9831 151.415 25.2818 151.191 25.6765C150.977 26.0605 150.871 26.5191 150.871 27.0525C150.871 27.5858 150.977 28.0551 151.191 28.4605C151.415 28.8551 151.703 29.1591 152.055 29.3725C152.417 29.5858 152.801 29.6925 153.207 29.6925C153.623 29.6925 154.012 29.5911 154.375 29.3885C154.737 29.1751 155.025 28.8765 155.239 28.4925C155.452 28.0978 155.559 27.6285 155.559 27.0845ZM162.242 24.0285C162.53 23.5591 162.904 23.1911 163.362 22.9245C163.832 22.6578 164.365 22.5245 164.962 22.5245V24.8765H164.37C163.666 24.8765 163.133 25.0418 162.77 25.3725C162.418 25.7031 162.242 26.2791 162.242 27.1005V31.5165H160.002V22.6525H162.242V24.0285ZM165.895 27.0845C165.895 26.1671 166.082 25.3671 166.455 24.6845C166.829 23.9911 167.346 23.4578 168.007 23.0845C168.669 22.7005 169.426 22.5085 170.279 22.5085C171.378 22.5085 172.285 22.7858 172.999 23.3405C173.725 23.8845 174.21 24.6525 174.455 25.6445H172.039C171.911 25.2605 171.693 24.9618 171.383 24.7485C171.085 24.5245 170.711 24.4125 170.263 24.4125C169.623 24.4125 169.117 24.6471 168.743 25.1165C168.37 25.5751 168.183 26.2311 168.183 27.0845C168.183 27.9271 168.37 28.5831 168.743 29.0525C169.117 29.5111 169.623 29.7405 170.263 29.7405C171.17 29.7405 171.762 29.3351 172.039 28.5245H174.455C174.21 29.4845 173.725 30.2471 172.999 30.8125C172.274 31.3778 171.367 31.6605 170.279 31.6605C169.426 31.6605 168.669 31.4738 168.007 31.1005C167.346 30.7165 166.829 30.1831 166.455 29.5005C166.082 28.8071 165.895 28.0018 165.895 27.0845ZM181.088 22.5245C181.76 22.5245 182.358 22.6738 182.88 22.9725C183.403 23.2605 183.808 23.6925 184.096 24.2685C184.395 24.8338 184.544 25.5165 184.544 26.3165V31.5165H182.304V26.6205C182.304 25.9165 182.128 25.3778 181.776 25.0045C181.424 24.6205 180.944 24.4285 180.336 24.4285C179.718 24.4285 179.227 24.6205 178.864 25.0045C178.512 25.3778 178.336 25.9165 178.336 26.6205V31.5165H176.096V19.6765H178.336V23.7565C178.624 23.3725 179.008 23.0738 179.488 22.8605C179.968 22.6365 180.502 22.5245 181.088 22.5245Z" fill="#330066"/>
<path d="M222.031 23.0471L214.531 30.5471C214.461 30.6168 214.378 30.6722 214.287 30.7099C214.196 30.7476 214.099 30.7671 214 30.7671C213.902 30.7671 213.804 30.7476 213.713 30.7099C213.622 30.6722 213.539 30.6168 213.47 30.5471L205.97 23.0471C205.829 22.9064 205.75 22.7155 205.75 22.5165C205.75 22.3175 205.829 22.1266 205.97 21.9859C206.11 21.8451 206.301 21.7661 206.5 21.7661C206.699 21.7661 206.89 21.8451 207.031 21.9859L214 28.9562L220.97 21.9859C221.039 21.9162 221.122 21.8609 221.213 21.8232C221.304 21.7855 221.402 21.7661 221.5 21.7661C221.599 21.7661 221.696 21.7855 221.787 21.8232C221.878 21.8609 221.961 21.9162 222.031 21.9859C222.1 22.0555 222.156 22.1383 222.193 22.2293C222.231 22.3204 222.251 22.4179 222.251 22.5165C222.251 22.615 222.231 22.7126 222.193 22.8037C222.156 22.8947 222.1 22.9774 222.031 23.0471Z" fill="#330066"/>
</svg>
