<svg width="109" height="108" viewBox="0 0 109 108" fill="none" xmlns="http://www.w3.org/2000/svg">
<rect x="1.375" y="1" width="106" height="106" rx="53" fill="#EFEFFF"/>
<rect x="1.375" y="1" width="106" height="106" rx="53" stroke="#F8F8FF" stroke-width="2"/>
<path d="M79.79 76.585L67.2725 64.07C70.9005 59.7143 72.7097 54.1275 72.3235 48.4719C71.9374 42.8162 69.3857 37.5272 65.1993 33.7049C61.0129 29.8827 55.5141 27.8217 49.8467 27.9505C44.1794 28.0793 38.7799 30.388 34.7714 34.3965C30.763 38.4049 28.4542 43.8044 28.3254 49.4718C28.1966 55.1391 30.2577 60.638 34.0799 64.8244C37.9021 69.0108 43.1912 71.5625 48.8468 71.9486C54.5024 72.3347 60.0892 70.5256 64.445 66.8975L76.96 79.415C77.1458 79.6008 77.3664 79.7482 77.6092 79.8488C77.852 79.9494 78.1122 80.0011 78.375 80.0011C78.6377 80.0011 78.898 79.9494 79.1408 79.8488C79.3835 79.7482 79.6041 79.6008 79.79 79.415C79.9758 79.2292 80.1232 79.0086 80.2237 78.7658C80.3243 78.523 80.3761 78.2628 80.3761 78C80.3761 77.7372 80.3243 77.477 80.2237 77.2342C80.1232 76.9914 79.9758 76.7708 79.79 76.585ZM32.375 50C32.375 46.44 33.4306 42.9598 35.4085 39.9998C37.3864 37.0397 40.1976 34.7326 43.4867 33.3702C46.7757 32.0078 50.3949 31.6514 53.8866 32.3459C57.3782 33.0404 60.5855 34.7548 63.1029 37.2721C65.6202 39.7894 67.3346 42.9967 68.0291 46.4884C68.7236 49.9801 68.3672 53.5993 67.0048 56.8883C65.6424 60.1774 63.3353 62.9886 60.3752 64.9665C57.4151 66.9443 53.935 68 50.375 68C45.6027 67.9947 41.0274 66.0966 37.6529 62.7221C34.2784 59.3476 32.3803 54.7723 32.375 50Z" fill="#070707"/>
</svg>
