<svg width="173" height="49" viewBox="0 0 173 49" fill="none" xmlns="http://www.w3.org/2000/svg">
<path d="M27.344 28.7405H31.024V30.5165H25.104V19.3485H27.344V28.7405ZM40.6878 25.8925C40.6878 26.2125 40.6664 26.5005 40.6238 26.7565H34.1438C34.1971 27.3965 34.4211 27.8978 34.8158 28.2605C35.2104 28.6231 35.6958 28.8045 36.2718 28.8045C37.1038 28.8045 37.6958 28.4471 38.0478 27.7325H40.4638C40.2078 28.5858 39.7171 29.2898 38.9918 29.8445C38.2664 30.3885 37.3758 30.6605 36.3198 30.6605C35.4664 30.6605 34.6984 30.4738 34.0158 30.1005C33.3438 29.7165 32.8158 29.1778 32.4318 28.4845C32.0584 27.7911 31.8717 26.9911 31.8717 26.0845C31.8717 25.1671 32.0584 24.3618 32.4318 23.6685C32.8051 22.9751 33.3278 22.4418 33.9998 22.0685C34.6718 21.6951 35.4451 21.5085 36.3198 21.5085C37.1624 21.5085 37.9144 21.6898 38.5758 22.0525C39.2478 22.4151 39.7651 22.9325 40.1278 23.6045C40.5011 24.2658 40.6878 25.0285 40.6878 25.8925ZM38.3678 25.2525C38.3571 24.6765 38.1491 24.2178 37.7438 23.8765C37.3384 23.5245 36.8424 23.3485 36.2558 23.3485C35.7011 23.3485 35.2318 23.5191 34.8478 23.8605C34.4744 24.1911 34.2451 24.6551 34.1598 25.2525H38.3678ZM41.7467 26.0525C41.7467 25.1565 41.9227 24.3618 42.2747 23.6685C42.6374 22.9751 43.1228 22.4418 43.7308 22.0685C44.3494 21.6951 45.0374 21.5085 45.7948 21.5085C46.4561 21.5085 47.0321 21.6418 47.5228 21.9085C48.0241 22.1751 48.4241 22.5111 48.7228 22.9165V21.6525H50.9788V30.5165H48.7228V29.2205C48.4348 29.6365 48.0348 29.9831 47.5228 30.2605C47.0214 30.5271 46.4401 30.6605 45.7788 30.6605C45.0321 30.6605 44.3494 30.4685 43.7308 30.0845C43.1228 29.7005 42.6374 29.1618 42.2747 28.4685C41.9227 27.7645 41.7467 26.9591 41.7467 26.0525ZM48.7228 26.0845C48.7228 25.5405 48.6161 25.0765 48.4028 24.6925C48.1894 24.2978 47.9014 23.9991 47.5388 23.7965C47.1761 23.5831 46.7868 23.4765 46.3708 23.4765C45.9548 23.4765 45.5708 23.5778 45.2188 23.7805C44.8668 23.9831 44.5788 24.2818 44.3548 24.6765C44.1414 25.0605 44.0348 25.5191 44.0348 26.0525C44.0348 26.5858 44.1414 27.0551 44.3548 27.4605C44.5788 27.8551 44.8668 28.1591 45.2188 28.3725C45.5814 28.5858 45.9654 28.6925 46.3708 28.6925C46.7868 28.6925 47.1761 28.5911 47.5388 28.3885C47.9014 28.1751 48.1894 27.8765 48.4028 27.4925C48.6161 27.0978 48.7228 26.6285 48.7228 26.0845ZM55.4065 23.0285C55.6945 22.5591 56.0678 22.1911 56.5265 21.9245C56.9958 21.6578 57.5292 21.5245 58.1265 21.5245V23.8765H57.5345C56.8305 23.8765 56.2972 24.0418 55.9345 24.3725C55.5825 24.7031 55.4065 25.2791 55.4065 26.1005V30.5165H53.1665V21.6525H55.4065V23.0285ZM64.5473 21.5245C65.6033 21.5245 66.4566 21.8605 67.1073 22.5325C67.7579 23.1938 68.0833 24.1218 68.0833 25.3165V30.5165H65.8433V25.6205C65.8433 24.9165 65.6673 24.3778 65.3153 24.0045C64.9633 23.6205 64.4833 23.4285 63.8753 23.4285C63.2566 23.4285 62.7659 23.6205 62.4033 24.0045C62.0513 24.3778 61.8753 24.9165 61.8753 25.6205V30.5165H59.6353V21.6525H61.8753V22.7565C62.1739 22.3725 62.5526 22.0738 63.0113 21.8605C63.4806 21.6365 63.9926 21.5245 64.5473 21.5245ZM85.0339 21.5245C86.1219 21.5245 86.9965 21.8605 87.6579 22.5325C88.3299 23.1938 88.6659 24.1218 88.6659 25.3165V30.5165H86.4259V25.6205C86.4259 24.9271 86.2499 24.3991 85.8979 24.0365C85.5459 23.6631 85.0659 23.4765 84.4579 23.4765C83.8499 23.4765 83.3645 23.6631 83.0019 24.0365C82.6499 24.3991 82.4739 24.9271 82.4739 25.6205V30.5165H80.2339V25.6205C80.2339 24.9271 80.0579 24.3991 79.7059 24.0365C79.3539 23.6631 78.8739 23.4765 78.2659 23.4765C77.6472 23.4765 77.1565 23.6631 76.7939 24.0365C76.4419 24.3991 76.2659 24.9271 76.2659 25.6205V30.5165H74.0259V21.6525H76.2659V22.7245C76.5539 22.3511 76.9219 22.0578 77.3699 21.8445C77.8285 21.6311 78.3299 21.5245 78.8739 21.5245C79.5672 21.5245 80.1859 21.6738 80.7299 21.9725C81.2739 22.2605 81.6952 22.6765 81.9939 23.2205C82.2819 22.7085 82.6979 22.2978 83.2419 21.9885C83.7965 21.6791 84.3939 21.5245 85.0339 21.5245ZM94.7275 30.6605C93.8742 30.6605 93.1062 30.4738 92.4235 30.1005C91.7408 29.7165 91.2022 29.1778 90.8075 28.4845C90.4235 27.7911 90.2315 26.9911 90.2315 26.0845C90.2315 25.1778 90.4288 24.3778 90.8235 23.6845C91.2288 22.9911 91.7782 22.4578 92.4715 22.0845C93.1648 21.7005 93.9382 21.5085 94.7915 21.5085C95.6448 21.5085 96.4182 21.7005 97.1115 22.0845C97.8048 22.4578 98.3488 22.9911 98.7435 23.6845C99.1488 24.3778 99.3515 25.1778 99.3515 26.0845C99.3515 26.9911 99.1435 27.7911 98.7275 28.4845C98.3222 29.1778 97.7675 29.7165 97.0635 30.1005C96.3702 30.4738 95.5915 30.6605 94.7275 30.6605ZM94.7275 28.7085C95.1328 28.7085 95.5115 28.6125 95.8635 28.4205C96.2262 28.2178 96.5142 27.9191 96.7275 27.5245C96.9408 27.1298 97.0475 26.6498 97.0475 26.0845C97.0475 25.2418 96.8235 24.5965 96.3755 24.1485C95.9382 23.6898 95.3995 23.4605 94.7595 23.4605C94.1195 23.4605 93.5808 23.6898 93.1435 24.1485C92.7168 24.5965 92.5035 25.2418 92.5035 26.0845C92.5035 26.9271 92.7115 27.5778 93.1275 28.0365C93.5542 28.4845 94.0875 28.7085 94.7275 28.7085ZM103.235 23.0285C103.523 22.5591 103.896 22.1911 104.355 21.9245C104.824 21.6578 105.357 21.5245 105.955 21.5245V23.8765H105.363C104.659 23.8765 104.125 24.0418 103.763 24.3725C103.411 24.7031 103.235 25.2791 103.235 26.1005V30.5165H100.995V21.6525H103.235V23.0285ZM115.703 25.8925C115.703 26.2125 115.682 26.5005 115.639 26.7565H109.159C109.213 27.3965 109.437 27.8978 109.831 28.2605C110.226 28.6231 110.711 28.8045 111.287 28.8045C112.119 28.8045 112.711 28.4471 113.063 27.7325H115.479C115.223 28.5858 114.733 29.2898 114.007 29.8445C113.282 30.3885 112.391 30.6605 111.335 30.6605C110.482 30.6605 109.714 30.4738 109.031 30.1005C108.359 29.7165 107.831 29.1778 107.447 28.4845C107.074 27.7911 106.887 26.9911 106.887 26.0845C106.887 25.1671 107.074 24.3618 107.447 23.6685C107.821 22.9751 108.343 22.4418 109.015 22.0685C109.687 21.6951 110.461 21.5085 111.335 21.5085C112.178 21.5085 112.93 21.6898 113.591 22.0525C114.263 22.4151 114.781 22.9325 115.143 23.6045C115.517 24.2658 115.703 25.0285 115.703 25.8925ZM113.383 25.2525C113.373 24.6765 113.165 24.2178 112.759 23.8765C112.354 23.5245 111.858 23.3485 111.271 23.3485C110.717 23.3485 110.247 23.5191 109.863 23.8605C109.49 24.1911 109.261 24.6551 109.175 25.2525H113.383Z" fill="#6600CC"/>
<path d="M137 14.7665C135.072 14.7665 133.187 15.3383 131.583 16.4097C129.98 17.481 128.73 19.0037 127.992 20.7853C127.254 22.5669 127.061 24.5273 127.437 26.4186C127.814 28.3099 128.742 30.0472 130.106 31.4108C131.469 32.7743 133.207 33.7029 135.098 34.0791C136.989 34.4553 138.95 34.2623 140.731 33.5243C142.513 32.7864 144.035 31.5367 145.107 29.9333C146.178 28.3299 146.75 26.4448 146.75 24.5165C146.747 21.9315 145.719 19.4531 143.891 17.6252C142.063 15.7973 139.585 14.7692 137 14.7665ZM137 32.7665C135.368 32.7665 133.773 32.2826 132.417 31.3761C131.06 30.4696 130.002 29.1811 129.378 27.6736C128.754 26.1661 128.59 24.5073 128.909 22.907C129.227 21.3066 130.013 19.8366 131.166 18.6828C132.32 17.5291 133.79 16.7433 135.391 16.425C136.991 16.1067 138.65 16.2701 140.157 16.8945C141.665 17.5189 142.953 18.5763 143.86 19.933C144.766 21.2897 145.25 22.8848 145.25 24.5165C145.248 26.7038 144.378 28.8007 142.831 30.3474C141.284 31.894 139.187 32.764 137 32.7665ZM141.281 23.9859C141.35 24.0555 141.406 24.1382 141.443 24.2293C141.481 24.3203 141.501 24.4179 141.501 24.5165C141.501 24.615 141.481 24.7126 141.443 24.8037C141.406 24.8947 141.35 24.9775 141.281 25.0471L138.281 28.0471C138.14 28.1878 137.949 28.2669 137.75 28.2669C137.551 28.2669 137.36 28.1878 137.219 28.0471C137.079 27.9064 137 27.7155 137 27.5165C137 27.3175 137.079 27.1266 137.219 26.9859L138.94 25.2665H133.25C133.051 25.2665 132.86 25.1875 132.72 25.0468C132.579 24.9062 132.5 24.7154 132.5 24.5165C132.5 24.3176 132.579 24.1268 132.72 23.9861C132.86 23.8455 133.051 23.7665 133.25 23.7665H138.94L137.219 22.0471C137.079 21.9064 137 21.7155 137 21.5165C137 21.3175 137.079 21.1266 137.219 20.9859C137.36 20.8451 137.551 20.7661 137.75 20.7661C137.949 20.7661 138.14 20.8451 138.281 20.9859L141.281 23.9859Z" fill="#6600CC"/>
</svg>
