<svg width="312" height="49" viewBox="0 0 312 49" fill="none" xmlns="http://www.w3.org/2000/svg">
<path d="M92.844 28.7405H96.524V30.5165H90.604V19.3485H92.844V28.7405ZM106.188 25.8925C106.188 26.2125 106.166 26.5005 106.124 26.7565H99.6438C99.6971 27.3965 99.9211 27.8978 100.316 28.2605C100.71 28.6231 101.196 28.8045 101.772 28.8045C102.604 28.8045 103.196 28.4471 103.548 27.7325H105.964C105.708 28.5858 105.217 29.2898 104.492 29.8445C103.766 30.3885 102.876 30.6605 101.82 30.6605C100.966 30.6605 100.198 30.4738 99.5158 30.1005C98.8438 29.7165 98.3158 29.1778 97.9318 28.4845C97.5584 27.7911 97.3717 26.9911 97.3717 26.0845C97.3717 25.1671 97.5584 24.3618 97.9318 23.6685C98.3051 22.9751 98.8278 22.4418 99.4998 22.0685C100.172 21.6951 100.945 21.5085 101.82 21.5085C102.662 21.5085 103.414 21.6898 104.076 22.0525C104.748 22.4151 105.265 22.9325 105.628 23.6045C106.001 24.2658 106.188 25.0285 106.188 25.8925ZM103.868 25.2525C103.857 24.6765 103.649 24.2178 103.244 23.8765C102.838 23.5245 102.342 23.3485 101.756 23.3485C101.201 23.3485 100.732 23.5191 100.348 23.8605C99.9744 24.1911 99.7451 24.6551 99.6598 25.2525H103.868ZM107.247 26.0525C107.247 25.1565 107.423 24.3618 107.775 23.6685C108.137 22.9751 108.623 22.4418 109.231 22.0685C109.849 21.6951 110.537 21.5085 111.295 21.5085C111.956 21.5085 112.532 21.6418 113.023 21.9085C113.524 22.1751 113.924 22.5111 114.223 22.9165V21.6525H116.479V30.5165H114.223V29.2205C113.935 29.6365 113.535 29.9831 113.023 30.2605C112.521 30.5271 111.94 30.6605 111.279 30.6605C110.532 30.6605 109.849 30.4685 109.231 30.0845C108.623 29.7005 108.137 29.1618 107.775 28.4685C107.423 27.7645 107.247 26.9591 107.247 26.0525ZM114.223 26.0845C114.223 25.5405 114.116 25.0765 113.903 24.6925C113.689 24.2978 113.401 23.9991 113.039 23.7965C112.676 23.5831 112.287 23.4765 111.871 23.4765C111.455 23.4765 111.071 23.5778 110.719 23.7805C110.367 23.9831 110.079 24.2818 109.855 24.6765C109.641 25.0605 109.535 25.5191 109.535 26.0525C109.535 26.5858 109.641 27.0551 109.855 27.4605C110.079 27.8551 110.367 28.1591 110.719 28.3725C111.081 28.5858 111.465 28.6925 111.871 28.6925C112.287 28.6925 112.676 28.5911 113.039 28.3885C113.401 28.1751 113.689 27.8765 113.903 27.4925C114.116 27.0978 114.223 26.6285 114.223 26.0845ZM120.907 23.0285C121.195 22.5591 121.568 22.1911 122.027 21.9245C122.496 21.6578 123.029 21.5245 123.627 21.5245V23.8765H123.035C122.331 23.8765 121.797 24.0418 121.435 24.3725C121.083 24.7031 120.907 25.2791 120.907 26.1005V30.5165H118.667V21.6525H120.907V23.0285ZM130.047 21.5245C131.103 21.5245 131.957 21.8605 132.607 22.5325C133.258 23.1938 133.583 24.1218 133.583 25.3165V30.5165H131.343V25.6205C131.343 24.9165 131.167 24.3778 130.815 24.0045C130.463 23.6205 129.983 23.4285 129.375 23.4285C128.757 23.4285 128.266 23.6205 127.903 24.0045C127.551 24.3778 127.375 24.9165 127.375 25.6205V30.5165H125.135V21.6525H127.375V22.7565C127.674 22.3725 128.053 22.0738 128.511 21.8605C128.981 21.6365 129.493 21.5245 130.047 21.5245ZM150.534 21.5245C151.622 21.5245 152.497 21.8605 153.158 22.5325C153.83 23.1938 154.166 24.1218 154.166 25.3165V30.5165H151.926V25.6205C151.926 24.9271 151.75 24.3991 151.398 24.0365C151.046 23.6631 150.566 23.4765 149.958 23.4765C149.35 23.4765 148.865 23.6631 148.502 24.0365C148.15 24.3991 147.974 24.9271 147.974 25.6205V30.5165H145.734V25.6205C145.734 24.9271 145.558 24.3991 145.206 24.0365C144.854 23.6631 144.374 23.4765 143.766 23.4765C143.147 23.4765 142.657 23.6631 142.294 24.0365C141.942 24.3991 141.766 24.9271 141.766 25.6205V30.5165H139.526V21.6525H141.766V22.7245C142.054 22.3511 142.422 22.0578 142.87 21.8445C143.329 21.6311 143.83 21.5245 144.374 21.5245C145.067 21.5245 145.686 21.6738 146.23 21.9725C146.774 22.2605 147.195 22.6765 147.494 23.2205C147.782 22.7085 148.198 22.2978 148.742 21.9885C149.297 21.6791 149.894 21.5245 150.534 21.5245ZM160.228 30.6605C159.374 30.6605 158.606 30.4738 157.924 30.1005C157.241 29.7165 156.702 29.1778 156.308 28.4845C155.924 27.7911 155.732 26.9911 155.732 26.0845C155.732 25.1778 155.929 24.3778 156.324 23.6845C156.729 22.9911 157.278 22.4578 157.972 22.0845C158.665 21.7005 159.438 21.5085 160.292 21.5085C161.145 21.5085 161.918 21.7005 162.612 22.0845C163.305 22.4578 163.849 22.9911 164.244 23.6845C164.649 24.3778 164.852 25.1778 164.852 26.0845C164.852 26.9911 164.644 27.7911 164.227 28.4845C163.822 29.1778 163.268 29.7165 162.564 30.1005C161.87 30.4738 161.092 30.6605 160.228 30.6605ZM160.228 28.7085C160.633 28.7085 161.012 28.6125 161.364 28.4205C161.726 28.2178 162.014 27.9191 162.228 27.5245C162.441 27.1298 162.548 26.6498 162.548 26.0845C162.548 25.2418 162.324 24.5965 161.876 24.1485C161.438 23.6898 160.9 23.4605 160.26 23.4605C159.62 23.4605 159.081 23.6898 158.644 24.1485C158.217 24.5965 158.004 25.2418 158.004 26.0845C158.004 26.9271 158.212 27.5778 158.628 28.0365C159.054 28.4845 159.588 28.7085 160.228 28.7085ZM168.735 23.0285C169.023 22.5591 169.396 22.1911 169.855 21.9245C170.324 21.6578 170.857 21.5245 171.455 21.5245V23.8765H170.863C170.159 23.8765 169.625 24.0418 169.263 24.3725C168.911 24.7031 168.735 25.2791 168.735 26.1005V30.5165H166.495V21.6525H168.735V23.0285ZM181.203 25.8925C181.203 26.2125 181.182 26.5005 181.139 26.7565H174.659C174.713 27.3965 174.937 27.8978 175.331 28.2605C175.726 28.6231 176.211 28.8045 176.787 28.8045C177.619 28.8045 178.211 28.4471 178.563 27.7325H180.979C180.723 28.5858 180.233 29.2898 179.507 29.8445C178.782 30.3885 177.891 30.6605 176.835 30.6605C175.982 30.6605 175.214 30.4738 174.531 30.1005C173.859 29.7165 173.331 29.1778 172.947 28.4845C172.574 27.7911 172.387 26.9911 172.387 26.0845C172.387 25.1671 172.574 24.3618 172.947 23.6685C173.321 22.9751 173.843 22.4418 174.515 22.0685C175.187 21.6951 175.961 21.5085 176.835 21.5085C177.678 21.5085 178.43 21.6898 179.091 22.0525C179.763 22.4151 180.281 22.9325 180.643 23.6045C181.017 24.2658 181.203 25.0285 181.203 25.8925ZM178.883 25.2525C178.873 24.6765 178.665 24.2178 178.259 23.8765C177.854 23.5245 177.358 23.3485 176.771 23.3485C176.217 23.3485 175.747 23.5191 175.363 23.8605C174.99 24.1911 174.761 24.6551 174.675 25.2525H178.883Z" fill="#6600CC"/>
<path d="M210.5 14.7665C208.572 14.7665 206.687 15.3383 205.083 16.4097C203.48 17.481 202.23 19.0037 201.492 20.7853C200.754 22.5669 200.561 24.5273 200.937 26.4186C201.314 28.3099 202.242 30.0472 203.606 31.4108C204.969 32.7743 206.707 33.7029 208.598 34.0791C210.489 34.4553 212.45 34.2623 214.231 33.5243C216.013 32.7864 217.535 31.5367 218.607 29.9333C219.678 28.3299 220.25 26.4448 220.25 24.5165C220.247 21.9315 219.219 19.4531 217.391 17.6252C215.563 15.7973 213.085 14.7692 210.5 14.7665ZM210.5 32.7665C208.868 32.7665 207.273 32.2826 205.917 31.3761C204.56 30.4696 203.502 29.1811 202.878 27.6736C202.254 26.1661 202.09 24.5073 202.409 22.907C202.727 21.3066 203.513 19.8366 204.666 18.6828C205.82 17.5291 207.29 16.7433 208.891 16.425C210.491 16.1067 212.15 16.2701 213.657 16.8945C215.165 17.5189 216.453 18.5763 217.36 19.933C218.266 21.2897 218.75 22.8848 218.75 24.5165C218.748 26.7038 217.878 28.8007 216.331 30.3474C214.784 31.894 212.687 32.764 210.5 32.7665ZM214.781 23.9859C214.85 24.0555 214.906 24.1382 214.943 24.2293C214.981 24.3203 215.001 24.4179 215.001 24.5165C215.001 24.615 214.981 24.7126 214.943 24.8037C214.906 24.8947 214.85 24.9775 214.781 25.0471L211.781 28.0471C211.64 28.1878 211.449 28.2669 211.25 28.2669C211.051 28.2669 210.86 28.1878 210.719 28.0471C210.579 27.9064 210.5 27.7155 210.5 27.5165C210.5 27.3175 210.579 27.1266 210.719 26.9859L212.44 25.2665H206.75C206.551 25.2665 206.36 25.1875 206.22 25.0468C206.079 24.9062 206 24.7154 206 24.5165C206 24.3176 206.079 24.1268 206.22 23.9861C206.36 23.8455 206.551 23.7665 206.75 23.7665H212.44L210.719 22.0471C210.579 21.9064 210.5 21.7155 210.5 21.5165C210.5 21.3175 210.579 21.1266 210.719 20.9859C210.86 20.8451 211.051 20.7661 211.25 20.7661C211.449 20.7661 211.64 20.8451 211.781 20.9859L214.781 23.9859Z" fill="#6600CC"/>
</svg>
