<svg width="41" height="41" viewBox="0 0 41 41" fill="none" xmlns="http://www.w3.org/2000/svg">
<path d="M20.1003 0.39502C9.05451 0.39502 0.100342 9.34919 0.100342 20.395C0.100342 31.4409 9.05451 40.395 20.1003 40.395C31.1462 40.395 40.1003 31.4409 40.1003 20.395C40.1003 9.34919 31.1462 0.39502 20.1003 0.39502ZM28.2358 16.7784C28.2441 16.9492 28.2462 17.12 28.2462 17.2867C28.2462 22.495 24.2858 28.4971 17.0399 28.4971C14.8989 28.5007 12.8024 27.8857 11.0024 26.7263C11.3087 26.7638 11.6233 26.7784 11.942 26.7784C13.7878 26.7784 15.4858 26.1513 16.8337 25.0929C16.0123 25.0768 15.2163 24.8048 14.5568 24.3148C13.8973 23.8249 13.4071 23.1414 13.1545 22.3596C13.7444 22.4718 14.3521 22.4483 14.9316 22.2909C14.04 22.1106 13.2383 21.6275 12.6622 20.9235C12.0862 20.2195 11.7714 19.338 11.7712 18.4284V18.3804C12.3024 18.6742 12.9108 18.8534 13.5566 18.8742C12.7208 18.3178 12.1291 17.4631 11.9025 16.4849C11.676 15.5067 11.8317 14.4789 12.3378 13.6117C13.3273 14.8284 14.5613 15.8237 15.9599 16.5332C17.3584 17.2427 18.8904 17.6506 20.4566 17.7304C20.2575 16.8852 20.3432 15.9979 20.7004 15.2065C21.0576 14.415 21.6662 13.7637 22.4317 13.3539C23.1973 12.9441 24.0767 12.7986 24.9335 12.9402C25.7902 13.0817 26.5761 13.5024 27.1691 14.1367C28.0507 13.9623 28.8961 13.6389 29.6691 13.1804C29.3753 14.0932 28.7601 14.8683 27.9378 15.3617C28.7188 15.2676 29.4813 15.0577 30.2003 14.7388C29.6722 15.5302 29.0069 16.2209 28.2358 16.7784Z" fill="#F8F8FF"/>
</svg>
