<svg width="307" height="307" viewBox="0 0 307 307" fill="none" xmlns="http://www.w3.org/2000/svg">
<g clip-path="url(#clip0_437_5425)">
<path d="M306.273 0.351562H0.393311V306.232H306.273V0.351562Z" fill="#D2A4FF"/>
<mask id="mask0_437_5425" style="mask-type:luminance" maskUnits="userSpaceOnUse" x="0" y="0" width="307" height="307">
<path d="M0.393433 306.232L306.273 306.232L306.273 0.351562L0.393433 0.351562L0.393433 306.232Z" fill="white"/>
</mask>
<g mask="url(#mask0_437_5425)">
<path d="M226.042 185.292C257.023 185.292 282.139 160.176 282.139 129.195C282.139 98.213 257.023 73.0974 226.042 73.0974C195.06 73.0974 169.944 98.213 169.944 129.195C169.944 160.176 195.06 185.292 226.042 185.292Z" fill="#E6E6E6"/>
<path d="M205.078 205.859C241.646 169.29 241.646 110.001 205.078 73.432C168.509 36.8633 109.219 36.8633 72.6507 73.432C36.082 110.001 36.082 169.29 72.6507 205.859C109.219 242.428 168.509 242.428 205.078 205.859Z" fill="#E6E6E6"/>
<path d="M55.1045 159.408C72.5197 159.408 86.6376 145.29 86.6376 127.875C86.6376 110.46 72.5197 96.3419 55.1045 96.3419C37.6892 96.3419 23.5713 110.46 23.5713 127.875C23.5713 145.29 37.6892 159.408 55.1045 159.408Z" fill="#E6E6E6"/>
<path d="M278.742 204.554C296.157 204.554 310.275 190.436 310.275 173.021C310.275 155.606 296.157 141.488 278.742 141.488C261.327 141.488 247.209 155.606 247.209 173.021C247.209 190.436 261.327 204.554 278.742 204.554Z" fill="#E6E6E6"/>
<path d="M31.0402 236.501C57.786 236.501 79.4677 214.819 79.4677 188.073C79.4677 161.327 57.786 139.645 31.0402 139.645C4.29441 139.645 -17.3873 161.327 -17.3873 188.073C-17.3873 214.819 4.29441 236.501 31.0402 236.501Z" fill="#E6E6E6"/>
<path d="M-17.3873 188.072V305.007H310.276V173.022L133.853 89.713L-17.3873 188.072Z" fill="#E6E6E6"/>
</g>
<path d="M42.5785 174.763C35.9005 186.784 26.1484 205.818 23.7142 218.46C23.7142 218.46 148.61 217.889 149.181 218.46C149.543 218.822 143.049 198.845 138.258 184.204C135.276 175.092 127.057 168.709 117.491 168.072L61.707 164.361C53.8563 163.839 46.4001 167.885 42.5785 174.763Z" fill="#000044"/>
<path d="M238.07 132.329C238.07 132.329 239.147 126.666 230.88 126.255C222.614 125.845 212.173 129.044 208.532 132.329C200.729 139.37 205.469 157.936 205.469 157.936L238.07 132.329Z" fill="#C43D1E"/>
<path d="M157.006 273.954L148.971 306.428H231.812L223.363 266.344L157.006 273.954Z" fill="#2E294E"/>
<path d="M191.903 280.255H191.314V306.427H191.903V280.255Z" fill="#3A0CA3"/>
<path d="M185.509 275.363H184.92V306.236H185.509V275.363Z" fill="#3A0CA3"/>
<path d="M187.3 147.947C187.3 147.947 154.431 147.947 162.595 166.864C162.595 166.864 137.886 174.236 138.428 194.6C138.846 210.252 145.758 253.732 148.935 273.015C149.83 278.451 154.528 282.434 160.037 282.434H221.795C226.381 282.434 230.25 279.027 230.827 274.477C233.289 255.036 239.324 205.911 238.865 194.919C238.288 181.136 230.097 170.643 217.791 167.178C217.791 167.178 228.006 147.947 187.3 147.947Z" fill="#154B82"/>
<path d="M200.593 123.277H176.95V170.637H200.593V123.277Z" fill="#B04046"/>
<path d="M197.65 123.277V130.51C196.961 133.412 195.973 136.166 194.678 138.585C190.164 147.014 182.789 150.145 176.95 150.904V123.277H197.65Z" fill="#2E294E"/>
<path d="M167.197 103.712C167.197 103.712 156.566 143.537 174.945 146.467C180.486 147.35 192.221 145.829 198.466 134.165C205.147 121.683 203.817 100.132 194.484 96.7028C191.501 95.6072 170.945 90.2347 167.197 103.712Z" fill="#B04046"/>
<path d="M180.391 98.9058C180.391 98.9058 168.687 96.8258 166.031 108.905L164.645 117.8C164.645 117.8 159.323 98.907 172.435 91.23C185.547 83.5531 180.391 98.9058 180.391 98.9058Z" fill="#2E294E"/>
<path d="M189.349 122.311C189.349 123.327 188.694 124.15 187.885 124.15C187.076 124.15 186.421 123.327 186.421 122.311C186.421 121.295 187.076 120.471 187.885 120.471C188.694 120.471 189.349 121.295 189.349 122.311Z" fill="#2E294E"/>
<path d="M173.899 122.311C173.899 123.327 173.244 124.15 172.435 124.15C171.626 124.15 170.971 123.327 170.971 122.311C170.971 121.295 171.626 120.471 172.435 120.471C173.244 120.471 173.899 121.295 173.899 122.311Z" fill="#2E294E"/>
<path d="M185.884 132.857C185.884 133.392 185.826 133.911 185.714 134.411C185.013 137.571 182.212 139.931 178.869 139.931C175.538 139.931 172.76 137.601 172.035 134.464C171.918 133.951 171.853 133.41 171.853 132.857H185.884Z" fill="#D7263D"/>
<path d="M185.884 132.857C185.884 133.392 185.826 133.911 185.714 134.411C184.172 135.147 181.658 135.63 178.816 135.63C176.049 135.63 173.589 135.17 172.035 134.464C171.918 133.952 171.853 133.411 171.853 132.858H185.884V132.857Z" fill="#E6E6E6"/>
<path d="M188.172 130.501C184.187 130.501 180.945 127.26 180.945 123.275C180.945 119.29 184.186 116.047 188.172 116.047C192.157 116.047 195.399 119.289 195.399 123.275C195.399 127.259 192.156 130.501 188.172 130.501ZM188.172 117.224C184.836 117.224 182.122 119.938 182.122 123.274C182.122 126.61 184.836 129.324 188.172 129.324C191.508 129.324 194.222 126.61 194.222 123.274C194.222 119.938 191.508 117.224 188.172 117.224Z" fill="#E6E6E6"/>
<path d="M169.598 130.501C165.613 130.501 162.372 127.26 162.372 123.275C162.372 119.29 165.613 116.047 169.598 116.047C173.583 116.047 176.826 119.289 176.826 123.275C176.826 127.259 173.584 130.501 169.598 130.501ZM169.598 117.224C166.262 117.224 163.549 119.938 163.549 123.274C163.549 126.61 166.262 129.324 169.598 129.324C172.934 129.324 175.649 126.61 175.649 123.274C175.649 119.938 172.934 117.224 169.598 117.224Z" fill="#E6E6E6"/>
<path d="M176.313 130.014C176.176 130.014 176.055 129.994 175.951 129.951C175.735 129.861 175.59 129.679 175.544 129.439C175.289 128.091 178.314 118.766 178.66 117.708C178.71 117.554 178.876 117.469 179.032 117.52C179.186 117.57 179.27 117.736 179.22 117.891C177.881 121.991 175.951 128.421 176.123 129.33C176.134 129.386 176.152 129.397 176.178 129.408C176.671 129.614 178.664 128.607 180.228 127.555C180.363 127.463 180.546 127.5 180.636 127.635C180.727 127.77 180.691 127.953 180.556 128.043C180.027 128.399 177.557 130.014 176.313 130.014Z" fill="#2E294E"/>
<path d="M181.2 123.759C178.567 121.95 176.719 123.629 176.642 123.701L175.83 122.849C176.714 122.002 179.114 120.898 181.867 122.789L181.2 123.759Z" fill="#E6E6E6"/>
<path d="M200.084 122.686H194.81V123.863H200.084V122.686Z" fill="#E6E6E6"/>
<path d="M164.875 113.93C164.51 113.93 164.15 113.761 163.92 113.444C163.54 112.918 163.655 112.186 164.179 111.804C166.095 110.407 170.883 108.577 175.289 111.656C175.822 112.029 175.952 112.763 175.58 113.295C175.207 113.828 174.473 113.958 173.94 113.586C169.829 110.713 165.734 113.586 165.562 113.709C165.354 113.858 165.113 113.93 164.875 113.93Z" fill="#2E294E"/>
<path d="M194.179 115.633C193.893 115.633 193.607 115.529 193.38 115.321C193.21 115.165 189.486 111.85 185.075 114.215C184.501 114.522 183.788 114.307 183.481 113.734C183.174 113.161 183.389 112.448 183.962 112.141C188.7 109.601 193.24 111.98 194.979 113.593C195.456 114.035 195.484 114.78 195.041 115.256C194.81 115.506 194.494 115.633 194.179 115.633Z" fill="#2E294E"/>
<path d="M193.547 103.468C193.547 103.468 196.243 112.756 202.105 122.703L204.445 124.15C204.445 124.15 211.996 107.423 205.257 98.1906C200.031 91.0306 191.892 94.3842 193.547 103.468Z" fill="#2E294E"/>
<path d="M205.048 122.701C204.563 122.78 204.077 122.929 203.615 123.15C202.357 123.754 201.358 124.784 200.681 126.005C199.505 128.128 198.345 130.256 197.919 132.679C197.688 133.997 197.849 135.484 198.775 136.45C199.257 136.951 199.905 137.256 200.592 137.379V135.571C200.872 135.118 201.147 134.654 201.408 134.166C203.198 130.821 204.407 126.825 205.048 122.701Z" fill="#2E294E"/>
<path d="M200.453 124.748C201.129 123.527 202.129 122.497 203.387 121.893C205.468 120.894 208.04 121.28 208.803 123.705C209.657 126.415 208.119 130.064 206.639 132.333C205.473 134.119 203.767 135.901 201.536 136.16C200.458 136.285 199.299 135.975 198.547 135.192C197.62 134.227 197.459 132.74 197.691 131.422C198.116 128.999 199.276 126.871 200.453 124.748Z" fill="#B04046"/>
<path d="M201.039 132.871C200.911 132.871 200.793 132.786 200.757 132.657C200.196 130.685 200.892 127.75 202.342 125.975C203.401 124.677 204.758 124.047 206.27 124.164C206.433 124.177 206.554 124.318 206.541 124.48C206.529 124.642 206.382 124.761 206.226 124.751C204.576 124.628 203.447 125.55 202.797 126.346C201.301 128.179 200.873 130.913 201.323 132.496C201.367 132.653 201.276 132.815 201.12 132.859C201.093 132.868 201.066 132.871 201.039 132.871Z" fill="#2E294E"/>
<path d="M204.517 129.68C204.482 129.68 204.447 129.674 204.413 129.661C204.26 129.603 204.184 129.433 204.241 129.282C204.732 127.985 204.796 127.076 204.422 126.721C203.958 126.282 202.802 126.646 202.435 126.809C202.285 126.874 202.112 126.808 202.046 126.658C201.981 126.51 202.048 126.336 202.197 126.27C202.378 126.189 203.997 125.508 204.826 126.293C205.409 126.844 205.397 127.89 204.792 129.49C204.747 129.608 204.635 129.68 204.517 129.68Z" fill="#2E294E"/>
<path d="M193.547 103.468C193.547 103.468 180.537 107.388 173.899 99.1437C167.261 90.8984 164.121 103.44 164.121 103.44C164.121 103.44 160.735 90.7876 174.615 87.1422C186.031 84.1439 205.146 90.0749 193.547 103.468Z" fill="#2E294E"/>
<path d="M176.948 159.097C176.948 159.097 180.051 165.888 180.391 168.263C180.391 168.263 188.771 160.611 200.592 155.03L204.445 171.78H171.854L176.948 159.097Z" fill="#154B82"/>
<path d="M172.68 154.191C174.579 155.867 176.031 157.914 176.961 160.271C177.099 160.619 177.669 160.467 177.529 160.114C176.559 157.657 175.077 155.523 173.096 153.774C172.813 153.524 172.395 153.939 172.68 154.191Z" fill="#007070"/>
<path d="M203.732 153.665C199.572 155.031 195.649 156.946 192.018 159.393C191.705 159.604 192 160.114 192.315 159.901C195.905 157.483 199.776 155.584 203.889 154.233C204.246 154.115 204.093 153.547 203.732 153.665Z" fill="#007070"/>
<path d="M187.474 176.939C185.949 176.939 184.623 176.697 183.516 176.215C183.014 175.996 182.74 175.484 182.833 174.941C182.928 174.389 183.364 173.991 183.919 173.952C191.83 173.388 207.92 168.631 214.148 162.744C214.265 162.632 214.452 162.637 214.564 162.755C214.676 162.873 214.67 163.059 214.552 163.171C208.233 169.145 191.955 173.969 183.961 174.538C183.616 174.563 183.451 174.824 183.414 175.04C183.377 175.259 183.445 175.541 183.751 175.674C185.227 176.317 187.138 176.503 189.431 176.226C189.593 176.208 189.739 176.321 189.758 176.483C189.777 176.644 189.662 176.791 189.501 176.81C188.791 176.896 188.115 176.939 187.474 176.939Z" fill="#007070"/>
<path d="M217.791 167.473C217.772 167.473 217.752 167.471 217.732 167.468C217.679 167.457 212.345 166.398 208.76 167.387C208.604 167.43 208.442 167.339 208.398 167.182C208.355 167.025 208.447 166.863 208.603 166.82C212.325 165.793 217.625 166.845 217.849 166.891C218.008 166.923 218.111 167.079 218.079 167.238C218.051 167.377 217.929 167.473 217.791 167.473Z" fill="#007070"/>
<path d="M174.995 176.827C174.88 176.827 174.765 176.825 174.651 176.822C174.488 176.817 174.361 176.681 174.366 176.518C174.371 176.355 174.519 176.239 174.669 176.232C175.583 176.262 176.496 176.171 177.385 175.966C177.551 175.928 177.724 175.883 177.834 175.791C177.952 175.692 177.981 175.547 177.983 175.444C177.989 175.216 177.884 174.966 177.714 174.809C177.384 174.502 176.88 174.394 176.393 174.29C172.037 173.358 166.054 171.217 162.184 166.282C162.083 166.154 162.106 165.968 162.234 165.868C162.362 165.768 162.547 165.79 162.647 165.918C166.409 170.715 172.255 172.803 176.497 173.711C177.056 173.83 177.666 173.96 178.115 174.378C178.407 174.649 178.582 175.064 178.572 175.46C178.563 175.778 178.435 176.056 178.211 176.243C178.001 176.418 177.742 176.489 177.516 176.54C176.691 176.73 175.844 176.827 174.995 176.827Z" fill="#007070"/>
<path d="M188.149 170.575C188.149 171.241 187.61 171.78 186.944 171.78C186.278 171.78 185.739 171.241 185.739 170.575C185.739 169.91 186.278 169.37 186.944 169.37C187.61 169.369 188.149 169.909 188.149 170.575Z" fill="#007070"/>
<path d="M190.343 204.101C190.18 204.101 190.049 203.969 190.049 203.806C190.069 183.967 186.694 170.779 186.659 170.648C186.618 170.491 186.713 170.33 186.87 170.289C187.025 170.25 187.188 170.343 187.229 170.5C187.263 170.631 190.658 183.892 190.637 203.806C190.636 203.969 190.505 204.101 190.343 204.101Z" fill="#E6E6E6"/>
<path d="M190.457 201.693C191.004 201.693 191.448 201.249 191.448 200.702C191.448 200.155 191.004 199.712 190.457 199.712C189.91 199.712 189.467 200.155 189.467 200.702C189.467 201.249 189.91 201.693 190.457 201.693Z" fill="#E6E6E6"/>
<path d="M172.907 169.301C172.907 169.966 173.446 170.506 174.112 170.506C174.778 170.506 175.318 169.966 175.318 169.301C175.318 168.635 174.778 168.096 174.112 168.096C173.447 168.096 172.907 168.635 172.907 169.301Z" fill="#007070"/>
<path d="M170.713 202.827C170.551 202.827 170.419 202.696 170.419 202.533C170.398 182.619 173.794 169.358 173.827 169.226C173.868 169.068 174.03 168.975 174.186 169.016C174.343 169.057 174.438 169.218 174.397 169.375C174.362 169.506 170.987 182.7 171.008 202.533C171.008 202.695 170.876 202.826 170.713 202.827Z" fill="#E6E6E6"/>
<path d="M169.609 199.428C169.609 199.975 170.052 200.418 170.599 200.418C171.146 200.418 171.589 199.975 171.589 199.428C171.589 198.881 171.146 198.437 170.599 198.437C170.052 198.437 169.609 198.88 169.609 199.428Z" fill="#E6E6E6"/>
<path d="M249.256 193.635L232.012 202.925L222.176 184.662L217.23 175.483L210.758 163.463L215.932 160.673L217.653 159.749L228.002 154.173L230.403 158.629L235.421 167.947L249.256 193.635Z" fill="#EF6E69"/>
<path d="M235.978 165.017C235.833 166.009 235.649 166.989 235.421 167.947C235.026 169.679 234.497 171.334 233.839 172.871C231.127 179.221 226.587 182.796 222.176 184.662L217.23 175.483L215.932 160.673L215.866 159.905L217.654 159.749L230.403 158.629L235.377 158.195L235.978 165.017Z" fill="#2E294E"/>
<path d="M208.366 139.807C208.366 139.807 198.127 177.446 215.505 180.302C220.746 181.163 231.858 179.776 237.82 168.766C244.199 156.985 243.038 136.583 234.221 133.296C231.403 132.246 211.974 127.068 208.366 139.807Z" fill="#EF6E69"/>
<path d="M235.978 133.001C235.978 133.001 233.962 140.794 222.756 143.721C211.419 146.682 206.304 145.46 206.304 145.46L209.573 133.827C209.573 133.827 220.59 124.268 235.978 133.001Z" fill="#C43D1E"/>
<path d="M208.301 151.266C208.066 151.505 208.321 151.902 208.632 151.778C209.969 151.244 212.26 150.818 215.18 152.179C216.292 152.698 217.889 150.516 215.255 149.483C214.081 149.022 210.785 148.735 208.301 151.266Z" fill="#C43D1E"/>
<path d="M232.525 155.503C232.727 155.824 232.31 156.12 231.983 155.884C230.583 154.871 228.036 153.616 224.213 153.884C222.757 153.986 221.552 151.262 224.94 151.21C226.451 151.188 230.387 152.111 232.525 155.503Z" fill="#C43D1E"/>
<path d="M227.766 158.688C227.631 159.64 226.907 160.324 226.149 160.217C225.392 160.109 224.888 159.249 225.023 158.298C225.158 157.347 225.882 156.662 226.64 156.77C227.397 156.878 227.901 157.736 227.766 158.688Z" fill="#2E294E"/>
<path d="M213.29 156.628C213.155 157.58 212.431 158.264 211.674 158.157C210.916 158.049 210.412 157.189 210.547 156.238C210.683 155.286 211.407 154.602 212.164 154.71C212.922 154.818 213.426 155.677 213.29 156.628Z" fill="#2E294E"/>
<path d="M217.897 165.007C216.849 165.007 215.84 164.848 215.73 164.252C215.544 163.247 218.673 156.394 219.031 155.617C219.081 155.508 219.21 155.46 219.318 155.51C219.427 155.56 219.474 155.688 219.424 155.797C218.096 158.688 216.035 163.519 216.156 164.173C216.239 164.629 218.221 164.663 220.019 164.41C220.137 164.394 220.247 164.476 220.263 164.594C220.28 164.713 220.198 164.822 220.079 164.838C219.642 164.9 218.756 165.007 217.897 165.007Z" fill="#2E294E"/>
<path d="M230.008 139.46C230.008 139.46 233.547 149.478 239.05 158.918L243.524 159.314C243.524 159.314 251.683 145.048 245.347 136.281C240.433 129.481 228.483 130.856 230.008 139.46Z" fill="#C43D1E"/>
<path d="M223.791 170.117C223.791 170.117 223.557 170.557 223.111 171.153C222.042 172.573 219.764 174.901 216.506 174.461C213.197 174.016 212.395 171.381 212.206 169.844C212.127 169.181 212.161 168.724 212.161 168.724L223.791 170.117Z" fill="#B2001E"/>
<path d="M223.791 170.117C223.791 170.117 223.557 170.557 223.111 171.153C221.608 171.565 219.708 171.704 217.681 171.481C215.531 171.248 213.615 170.646 212.206 169.844C212.127 169.181 212.161 168.724 212.161 168.724L223.791 170.117Z" fill="#E6E6E6"/>
<path d="M118.365 174.194C118.365 174.194 101.853 169.878 97.5923 199.715C93.3308 229.552 91.1768 306.24 91.1768 306.24H164.31C164.31 306.24 165.754 248.542 159.371 220.735C152.988 192.929 144.96 183.211 144.96 183.211L118.365 174.194Z" fill="#6600CC"/>
<path d="M157.465 264.239L138.292 283.411C137.57 284.133 136.4 284.133 135.678 283.411L133.685 281.418C132.963 280.696 132.963 279.526 133.685 278.804L152.858 259.632C153.579 258.91 154.75 258.91 155.472 259.632L157.465 261.625C158.187 262.347 158.187 263.517 157.465 264.239Z" fill="#812FD1"/>
<path d="M144.96 183.212C144.96 183.212 154.543 179.722 160.809 207.399C167.074 235.076 178.276 255.041 178.276 255.041L204.043 257.827C204.043 257.827 205.391 268.948 210.225 273.8C212.148 275.731 202.434 285.565 185.748 285.565C169.062 285.565 144.76 267.789 133.711 223.81C122.662 179.832 144.96 183.212 144.96 183.212Z" fill="#6600CC"/>
<path d="M205.16 274.487C205.08 274.487 205.001 274.455 204.943 274.391C204.833 274.272 204.841 274.086 204.961 273.975L207.912 271.274C208.032 271.164 208.218 271.172 208.328 271.292C208.437 271.412 208.429 271.598 208.309 271.708L205.359 274.41C205.303 274.461 205.231 274.487 205.16 274.487Z" fill="#6600CC"/>
<path d="M202.488 270.306C202.373 270.306 202.263 270.237 202.216 270.124C202.154 269.973 202.225 269.801 202.375 269.739L206.071 268.208C206.22 268.146 206.393 268.218 206.456 268.367C206.518 268.518 206.446 268.69 206.297 268.752L202.601 270.283C202.564 270.298 202.526 270.306 202.488 270.306Z" fill="#6600CC"/>
<path d="M200.758 266.147C200.626 266.147 200.506 266.057 200.473 265.923C200.434 265.765 200.531 265.605 200.689 265.567L204.574 264.614C204.731 264.576 204.891 264.672 204.93 264.83C204.968 264.988 204.872 265.148 204.714 265.186L200.829 266.139C200.805 266.144 200.782 266.147 200.758 266.147Z" fill="#6600CC"/>
<path d="M199.664 261.453C199.509 261.453 199.379 261.332 199.37 261.175C199.362 261.013 199.486 260.874 199.649 260.866L203.643 260.651C203.799 260.644 203.944 260.767 203.953 260.93C203.962 261.092 203.837 261.231 203.675 261.239L199.68 261.453C199.675 261.453 199.669 261.453 199.664 261.453Z" fill="#6600CC"/>
<path d="M164.863 277.914C164.802 277.914 164.74 277.895 164.688 277.856C150.64 267.378 139.537 248.209 133.426 223.881C130.421 211.92 129.609 202.343 131.014 195.417C131.046 195.257 131.199 195.153 131.362 195.186C131.521 195.219 131.623 195.374 131.592 195.534C130.204 202.373 131.013 211.862 133.997 223.737C140.076 247.935 151.101 266.987 165.04 277.384C165.17 277.482 165.197 277.666 165.1 277.796C165.042 277.873 164.953 277.914 164.863 277.914Z" fill="#4B0682"/>
<path d="M135.579 128.927C135.579 128.927 135.402 123.165 143.631 124.052C151.859 124.94 161.671 129.732 164.754 133.546C171.36 141.72 163.775 159.316 163.775 159.316L135.579 128.927Z" fill="#2E294E"/>
<path d="M148.971 173.975L144.262 182.324L130.639 184.765C130.639 181.383 130.639 167.533 130.639 167.533L148.971 173.975Z" fill="#2E294E"/>
<path d="M120.492 177.064L139.36 182.326L142.162 172.282L145.825 159.131L140.163 157.55L138.281 157.027L126.958 153.87L125.598 158.745L122.757 168.94L120.492 177.064Z" fill="#EF6E69"/>
<path d="M140.253 179.121L142.161 172.281L145.825 159.131L140.162 157.549L138.28 157.027L131.628 155.172C131.328 160.015 131.838 164.969 133.308 169.128C134.891 173.614 137.427 176.842 140.253 179.121Z" fill="#2E294E"/>
<path d="M164.196 150.112C164.196 150.695 164.19 151.289 164.19 151.907C164.031 163.378 161.806 179.77 150.365 179.84C145.056 179.87 134.297 176.762 130.13 164.956C125.669 152.325 130.006 132.355 139.229 130.483C142.178 129.889 162.177 127.811 163.749 140.96C163.749 140.96 164.173 144.821 164.196 150.112Z" fill="#EF6E69"/>
<path d="M151.801 157.397C150.85 156.669 148.485 155.356 145.505 157.312C144.79 157.78 143.84 157.631 143.346 156.934L142.262 155.402L143.604 155.978C144.02 156.157 144.493 156.158 144.906 155.972C146.487 155.26 150.665 153.775 152.055 157.2C152.118 157.353 151.933 157.498 151.801 157.397Z" fill="#2E294E"/>
<path d="M157.492 157.397C158.312 156.669 160.354 155.356 162.927 157.312C163.543 157.78 164.364 157.631 164.79 156.934L165.725 155.402L164.567 155.978C164.208 156.157 163.8 156.158 163.443 155.972C162.079 155.26 158.472 153.775 157.272 157.2C157.218 157.353 157.378 157.498 157.492 157.397Z" fill="#2E294E"/>
<path d="M153.126 171.406C147.848 171.406 144.073 166.283 144.023 166.215C143.928 166.084 143.958 165.9 144.09 165.805C144.221 165.709 144.405 165.739 144.5 165.871C144.516 165.892 146.073 168.024 148.529 169.476C151.778 171.398 154.993 171.281 158.083 169.13C158.216 169.037 158.4 169.07 158.493 169.203C158.586 169.336 158.553 169.52 158.42 169.613C156.554 170.91 154.767 171.406 153.126 171.406Z" fill="#B2001E"/>
<path d="M137.541 129.92C137.541 129.92 138.314 137.932 148.924 142.576C159.659 147.274 164.901 146.866 164.901 146.866L163.492 134.866C163.491 134.865 154.105 123.699 137.541 129.92Z" fill="#2E294E"/>
<path d="M164.196 150.113C164.196 150.695 164.19 151.29 164.19 151.908C163.018 151.643 161.553 151.607 159.793 152.114C158.61 152.455 157.374 150.048 160.141 149.442C160.929 149.265 162.577 149.301 164.196 150.113Z" fill="#2E294E"/>
<path d="M142.142 152.095C141.891 152.381 142.257 152.738 142.616 152.556C144.158 151.774 146.87 150.933 150.603 151.796C152.026 152.125 153.642 149.623 150.304 149.042C148.815 148.783 144.783 149.079 142.142 152.095Z" fill="#2E294E"/>
<path d="M156.135 166.134C155.094 166.134 153.706 165.758 152.951 165.526C152.795 165.479 152.708 165.314 152.755 165.159C152.803 165.003 152.968 164.915 153.123 164.963C154.935 165.518 156.759 165.72 156.88 165.383C157.065 164.858 156.049 160.528 154.96 156.645C154.916 156.489 155.007 156.327 155.163 156.283C155.32 156.239 155.482 156.33 155.526 156.486C155.905 157.835 157.776 164.614 157.435 165.578C157.289 165.99 156.778 166.134 156.135 166.134Z" fill="#2E294E"/>
<path d="M139.229 130.483C139.229 130.483 131.89 121.195 123.657 132.277C115.424 143.36 91.4791 189.675 114.944 184.847C114.944 184.847 119.773 191.225 126.631 185.198L139.229 130.483Z" fill="#2E294E"/>
<path d="M132.174 157.495C131.774 156.26 131.076 155.159 130.106 154.421C128.501 153.201 126.298 153.209 125.333 155.374C124.255 157.793 125.049 161.42 125.981 163.746C126.715 165.578 127.902 167.48 129.732 168.028C130.617 168.293 131.628 168.162 132.362 167.533C133.266 166.757 133.601 165.387 133.585 164.121C133.555 161.795 132.873 159.645 132.174 157.495Z" fill="#2E294E"/>
<path d="M132.374 156.285C131.916 155.046 131.129 153.939 130.039 153.194C128.236 151.96 125.775 151.952 124.712 154.111C123.525 156.523 124.44 160.158 125.498 162.492C126.332 164.33 127.673 166.242 129.723 166.804C130.713 167.076 131.842 166.952 132.658 166.327C133.663 165.558 134.027 164.19 133.999 162.924C133.949 160.597 133.169 158.441 132.374 156.285Z" fill="#EF6E69"/>
<path d="M130.701 163.802C130.662 163.802 130.623 163.794 130.585 163.777C130.445 163.713 130.384 163.548 130.448 163.408C131.095 161.991 131.087 159.373 129.95 157.444C129.456 156.606 128.539 155.58 126.972 155.46C126.819 155.448 126.704 155.314 126.716 155.161C126.727 155.007 126.858 154.89 127.015 154.904C128.444 155.015 129.625 155.795 130.43 157.161C131.53 159.03 131.76 161.875 130.953 163.64C130.908 163.742 130.807 163.802 130.701 163.802Z" fill="#2E294E"/>
<path d="M127.907 160.318C127.778 160.318 127.663 160.228 127.635 160.097C127.298 158.515 127.438 157.535 128.062 157.103C128.949 156.487 130.366 157.357 130.525 157.458C130.654 157.541 130.692 157.713 130.61 157.842C130.528 157.972 130.356 158.011 130.225 157.927C129.88 157.708 128.877 157.215 128.379 157.56C127.979 157.839 127.908 158.698 128.18 159.982C128.212 160.132 128.116 160.28 127.966 160.312C127.945 160.316 127.926 160.318 127.907 160.318Z" fill="#2E294E"/>
<path d="M143.651 137.031C143.651 137.031 144.901 144.06 138.145 158.004C131.39 171.948 129.8 178.826 137.047 179.879C144.294 180.933 164.265 177.221 160.808 207.396C160.808 207.396 155.113 187.636 147.586 184.765C138.252 181.203 120.173 197.401 122.662 179.83C123.397 174.644 129.147 159.908 129.147 159.908C130.669 155.232 131.129 150.29 130.636 145.396C129.962 138.701 130.777 129.135 140.942 129.135L143.651 137.031Z" fill="#2E294E"/>
<path d="M273.836 214.559C273.671 216.929 272.342 218.768 270.868 218.665C269.395 218.562 268.334 216.558 268.499 214.188C268.664 211.818 269.993 209.98 271.467 210.083C272.94 210.185 274.001 212.189 273.836 214.559Z" fill="#B04046"/>
<path d="M226.21 213.978L229.473 268.435H283.039C283.039 268.435 280.509 217.534 249.388 181.891L226.21 213.978Z" fill="#4A4AFF"/>
<path d="M270.937 260.481L243.62 183.81H250.605L278.584 260.481H270.937Z" fill="#4361EE"/>
<path d="M234.224 217.507L246.911 248.335C249.589 254.84 255.928 259.087 262.963 259.087H284.34C284.34 259.087 287.867 280.845 288.972 306.236H227.665L223.447 226.182L234.224 217.507Z" fill="#4361EE"/>
<path d="M237.955 251.066C235.506 251.066 233.314 249.514 232.5 247.205L218.933 208.692H226.539L240.694 247.14C241.028 248.048 240.902 249.024 240.348 249.818C239.794 250.611 238.922 251.066 237.955 251.066ZM233.055 247.009C233.786 249.084 235.755 250.478 237.955 250.478C238.727 250.478 239.424 250.115 239.865 249.481C240.308 248.847 240.408 248.068 240.141 247.343L226.128 209.28H219.764L233.055 247.009Z" fill="#4A4AFF"/>
<path d="M238.25 246.781C238.25 247.782 237.438 248.594 236.436 248.594C235.435 248.594 234.623 247.782 234.623 246.781C234.623 245.78 235.435 244.967 236.436 244.967C237.438 244.967 238.25 245.78 238.25 246.781Z" fill="#4A4AFF"/>
<mask id="mask1_437_5425" style="mask-type:luminance" maskUnits="userSpaceOnUse" x="223" y="217" width="66" height="90">
<path d="M234.224 217.512L246.911 248.34C249.589 254.845 255.928 259.092 262.963 259.092H284.34C284.34 259.092 287.867 280.85 288.972 306.241H227.665L223.447 226.187L234.224 217.512Z" fill="white"/>
</mask>
<g mask="url(#mask1_437_5425)">
<path d="M289.266 276.903H223.153V268.142H289.266V276.903ZM223.741 276.314H288.678V268.731H223.741V276.314Z" fill="#4A4AFF"/>
<path d="M277.348 276.903H273.409L270.254 268.142H274.194L277.348 276.903ZM273.822 276.314H276.511L273.78 268.731H271.091L273.822 276.314Z" fill="#4A4AFF"/>
<path d="M249.399 276.903H245.459L242.304 268.142H246.244L249.399 276.903ZM245.872 276.314H248.561L245.83 268.731H243.141L245.872 276.314Z" fill="#4A4AFF"/>
</g>
<path d="M263.348 276.582L262.765 276.659L266.698 306.288L267.281 306.211L263.348 276.582Z" fill="#4A4AFF"/>
<path d="M265.505 295.244C258.866 295.244 253.095 290.982 251.143 284.637L248.698 276.694L249.261 276.521L251.706 284.464C253.581 290.56 259.127 294.656 265.505 294.656V295.244H265.505Z" fill="#4A4AFF"/>
<path d="M267.76 297.624H264.225V298.212H267.76V297.624Z" fill="#4A4AFF"/>
<path d="M267.76 299.519H264.225V300.107H267.76V299.519Z" fill="#4A4AFF"/>
<path d="M144.889 216.327C144.889 216.327 136.265 199.485 134.373 200.007C131.212 200.878 136.681 210.987 136.681 210.987C136.681 210.987 126.03 196.57 124.354 196.487C122.678 196.405 123.921 201.84 129.887 210.225C129.887 210.225 122.368 200.215 121.38 199.221C119.245 197.074 116.903 200.4 127.235 213.362C127.235 213.362 121.988 207.617 119.333 203.012C117.042 199.04 114.144 205.408 125.026 216.234C125.026 216.234 120.941 212.72 117.454 207.393C114.31 202.59 114.642 211.815 122.817 218.941C131.688 226.673 137.602 230.605 137.602 230.605C137.602 230.605 145.557 227.965 144.889 216.327Z" fill="#EF6E69"/>
<path d="M243.563 175.745C243.563 175.745 229.932 183.651 214.93 202.401C199.928 221.149 191.425 232.157 191.425 232.157C191.425 232.157 188.442 229.836 186.452 233.225C186.452 233.225 147.149 209.382 144.888 216.325C144.469 217.613 142.997 225.448 137.601 230.603C132.206 235.759 167.506 262.83 189.958 262.83C204.787 262.83 223.409 241.521 234.346 227.05C240.326 219.138 243.562 209.496 243.562 199.579V175.745H243.563Z" fill="#4A4AFF"/>
<path d="M185.759 240.644C185.378 240.644 185.039 240.426 184.878 240.059L183.707 237.396C183.642 237.247 183.71 237.073 183.859 237.008C184.008 236.943 184.181 237.01 184.246 237.159L185.417 239.822C185.51 240.034 185.703 240.077 185.85 240.046C185.998 240.014 186.158 239.898 186.158 239.667V233.225C186.158 233.062 186.289 232.93 186.452 232.93C186.615 232.93 186.746 233.062 186.746 233.225V239.667C186.746 240.14 186.435 240.525 185.971 240.622C185.899 240.637 185.828 240.644 185.759 240.644Z" fill="#2E294E"/>
<path d="M194.818 243.12C194.359 243.12 193.977 242.828 193.857 242.38L191.142 232.232C191.099 232.075 191.193 231.914 191.35 231.872C191.507 231.831 191.668 231.923 191.71 232.08L194.426 242.228C194.488 242.461 194.676 242.535 194.838 242.531C194.996 242.524 195.181 242.433 195.224 242.195L196.21 236.735C196.239 236.576 196.389 236.469 196.552 236.498C196.712 236.527 196.818 236.68 196.789 236.84L195.803 242.299C195.718 242.77 195.34 243.099 194.862 243.119C194.848 243.12 194.833 243.12 194.818 243.12Z" fill="#2E294E"/>
<path d="M237.05 131.79C237.05 131.79 249.101 127.505 253.135 140.266C257.167 153.026 254.564 198.402 272.018 207.549C272.018 207.549 258.275 216.137 247.815 203.401C247.815 203.401 250.738 210.643 256.488 212.154C256.488 212.154 239.199 211.904 235.977 199.089C235.977 199.089 236.613 205.719 240.33 208.647C240.33 208.647 226.804 209.388 229.675 192.551C232.546 175.714 237.819 168.767 237.819 168.767L241.21 152.299L237.05 131.79Z" fill="#C43D1E"/>
<path d="M236.965 161.076C237.554 159.919 238.415 158.941 239.489 158.363C241.266 157.408 243.44 157.761 244.055 160.051C244.741 162.609 243.39 166.067 242.106 168.218C241.094 169.913 239.624 171.606 237.731 171.861C236.816 171.985 235.838 171.697 235.211 170.961C234.439 170.053 234.322 168.647 234.536 167.4C234.929 165.107 235.94 163.09 236.965 161.076Z" fill="#2E294E"/>
<path d="M236.958 159.848C237.603 158.696 238.554 157.726 239.747 157.16C241.721 156.224 244.153 156.601 244.865 158.9C245.66 161.468 244.188 164.915 242.778 167.054C241.667 168.74 240.044 170.418 237.931 170.653C236.91 170.766 235.815 170.467 235.107 169.723C234.234 168.806 234.089 167.397 234.314 166.151C234.728 163.861 235.835 161.853 236.958 159.848Z" fill="#EF6E69"/>
<path d="M237.478 167.538C237.356 167.538 237.244 167.457 237.21 167.334C236.689 165.466 237.361 162.691 238.74 161.017C239.749 159.795 241.041 159.208 242.465 159.322C242.619 159.334 242.733 159.469 242.721 159.622C242.709 159.776 242.573 159.888 242.421 159.878C240.856 159.752 239.788 160.621 239.17 161.372C237.746 163.1 237.328 165.685 237.746 167.185C237.788 167.333 237.701 167.487 237.553 167.528C237.527 167.535 237.502 167.538 237.478 167.538Z" fill="#2E294E"/>
<path d="M240.783 164.534C240.75 164.534 240.716 164.528 240.683 164.515C240.54 164.46 240.468 164.299 240.523 164.156C240.993 162.931 241.058 162.071 240.705 161.734C240.268 161.315 239.199 161.645 238.824 161.808C238.682 161.867 238.519 161.804 238.458 161.663C238.396 161.523 238.461 161.359 238.601 161.297C238.774 161.222 240.309 160.584 241.09 161.331C241.638 161.855 241.622 162.845 241.042 164.356C241 164.466 240.895 164.534 240.783 164.534Z" fill="#2E294E"/>
<path d="M239.341 172.298C240.257 172.298 240.999 171.555 240.999 170.639C240.999 169.723 240.257 168.981 239.341 168.981C238.425 168.981 237.682 169.723 237.682 170.639C237.682 171.555 238.425 172.298 239.341 172.298Z" fill="#E6E6E6"/>
<path d="M280.054 227.706C280.054 227.706 270.174 239.666 274.785 239.884C279.396 240.1 286.126 231.361 284.351 228.661C283.002 226.607 280.788 226.79 280.054 227.706Z" fill="#B04046"/>
<path d="M278.264 223.686C278.264 223.686 267.704 236.471 272.632 236.703C277.56 236.934 284.754 227.593 282.857 224.707C281.414 222.512 279.048 222.707 278.264 223.686Z" fill="#B04046"/>
<path d="M274.222 236.7C274.129 236.7 274.043 236.639 274.015 236.546C273.981 236.431 274.046 236.311 274.16 236.277C277.681 235.224 281.633 230.626 282.684 227.372C282.721 227.259 282.845 227.196 282.956 227.233C283.07 227.27 283.133 227.391 283.096 227.505C282.013 230.858 277.927 235.601 274.284 236.691C274.264 236.697 274.243 236.7 274.222 236.7Z" fill="#2E294E"/>
<path d="M276.316 218.91C276.316 218.91 265.19 232.504 270.108 232.898C275.027 233.292 282.634 223.345 280.864 220.152C279.519 217.725 277.143 217.868 276.316 218.91Z" fill="#B04046"/>
<path d="M272.055 232.812C271.966 232.812 271.883 232.757 271.851 232.668C271.811 232.556 271.87 232.431 271.982 232.392C275.521 231.131 279.44 226.41 280.58 223.03C280.618 222.917 280.741 222.855 280.854 222.895C280.967 222.933 281.028 223.056 280.99 223.169C279.818 226.642 275.779 231.498 272.128 232.798C272.104 232.808 272.08 232.812 272.055 232.812Z" fill="#2E294E"/>
<path d="M273.341 215.129C273.341 215.129 262.781 227.913 267.709 228.145C272.637 228.377 279.831 219.036 277.934 216.149C276.492 213.955 274.125 214.149 273.341 215.129Z" fill="#B04046"/>
<path d="M271.095 218.248C271.05 218.248 271.005 218.234 270.966 218.206C270.87 218.135 270.849 217.999 270.92 217.903C272.153 216.23 273.164 215.004 273.175 214.992C273.333 214.794 273.545 214.627 273.803 214.495C273.909 214.44 274.04 214.484 274.094 214.59C274.147 214.697 274.105 214.827 273.999 214.881C273.799 214.982 273.63 215.115 273.51 215.265C273.498 215.28 272.494 216.498 271.268 218.16C271.226 218.217 271.161 218.248 271.095 218.248Z" fill="#2E294E"/>
<path d="M270.319 227.749C270.237 227.749 270.16 227.704 270.123 227.625C270.072 227.517 270.119 227.388 270.227 227.338C273.768 225.675 277.266 221.098 277.914 218.269C277.941 218.152 278.057 218.081 278.174 218.106C278.29 218.133 278.363 218.249 278.336 218.366C277.653 221.35 274.119 225.988 270.411 227.729C270.38 227.743 270.349 227.749 270.319 227.749Z" fill="#2E294E"/>
<path d="M204.043 257.823C204.043 257.823 211.562 242.677 213.454 243.198C216.615 244.07 211.146 254.178 211.146 254.178C211.146 254.178 221.798 239.761 223.473 239.678C225.149 239.595 223.906 245.031 217.941 253.416C217.941 253.416 225.459 243.405 226.447 242.412C228.583 240.265 230.925 243.591 220.592 256.553C220.592 256.553 225.84 250.808 228.495 246.203C230.785 242.231 233.683 248.599 222.802 259.425C222.802 259.425 226.887 255.911 230.374 250.584C233.518 245.781 233.186 255.006 225.011 262.131C216.14 269.864 210.226 273.796 210.226 273.796C210.226 273.796 203.375 269.46 204.043 257.823Z" fill="#EF6E69"/>
<path d="M89.0844 136.978L82.437 164.841C81.1083 170.41 84.5537 176 90.125 177.316C95.6792 178.627 101.247 175.196 102.571 169.645L109.23 141.736L89.0844 136.978Z" fill="#EF6E69"/>
<path d="M89.0844 136.978L87.4216 144.018C87.4247 147 87.7538 149.908 88.458 152.56C90.9142 161.8 97.3713 166.542 102.879 168.623L109.23 141.737L89.0844 136.978Z" fill="#2E294E"/>
<path d="M123.219 124.942C123.219 124.942 124.411 166.144 105.851 164.771C100.255 164.357 89.1836 160.178 85.7877 147.391C82.1539 133.709 88.4024 113.04 98.2737 111.847C101.429 111.467 122.67 110.963 123.219 124.942Z" fill="#EF6E69"/>
<path d="M111.482 117.228C111.482 117.228 123.352 117.895 123.16 130.261L122.464 139.236C122.464 139.236 131.987 122.072 120.99 111.587C109.994 101.102 111.482 117.228 111.482 117.228Z" fill="#C43D1E"/>
<path d="M99.3261 138.942C99.2178 139.952 99.7818 140.841 100.586 140.928C101.39 141.014 102.129 140.264 102.237 139.254C102.346 138.244 101.782 137.356 100.978 137.269C100.174 137.184 99.4343 137.932 99.3261 138.942Z" fill="#2E294E"/>
<path d="M114.099 139.411C113.991 140.421 114.555 141.31 115.359 141.396C116.163 141.482 116.902 140.733 117.011 139.723C117.119 138.713 116.555 137.824 115.751 137.738C114.947 137.652 114.208 138.401 114.099 139.411Z" fill="#2E294E"/>
<path d="M108.023 155.885C107.766 155.885 107.508 155.872 107.249 155.844C104.728 155.574 102.562 154.039 101.453 151.739L101.983 151.484C103.003 153.599 104.994 155.01 107.312 155.258C109.515 155.495 111.693 154.621 113.136 152.923L113.584 153.304C112.183 154.952 110.148 155.885 108.023 155.885Z" fill="#B2001E"/>
<path d="M111.01 150.555C109.812 150.555 107.376 148.562 106.87 148.137C106.745 148.033 106.729 147.847 106.834 147.722C106.938 147.598 107.124 147.582 107.248 147.686C108.691 148.898 110.56 150.114 111.077 149.96C111.104 149.952 111.123 149.942 111.14 149.887C111.408 149.003 110.174 142.403 109.279 138.184C109.246 138.025 109.347 137.869 109.506 137.835C109.666 137.803 109.821 137.903 109.855 138.062C110.086 139.152 112.101 148.745 111.703 150.058C111.632 150.291 111.469 150.457 111.244 150.524C111.173 150.546 111.094 150.555 111.01 150.555Z" fill="#2E294E"/>
<path d="M122.675 134.526C122.535 134.526 122.393 134.493 122.261 134.422C120.616 133.546 118.06 132.817 115.229 134.31C114.797 134.539 114.264 134.373 114.036 133.942C113.809 133.511 113.973 132.977 114.405 132.749C117.92 130.893 121.069 131.787 123.091 132.863C123.521 133.092 123.684 133.627 123.456 134.057C123.296 134.356 122.991 134.526 122.675 134.526Z" fill="#C43D1E"/>
<path d="M106.435 133.376C106.227 133.376 106.019 133.303 105.851 133.154C101.932 129.689 97.366 132.177 97.174 132.285C96.7488 132.522 96.211 132.372 95.9725 131.949C95.7339 131.525 95.8819 130.988 96.3053 130.748C96.3628 130.715 102.145 127.519 107.021 131.831C107.386 132.154 107.42 132.712 107.097 133.077C106.922 133.275 106.679 133.376 106.435 133.376Z" fill="#C43D1E"/>
<path d="M97.6308 118.646C97.6308 118.646 96.8728 130.113 88.882 138.446L81.1176 144.407C81.1176 144.407 66.8782 114.459 87.4218 106.756C95.7221 103.644 101.33 110.185 97.6308 118.646Z" fill="#C43D1E"/>
<path d="M84.8808 135.395C85.3347 135.583 85.7734 135.839 86.1716 136.161C87.2569 137.038 87.9934 138.27 88.3709 139.613C89.0279 141.95 89.6672 144.288 89.5247 146.744C89.447 148.079 88.949 149.49 87.8252 150.216C87.2416 150.593 86.5399 150.741 85.8431 150.703L86.2591 148.943C86.0909 148.438 85.9306 147.923 85.7887 147.388C84.8141 143.723 84.556 139.555 84.8808 135.395Z" fill="#2E294E"/>
<path d="M88.8822 138.443C88.5047 137.1 87.7681 135.868 86.6829 134.991C84.8874 133.541 82.2953 133.325 80.9947 135.51C79.5412 137.951 80.1988 141.856 81.1177 144.404C81.8414 146.41 83.0925 148.537 85.2043 149.301C86.2247 149.67 87.4243 149.635 88.3359 149.046C89.4597 148.32 89.9576 146.909 90.0353 145.574C90.1785 143.118 89.5386 140.78 88.8822 138.443Z" fill="#EF6E69"/>
<path d="M86.5115 146.221C86.4632 146.221 86.4137 146.209 86.3684 146.183C86.2265 146.105 86.1757 145.925 86.2546 145.783C87.0566 144.346 87.2671 141.587 86.2326 139.46C85.7829 138.535 84.9026 137.378 83.2625 137.119C83.1016 137.094 82.9921 136.943 83.0178 136.783C83.0429 136.622 83.1946 136.513 83.3542 136.538C84.8506 136.775 86.0289 137.696 86.7617 139.202C87.7644 141.263 87.7669 144.28 86.7685 146.07C86.7146 146.166 86.6143 146.221 86.5115 146.221Z" fill="#2E294E"/>
<path d="M83.8606 142.315C83.715 142.315 83.5884 142.207 83.5694 142.059C83.348 140.363 83.5774 139.343 84.2705 138.941C85.2573 138.367 86.6766 139.403 86.835 139.522C86.9647 139.62 86.9898 139.804 86.8925 139.934C86.794 140.063 86.6093 140.089 86.4802 139.992C86.1351 139.732 85.1178 139.127 84.566 139.45C84.1206 139.709 83.9738 140.609 84.153 141.983C84.1745 142.144 84.0607 142.292 83.8992 142.313C83.8863 142.314 83.8735 142.315 83.8606 142.315Z" fill="#2E294E"/>
<path d="M97.631 118.645C97.631 118.645 109.369 126.547 118.853 121.847C128.364 117.135 128.922 124.45 128.922 124.45C128.922 124.45 132.478 113.847 119.808 107.109C109.387 101.566 89.4199 102.945 97.631 118.645Z" fill="#C43D1E"/>
<path d="M27.195 205.042C27.3602 207.412 28.689 209.249 30.1627 209.147C31.6364 209.045 32.6972 207.04 32.532 204.67C32.3669 202.3 31.0381 200.462 29.5644 200.564C28.0907 200.666 27.0299 202.672 27.195 205.042Z" fill="#EF6E69"/>
<path d="M54.7334 144.748C54.7334 144.748 53.111 139.216 61.2982 138.003C69.4853 136.791 83.4781 141.102 87.4209 144.017C95.8718 150.265 89.6698 167.062 89.6698 167.062L54.7334 144.748Z" fill="#2E294E"/>
<path d="M52.2491 195.134L71.8334 195.477L72.0163 185.052L72.2525 171.402L66.3747 171.297L64.4213 171.265L52.6676 171.059L52.5795 176.12L52.396 186.702L52.2491 195.134Z" fill="#B04046"/>
<path d="M71.8921 192.151L72.0169 185.051L72.2524 171.401L66.3746 171.296L64.4213 171.264L57.517 171.143C58.4462 175.905 60.1861 180.572 62.6551 184.227C65.3163 188.171 68.5831 190.656 71.8921 192.151Z" fill="#2E294E"/>
<path d="M87.7617 158.049C87.9085 158.613 88.0523 159.19 88.2077 159.788C90.941 170.929 92.9139 187.353 81.8588 190.301C76.7286 191.666 65.534 191.367 58.5293 180.989C51.0328 169.888 50.2039 149.469 58.6584 145.337C61.3624 144.019 80.1948 136.975 85.0253 149.304C85.0253 149.304 86.4073 152.935 87.7617 158.049Z" fill="#B04046"/>
<path d="M77.5998 168.219C76.4968 167.754 73.8772 167.079 71.4847 169.722C70.9114 170.355 69.9534 170.45 69.3001 169.899L67.8655 168.69L69.3092 168.909C69.7564 168.977 70.2146 168.86 70.5676 168.576C71.9184 167.489 75.5883 165 77.7956 167.965C77.8953 168.097 77.7527 168.284 77.5998 168.219Z" fill="#2E294E"/>
<path d="M83.1069 166.787C83.7174 165.875 85.363 164.091 88.3454 165.336C89.0599 165.635 89.8167 165.284 90.0534 164.501L90.5734 162.784L89.597 163.633C89.2942 163.896 88.8996 164 88.5081 163.91C87.0087 163.564 83.1442 163.035 82.845 166.651C82.8316 166.814 83.0218 166.913 83.1069 166.787Z" fill="#2E294E"/>
<path d="M86.4538 178.088C86.277 178.782 86.0886 179.4 85.8885 179.953C83.2751 187.163 78.7083 183.344 76.5243 180.895C75.7651 180.048 75.2941 179.359 75.2941 179.359L86.4538 178.088Z" fill="#D7263D"/>
<path d="M86.4538 178.088C86.277 178.782 86.0886 179.4 85.8885 179.953C84.7115 180.424 83.2696 180.789 81.6919 180.989C79.744 181.236 77.9308 181.183 76.5243 180.895C75.7651 180.048 75.2941 179.359 75.2941 179.359L86.4538 178.088Z" fill="#E6E6E6"/>
<path d="M56.8818 145.217C56.8818 145.217 59.6464 152.777 71.0838 154.6C82.6553 156.445 87.6264 154.731 87.6264 154.731L83.242 143.471C83.242 143.471 71.3469 135.028 56.8818 145.217Z" fill="#2E294E"/>
<path d="M87.7619 158.051C87.9087 158.615 88.0525 159.192 88.2079 159.79C87.0076 159.829 85.5804 160.163 84.0051 161.096C82.9461 161.724 81.1439 159.706 83.6686 158.423C84.3874 158.053 85.9909 157.673 87.7619 158.051Z" fill="#2E294E"/>
<path d="M66.9162 165.521C66.7461 165.86 67.1902 166.115 67.4918 165.848C68.7869 164.703 71.2003 163.206 75.0306 163.102C76.4896 163.062 77.4244 160.233 74.0475 160.512C72.5419 160.636 68.7135 161.938 66.9162 165.521Z" fill="#2E294E"/>
<path d="M81.5973 175.815C81.2798 175.815 80.991 175.807 80.7585 175.797C80.5964 175.79 80.4704 175.652 80.4771 175.49C80.4839 175.328 80.6209 175.202 80.7836 175.209C82.674 175.288 84.4939 175.027 84.5245 174.669C84.5716 174.114 82.4984 170.18 80.4667 166.696C80.3854 166.556 80.4325 166.376 80.5726 166.294C80.7133 166.213 80.8937 166.26 80.9751 166.4C81.6811 167.61 85.1981 173.699 85.1106 174.719C85.0317 175.649 83.0239 175.815 81.5973 175.815Z" fill="#2E294E"/>
<path d="M20.9177 240.805C20.9177 240.805 13.4549 273.119 17.0104 278.435C26.3012 292.325 44.3867 267.829 44.3867 267.829L40.1937 247.883L20.9177 240.805Z" fill="#B04046"/>
<path d="M27.9555 210.351C27.9555 210.351 22.093 224.591 19.46 240.106L35.6643 247.883L27.9555 210.351Z" fill="#FF279C"/>
<path d="M96.2608 297.715L99.5196 306.427H32.0321C32.0321 306.427 36.1768 298.397 40.9742 294.961L96.2608 297.715Z" fill="#3A0CA3"/>
<path d="M51.9541 195.953C51.9541 195.953 94.1349 186.003 101.108 199.71C108.081 213.418 114.147 232.619 114.147 232.619L95.961 240.352L94.7595 272.053C94.6543 274.831 95.2287 277.594 96.4333 280.099C97.0695 281.423 97.1558 282.943 96.6743 284.33C96.2449 285.566 96.2742 286.909 96.733 288.135C97.6011 290.455 98.605 294.618 96.2608 297.714C96.2608 297.714 59.8188 304.252 40.9742 294.96L39.6216 292.054C38.206 289.012 37.4719 285.697 37.4719 282.341V266.343L27.9553 210.349C27.9553 210.349 32.91 200.04 51.9541 195.953Z" fill="#FF279C"/>
<path d="M87.0483 289.738C85.1255 289.738 82.6944 289.574 79.8008 289.248C79.2649 289.187 78.9981 288.742 79.0116 288.335C79.0257 287.922 79.3242 287.491 79.8693 287.466C93.4039 286.847 96.4431 284.144 96.4718 284.117C96.5899 284.006 96.7759 284.01 96.8872 284.129C96.9986 284.245 96.9955 284.43 96.8787 284.542C96.7569 284.66 93.744 287.42 79.8962 288.054C79.6234 288.067 79.6013 288.307 79.6001 288.355C79.5983 288.419 79.6105 288.634 79.8668 288.663C83.3037 289.051 86.0774 289.209 88.1079 289.132C88.2724 289.113 88.407 289.252 88.4131 289.414C88.4192 289.576 88.2926 289.713 88.1305 289.719C87.7897 289.732 87.4294 289.738 87.0483 289.738Z" fill="#FF279C"/>
<path d="M52.8997 286.729C51.6339 286.729 50.9482 286.686 50.92 286.684C50.7579 286.673 50.6356 286.532 50.6466 286.37C50.6576 286.209 50.7971 286.094 50.9604 286.097C51.076 286.105 62.894 286.837 80.5329 281.987C80.687 281.944 80.851 282.036 80.8944 282.193C80.9372 282.35 80.8455 282.512 80.6889 282.555C67.1378 286.281 56.9905 286.729 52.8997 286.729Z" fill="#FF279C"/>
<path d="M62.0517 289.742C50.3732 289.742 42.5935 288.82 38.0689 288.029C37.9086 288.001 37.8015 287.848 37.8297 287.688C37.8572 287.528 38.0089 287.42 38.1704 287.449C42.8492 288.267 51.0364 289.222 63.4465 289.15C63.6062 289.131 63.7408 289.279 63.7426 289.442C63.7432 289.604 63.6129 289.737 63.4502 289.738C62.9779 289.741 62.5111 289.742 62.0517 289.742Z" fill="#FF279C"/>
<path d="M34.1599 247.153C34.0191 247.153 33.8944 247.052 33.8699 246.909L28.7115 216.559C28.6846 216.398 28.7923 216.246 28.9526 216.219C29.1128 216.195 29.2652 216.3 29.2921 216.46L34.4504 246.81C34.4774 246.97 34.3697 247.123 34.2094 247.15C34.1929 247.152 34.1764 247.153 34.1599 247.153Z" fill="#FF279C"/>
<path d="M91.1772 243.731C91.0518 243.731 90.9356 243.65 90.8964 243.524C88.4408 235.633 85.7056 226.654 84.0361 219.895C81.8932 211.216 85.1667 202.228 92.3763 196.996C92.5078 196.901 92.6913 196.93 92.7874 197.062C92.8828 197.193 92.8534 197.378 92.7219 197.473C85.7075 202.563 82.5226 211.309 84.6075 219.754C86.2734 226.498 89.0055 235.466 91.4586 243.349C91.507 243.505 91.4201 243.669 91.2647 243.718C91.2359 243.726 91.206 243.731 91.1772 243.731Z" fill="#FF279C"/>
<path d="M178.098 222.456C174.611 227.783 170.526 231.296 170.526 231.296C181.408 220.47 178.51 214.102 176.22 218.075C173.565 222.679 168.317 228.424 168.317 228.424C178.65 215.462 176.308 212.137 174.172 214.283C173.184 215.277 165.666 225.287 165.666 225.287C171.632 216.902 172.874 211.466 171.198 211.549C169.522 211.633 158.871 226.049 158.871 226.049C158.871 226.049 164.34 215.941 161.179 215.07C159.287 214.548 150.663 231.389 150.663 231.389L119.57 255.952L111.581 233.712C111.581 233.712 96.1489 238.874 91.1771 243.436C91.1771 243.436 100.347 282.166 114.708 282.166C125.934 282.166 150.975 253.924 159.431 242.731C159.432 242.73 165.59 239.832 172.736 234.004C181.14 227.15 181.242 217.653 178.098 222.456Z" fill="#B04046"/>
<path d="M58.6586 145.336C58.6586 145.336 49.2179 138.195 44.0393 150.993C38.8608 163.791 27.345 214.642 48.8392 204.063L58.6586 145.336Z" fill="#2E294E"/>
<path d="M42.7063 191.107C46.5961 187.217 46.5961 180.911 42.7062 177.021C38.8164 173.131 32.5097 173.131 28.6199 177.021C24.73 180.911 24.73 187.217 28.6199 191.107C32.5097 194.997 38.8164 194.997 42.7063 191.107Z" fill="#2E294E"/>
<path d="M41.9938 205.914C47.4949 205.914 51.9544 201.454 51.9544 195.953C51.9544 190.452 47.4949 185.992 41.9938 185.992C36.4926 185.992 32.0331 190.452 32.0331 195.953C32.0331 201.454 36.4926 205.914 41.9938 205.914Z" fill="#2E294E"/>
<path d="M62.0468 203.529C65.9367 199.639 65.9367 193.332 62.0468 189.442C58.157 185.552 51.8503 185.552 47.9604 189.442C44.0706 193.332 44.0706 199.639 47.9604 203.529C51.8503 207.419 58.157 207.419 62.0468 203.529Z" fill="#2E294E"/>
<path d="M66.4184 150.876C65.9889 151.497 58.63 173.253 58.63 173.253C58.63 173.253 65.1025 189.609 64.9654 196.487H46.7344V147.947L62.2511 143.537L66.4184 150.876Z" fill="#2E294E"/>
<path d="M58.6308 173.257C57.9315 172.163 56.9796 171.273 55.8546 170.803C53.9936 170.026 51.8641 170.588 51.475 172.926C51.0406 175.539 52.7224 178.85 54.2096 180.866C55.3811 182.454 57.0084 183.996 58.9183 184.066C59.8414 184.1 60.7866 183.719 61.3384 182.925C62.0187 181.946 61.9979 180.536 61.6639 179.315C61.049 177.071 59.8469 175.161 58.6308 173.257Z" fill="#2E294E"/>
<path d="M58.5182 172.034C57.7639 170.95 56.7233 170.077 55.4808 169.631C53.4253 168.891 51.0412 169.503 50.5561 171.86C50.0147 174.494 51.8145 177.781 53.4265 179.773C54.6965 181.342 56.4749 182.855 58.6002 182.883C59.6273 182.897 60.6887 182.493 61.3206 181.684C62.1 180.686 62.108 179.27 61.7623 178.052C61.1279 175.811 59.831 173.92 58.5182 172.034Z" fill="#B04046"/>
<path d="M58.7218 179.741C58.7059 179.741 58.6894 179.739 58.6735 179.736C58.5218 179.709 58.4208 179.566 58.4478 179.414C58.7182 177.88 58.0507 175.348 56.4657 173.767C55.7774 173.08 54.6304 172.318 53.0838 172.596C52.9327 172.623 52.7878 172.522 52.7602 172.371C52.7333 172.22 52.8336 172.075 52.9854 172.047C54.3955 171.794 55.7358 172.253 56.8584 173.372C58.3939 174.903 59.333 177.6 58.9959 179.51C58.972 179.645 58.8546 179.741 58.7218 179.741Z" fill="#2E294E"/>
<path d="M55.14 177.07C55.0379 177.07 54.9394 177.014 54.8904 176.916C54.1667 175.469 54.0548 174.486 54.5497 173.911C55.2551 173.092 56.8444 173.577 57.023 173.635C57.1693 173.682 57.2494 173.839 57.2023 173.985C57.1552 174.132 56.998 174.212 56.8517 174.165C56.4627 174.04 55.367 173.814 54.9718 174.273C54.6543 174.644 54.8024 175.493 55.389 176.666C55.4575 176.804 55.4019 176.971 55.2648 177.04C55.2245 177.061 55.1816 177.07 55.14 177.07Z" fill="#2E294E"/>
<path d="M20.9766 218.188C20.9766 218.188 30.8565 230.148 26.2457 230.366C21.6349 230.583 14.9049 221.843 16.6796 219.143C18.0285 217.09 20.2431 217.271 20.9766 218.188Z" fill="#EF6E69"/>
<path d="M22.7673 214.168C22.7673 214.168 33.3275 226.953 28.3991 227.185C23.4708 227.417 16.2771 218.076 18.1742 215.189C19.6161 212.994 21.983 213.189 22.7673 214.168Z" fill="#EF6E69"/>
<path d="M26.8085 227.183C26.7884 227.183 26.7669 227.18 26.7467 227.174C23.1031 226.084 19.0184 221.341 17.9356 217.988C17.8989 217.874 17.9613 217.752 18.0751 217.715C18.1876 217.678 18.3106 217.741 18.3473 217.855C19.3983 221.108 23.3509 225.706 26.8716 226.759C26.9859 226.793 27.0508 226.914 27.0165 227.028C26.9878 227.123 26.9015 227.183 26.8085 227.183Z" fill="#2E294E"/>
<path d="M24.715 209.392C24.715 209.392 35.841 222.985 30.9225 223.379C26.0039 223.773 18.3973 213.827 20.1671 210.634C21.5124 208.207 23.8879 208.35 24.715 209.392Z" fill="#EF6E69"/>
<path d="M28.976 223.293C28.9515 223.293 28.9276 223.289 28.9032 223.281C25.2516 221.98 21.2127 217.123 20.0412 213.65C20.0027 213.537 20.0638 213.414 20.177 213.376C20.2902 213.338 20.4125 213.398 20.4511 213.512C21.5914 216.891 25.5103 221.613 29.0488 222.873C29.1613 222.913 29.2201 223.037 29.1797 223.15C29.1479 223.238 29.0647 223.293 28.976 223.293Z" fill="#2E294E"/>
<path d="M27.6894 205.611C27.6894 205.611 38.2496 218.395 33.3213 218.627C28.3929 218.859 21.1992 209.518 23.0963 206.631C24.5388 204.437 26.9057 204.631 27.6894 205.611Z" fill="#EF6E69"/>
<path d="M29.9364 208.727C29.8698 208.727 29.8043 208.697 29.7621 208.639C28.5367 206.977 27.5328 205.76 27.5231 205.747C27.4013 205.596 27.2325 205.462 27.0318 205.361C26.9254 205.306 26.8832 205.176 26.9376 205.069C26.992 204.963 27.1211 204.92 27.2288 204.975C27.487 205.106 27.6992 205.274 27.8595 205.474C27.8675 205.484 28.8781 206.71 30.1114 208.382C30.1824 208.478 30.1616 208.614 30.0655 208.685C30.0258 208.714 29.9811 208.727 29.9364 208.727Z" fill="#2E294E"/>
<path d="M30.7127 218.232C30.6815 218.232 30.6503 218.225 30.621 218.211C26.9137 216.47 23.379 211.832 22.6956 208.848C22.6687 208.732 22.7421 208.616 22.8584 208.589C22.9752 208.562 23.0908 208.635 23.1177 208.751C23.765 211.58 27.2643 216.157 30.8051 217.82C30.9134 217.87 30.9599 217.999 30.9091 218.107C30.8712 218.186 30.7935 218.232 30.7127 218.232Z" fill="#2E294E"/>
</g>
<defs>
<clipPath id="clip0_437_5425">
<rect x="0.393311" y="0.351562" width="305.88" height="305.88" rx="152.94" fill="white"/>
</clipPath>
</defs>
</svg>
