<svg width="306" height="307" viewBox="0 0 306 307" fill="none" xmlns="http://www.w3.org/2000/svg">
<g clip-path="url(#clip0_437_4986)">
<rect width="305.879" height="305.884" transform="translate(0.0603027 0.351562)" fill="#070707"/>
<path d="M305.94 0.351562H0.060791V306.23H305.94V0.351562Z" fill="#070707"/>
<path opacity="0.3" d="M305.94 0.351562H0.060791V306.23H305.94V0.351562Z" fill="#070707"/>
<path d="M222.127 157.011C213.638 157.011 206.755 150.129 206.755 141.639C206.755 133.15 213.638 126.267 222.127 126.267H256.169C264.684 126.267 271.937 119.646 272.239 111.135C272.558 102.201 265.409 94.8578 256.545 94.8578H55.4537C46.5317 94.8578 39.2992 102.09 39.2992 111.012C39.2992 119.934 46.5317 127.167 55.4537 127.167H84.9524C93.295 127.167 100.4 133.653 100.696 141.991C101.007 150.743 94.0041 157.937 85.3213 157.937H25.5333C11.659 157.937 0.411987 169.184 0.411987 183.058C0.411987 196.932 11.659 208.179 25.5333 208.179H159L263.086 207.894H280.146C294.197 207.894 305.588 196.504 305.588 182.453C305.588 168.402 294.197 157.012 280.146 157.012L222.127 157.011Z" stroke="#F8F8FF" stroke-width="1.63867" stroke-linecap="round" stroke-linejoin="round" stroke-dasharray="4 4"/>
<path d="M175.263 21.6353C175.263 22.8443 174.283 23.824 173.074 23.824C171.866 23.824 170.886 22.8443 170.886 21.6353C170.886 20.4263 171.865 19.4465 173.074 19.4465C174.283 19.4472 175.263 20.427 175.263 21.6353Z" stroke="#F8F8FF" stroke-width="1.33663" stroke-miterlimit="10" stroke-linecap="round" stroke-linejoin="round"/>
<path d="M295.499 97.0526C295.499 98.2615 294.519 99.2413 293.31 99.2413C292.101 99.2413 291.122 98.2615 291.122 97.0526C291.122 95.8436 292.101 94.8638 293.31 94.8638C294.519 94.8638 295.499 95.8436 295.499 97.0526Z" stroke="#F8F8FF" stroke-width="1.33663" stroke-miterlimit="10" stroke-linecap="round" stroke-linejoin="round"/>
<path d="M45.515 18.9473H57.0682" stroke="#F8F8FF" stroke-width="1.33663" stroke-miterlimit="10" stroke-linecap="round" stroke-linejoin="round"/>
<path d="M54.7432 24.3284H63.8075" stroke="#F8F8FF" stroke-width="1.33663" stroke-miterlimit="10" stroke-linecap="round" stroke-linejoin="round"/>
<path d="M255.359 44.1162H266.913" stroke="#F8F8FF" stroke-width="1.33663" stroke-miterlimit="10" stroke-linecap="round" stroke-linejoin="round"/>
<path d="M264.588 49.5017H273.653" stroke="#F8F8FF" stroke-width="1.33663" stroke-miterlimit="10" stroke-linecap="round" stroke-linejoin="round"/>
<path d="M285.693 243.714H297.247" stroke="#F8F8FF" stroke-width="1.33663" stroke-miterlimit="10" stroke-linecap="round" stroke-linejoin="round"/>
<path d="M294.921 249.099H303.985" stroke="#F8F8FF" stroke-width="1.33663" stroke-miterlimit="10" stroke-linecap="round" stroke-linejoin="round"/>
<path d="M89.7612 270.274H101.315" stroke="#F8F8FF" stroke-width="1.33663" stroke-miterlimit="10" stroke-linecap="round" stroke-linejoin="round"/>
<path d="M98.9889 275.66H108.054" stroke="#F8F8FF" stroke-width="1.33663" stroke-miterlimit="10" stroke-linecap="round" stroke-linejoin="round"/>
<path d="M252.746 88.9588L253.863 98.5331C253.863 98.5331 250.287 102.397 244.879 102.397C239.47 102.397 239.47 98.7911 239.47 98.7911L240.5 90.5494L248.816 81.8226L252.746 88.9588Z" fill="#FFBBB5"/>
<path d="M238.262 76.1237C238.262 76.1237 235.404 87.0239 236.974 89.2587C239.327 92.607 244.922 92.8643 247.28 91.3191C249.258 90.0233 250.882 83.0775 250.882 81.2744C250.882 76.381 240.838 73.548 238.262 76.1237Z" fill="#FFBBB5"/>
<path d="M254.469 84.3311C254.556 83.9709 254.655 83.6133 254.785 83.2525C255.092 82.3984 255.56 81.6432 255.896 80.8031C256.565 79.1243 256.008 77.0365 254.592 75.9144C254.34 75.7152 254.065 75.5428 253.842 75.3122C253.34 74.7936 253.165 74.0518 252.875 73.3915C252.637 72.8515 252.29 72.3302 251.769 72.0528C250.574 71.4159 248.982 72.2794 247.788 71.6412C247.53 71.5028 247.31 71.303 247.076 71.1266C245.364 69.8314 243.419 70.1328 241.552 70.8078C240.678 71.1239 240.392 71.4681 239.664 72.0348C238.87 72.653 237.77 72.6116 236.97 73.217C236.131 73.8526 235.92 75.0188 235.912 76.0714C235.908 76.4524 235.926 76.846 236.087 77.1915C236.295 77.6353 236.716 77.946 237.163 78.1492C238.233 78.6364 239.437 78.4486 240.572 78.3631C241.682 78.2795 242.97 77.4976 244.055 77.9033C245.114 78.2982 245.384 79.5968 246.687 79.6977C247.201 79.7378 247.825 79.6436 248.132 80.0572C248.478 80.5244 248.295 81.293 248.569 81.8343C248.827 82.3442 249.279 82.804 249.611 83.2745C250.269 84.2095 251.203 84.8511 250.869 86.0701C250.637 86.9175 249.695 88.2795 250.084 89.1777C250.341 89.7699 251.643 89.7598 252.629 89.0093C253.645 88.2367 253.947 86.7638 254.196 85.5902C254.288 85.1605 254.37 84.7441 254.469 84.3311Z" fill="#7974F5"/>
<path d="M254.469 84.3311C254.556 83.9709 254.655 83.6133 254.785 83.2525C255.092 82.3984 255.56 81.6432 255.896 80.8031C256.565 79.1243 256.008 77.0365 254.592 75.9144C254.34 75.7152 254.065 75.5428 253.842 75.3122C253.34 74.7936 253.165 74.0518 252.875 73.3915C252.637 72.8515 252.29 72.3302 251.769 72.0528C250.574 71.4159 248.982 72.2794 247.788 71.6412C247.53 71.5028 247.31 71.303 247.076 71.1266C245.364 69.8314 243.419 70.1328 241.552 70.8078C240.678 71.1239 240.392 71.4681 239.664 72.0348C238.87 72.653 237.77 72.6116 236.97 73.217C236.131 73.8526 235.92 75.0188 235.912 76.0714C235.908 76.4524 235.926 76.846 236.087 77.1915C236.295 77.6353 236.716 77.946 237.163 78.1492C238.233 78.6364 239.437 78.4486 240.572 78.3631C241.682 78.2795 242.97 77.4976 244.055 77.9033C245.114 78.2982 245.384 79.5968 246.687 79.6977C247.201 79.7378 247.825 79.6436 248.132 80.0572C248.478 80.5244 248.295 81.293 248.569 81.8343C248.827 82.3442 249.279 82.804 249.611 83.2745C250.269 84.2095 251.203 84.8511 250.869 86.0701C250.637 86.9175 249.695 88.2795 250.084 89.1777C250.341 89.7699 251.643 89.7598 252.629 89.0093C253.645 88.2367 253.947 86.7638 254.196 85.5902C254.288 85.1605 254.37 84.7441 254.469 84.3311Z" fill="#8C5E3A"/>
<path d="M242.652 92.3619C241.351 92.3619 240.359 92.1721 240.28 92.1567L240.377 91.6648C240.413 91.6728 244.074 92.3705 246.547 91.0426C248.471 90.0107 249.19 87.5894 249.198 87.5647L249.68 87.7044C249.648 87.812 248.892 90.3529 246.785 91.4844C245.485 92.1807 243.921 92.3619 242.652 92.3619Z" fill="#FFBBB5"/>
<path d="M248.166 84.0852C248.403 83.6836 249.197 83.1616 249.633 83.2084C250.068 83.2552 250.467 83.5172 250.772 83.86C252.203 85.47 250.646 88.5429 248.452 88.2034C247.648 88.0784 247.867 87.0138 247.867 87.0138" fill="#FFBBB5"/>
<path d="M240.433 86.0657C240.246 86.0563 238.602 85.9521 238.422 85.1367C238.254 84.3762 239.78 81.9977 239.954 81.729L240.235 81.9108C239.605 82.8805 238.644 84.5947 238.748 85.0646C238.854 85.5457 240.042 85.7115 240.449 85.7315L240.433 86.0657Z" fill="#2D4773"/>
<path d="M238.58 86.777L243.216 87.4239C243.216 87.4239 242.332 89.8165 239.811 89.2865C238.013 88.9082 238.58 86.777 238.58 86.777Z" fill="#F8F8FF"/>
<path d="M238.251 81.0327C238.173 81.2265 238.106 81.425 238.051 81.6255C237.96 81.9529 238.469 82.0926 238.559 81.7658C238.615 81.5653 238.66 81.3608 238.694 81.155C238.742 80.8609 238.36 80.7573 238.251 81.0327Z" fill="#2D4773"/>
<path d="M239.695 80.0933C239.644 80.0933 239.595 80.0706 239.561 80.0265C239.498 79.943 238.918 79.2252 238.054 79.8561C237.98 79.9109 237.875 79.8942 237.82 79.82C237.766 79.7458 237.782 79.6409 237.856 79.5867C238.775 78.9131 239.548 79.4497 239.829 79.8267C239.884 79.9008 239.869 80.0051 239.795 80.0599C239.765 80.0826 239.73 80.0933 239.695 80.0933Z" fill="#7974F5"/>
<path d="M243.528 82.2653C243.462 82.4625 243.406 82.6636 243.362 82.8668C243.291 83.1976 243.799 83.3393 243.871 83.0071C243.92 82.7826 243.955 82.5547 243.979 82.3268C244.008 82.0568 243.606 82.0321 243.528 82.2653Z" fill="#2D4773"/>
<path d="M245.568 81.5686C245.522 81.5686 245.475 81.5492 245.443 81.5118C244.361 80.2828 243.352 80.5955 243.311 80.6082C243.224 80.6383 243.129 80.5902 243.099 80.5033C243.07 80.4164 243.116 80.3222 243.203 80.2921C243.253 80.2747 244.457 79.8838 245.694 81.2913C245.755 81.3608 245.748 81.4663 245.679 81.5272C245.647 81.5552 245.608 81.5686 245.568 81.5686Z" fill="#7974F5"/>
<path d="M239.695 80.0933C239.644 80.0933 239.595 80.0706 239.561 80.0265C239.498 79.943 238.918 79.2252 238.054 79.8561C237.98 79.9109 237.875 79.8942 237.82 79.82C237.766 79.7458 237.782 79.6409 237.856 79.5867C238.775 78.9131 239.548 79.4497 239.829 79.8267C239.884 79.9008 239.869 80.0051 239.795 80.0599C239.765 80.0826 239.73 80.0933 239.695 80.0933Z" fill="#FFBBB5"/>
<path d="M245.568 81.5686C245.522 81.5686 245.475 81.5492 245.443 81.5118C244.361 80.2828 243.352 80.5955 243.311 80.6082C243.224 80.6383 243.129 80.5902 243.099 80.5033C243.07 80.4164 243.116 80.3222 243.203 80.2921C243.253 80.2747 244.457 79.8838 245.694 81.2913C245.755 81.3608 245.748 81.4663 245.679 81.5272C245.647 81.5552 245.608 81.5686 245.568 81.5686Z" fill="#FFBBB5"/>
<path d="M236.052 255.84L233.848 277.956L234.035 284.911L206.764 284.772C206.098 284.769 205.561 284.226 205.565 283.56C205.567 283.062 205.877 282.616 206.343 282.439L218.105 277.03L219.234 254.019" fill="#FFBBB5"/>
<path d="M204.371 284.481C204.65 283.607 205.162 282.626 205.677 282.405L218.148 277.033C225.022 279.819 233.92 277.69 233.92 277.69L235.507 287.079C235.506 287.389 235.253 287.64 234.942 287.639H204.58C203.969 287.635 204.363 284.508 204.371 284.481Z" fill="#E3DEFF"/>
<path d="M215.449 277.567C216.148 278.478 216.739 279.471 217.208 280.519" stroke="#2D4773" stroke-width="0.501236" stroke-miterlimit="10"/>
<path d="M213.879 278.505C214.602 279.508 214.892 280.086 215.324 281.016" stroke="#2D4773" stroke-width="0.501236" stroke-miterlimit="10"/>
<path d="M212.552 279.188C213.043 279.849 213.526 280.762 213.907 281.492" stroke="#2D4773" stroke-width="0.501236" stroke-miterlimit="10"/>
<path d="M235.347 285.613L204.243 285.454" stroke="#2D4773" stroke-width="0.501236" stroke-miterlimit="10"/>
<path d="M234.482 281.016C234.482 281.016 227.176 281.164 226.547 285.567" stroke="#2D4773" stroke-width="0.501236" stroke-miterlimit="10"/>
<path d="M208.233 281.298C208.233 281.298 210.248 284.161 210.645 285.481" stroke="#2D4773" stroke-width="0.501236" stroke-miterlimit="10"/>
<path d="M223.292 160.863C218.604 194.543 214.403 274.104 214.403 274.104H237.883C237.883 274.104 242.726 224.367 246.839 188.387C257.172 171.289 256.367 152.77 257.533 150.309" fill="#2D4773"/>
<path d="M234.677 274.102C234.677 274.102 240.481 219.166 244.595 183.185" stroke="#E3DEFF" stroke-width="0.501236" stroke-miterlimit="10"/>
<path d="M273.767 255.84L274.771 277.956L274.957 284.911L247.686 284.772C247.02 284.769 246.483 284.226 246.487 283.56C246.49 283.062 246.799 282.616 247.265 282.439L259.027 277.03L256.949 254.019" fill="#FFBBB5"/>
<path d="M245.293 284.481C245.572 283.607 246.084 282.626 246.599 282.405L259.071 277.033C265.945 279.819 274.843 277.69 274.843 277.69L276.43 287.079C276.429 287.389 276.176 287.64 275.865 287.639H245.503C244.891 287.635 245.285 284.508 245.293 284.481Z" fill="#E3DEFF"/>
<path d="M256.372 277.567C257.07 278.478 257.662 279.471 258.13 280.519" stroke="#2D4773" stroke-width="0.501236" stroke-miterlimit="10"/>
<path d="M254.801 278.505C255.525 279.508 255.814 280.086 256.246 281.016" stroke="#2D4773" stroke-width="0.501236" stroke-miterlimit="10"/>
<path d="M253.474 279.188C253.965 279.849 254.448 280.762 254.829 281.492" stroke="#2D4773" stroke-width="0.501236" stroke-miterlimit="10"/>
<path d="M276.268 285.613L245.164 285.454" stroke="#2D4773" stroke-width="0.501236" stroke-miterlimit="10"/>
<path d="M275.406 281.016C275.406 281.016 268.098 281.164 267.47 285.567" stroke="#2D4773" stroke-width="0.501236" stroke-miterlimit="10"/>
<path d="M249.155 281.298C249.155 281.298 251.169 284.161 251.567 285.481" stroke="#2D4773" stroke-width="0.501236" stroke-miterlimit="10"/>
<path d="M273.047 157.747C273.677 165.393 273.625 174.839 272.463 184.066C274.467 224.619 277.24 274.105 277.24 274.105H253.766C253.766 274.105 242.461 184.295 241.933 157.073" fill="#2D4773"/>
<path d="M269.038 157.747C269.668 165.394 269.617 174.84 268.454 184.067C270.459 224.62 273.231 274.106 273.231 274.106" stroke="#E3DEFF" stroke-width="0.501236" stroke-miterlimit="10"/>
<path d="M245.405 201.196C245.405 201.196 242.146 173.031 241.863 162.693" stroke="#E3DEFF" stroke-width="0.501236" stroke-miterlimit="10"/>
<path d="M276.981 269.458H253.188" stroke="#E3DEFF" stroke-width="0.501236" stroke-miterlimit="10"/>
<path d="M238.346 269.394H214.707" stroke="#E3DEFF" stroke-width="0.501236" stroke-miterlimit="10"/>
<path d="M269.299 174.047C269.299 174.047 262.551 174.572 258.825 165.006" stroke="#E3DEFF" stroke-width="0.501236" stroke-miterlimit="10"/>
<path d="M242.902 174.056C242.902 174.056 240.549 173.387 240.329 172.651C240.109 171.916 239.47 163.201 239.47 163.201" stroke="#E3DEFF" stroke-width="0.501236" stroke-miterlimit="10"/>
<path d="M230.856 165.006C230.856 165.006 230.323 172.861 221.706 174.052" stroke="#E3DEFF" stroke-width="0.501236" stroke-miterlimit="10"/>
<path d="M199.047 112.887C199.047 112.887 187.891 101.081 187.204 101.19C186.517 101.299 188.033 103.486 187.452 103.471C186.872 103.455 183.368 98.5955 182.711 98.8869C181.82 99.2826 185.122 103.575 185.122 103.575C185.122 103.575 184.248 102.794 183.575 103.361C183.098 103.762 183.758 105.115 183.758 105.115C183.758 105.115 182.888 104.697 182.401 105.124C181.919 105.547 182.534 106.706 182.534 106.706C182.534 106.706 181.641 105.798 181.145 106.653C180.682 107.453 183.957 114.168 189.305 121.367" fill="#FFBBB5"/>
<path d="M239.735 96.6749C234.149 97.1768 228.124 99.8955 224.431 104.664C218.214 112.692 210.328 122.855 210.328 122.855L197.402 109.643L185.234 119.782C185.234 119.782 202.08 143.538 210.433 143.594C217.943 143.644 230.627 132.868 234.303 127.066C241.697 115.392 239.735 96.6749 239.735 96.6749Z" fill="#F8F8FF"/>
<path d="M253.504 95.5056C253.504 95.5056 251.949 97.7973 245.655 98.4455C240.899 98.9354 239.735 96.6745 239.735 96.6745C239.735 96.6745 228.253 102.792 224.846 128.129C221.441 153.467 221.108 166.73 221.108 166.73H275.019C275.019 166.73 275.201 147.456 273.624 130.885C272.003 113.849 268.424 99.45 253.504 95.5056Z" fill="#A4D2FF"/>
<path d="M188.224 104.552C188.224 104.552 188.82 107.054 189.739 109.053" stroke="#2D4773" stroke-width="0.334157" stroke-miterlimit="10"/>
<path d="M181.506 108.235C181.971 108.775 182.453 109.3 182.963 109.796C183.218 110.042 183.481 110.281 183.76 110.495C183.9 110.601 184.046 110.699 184.195 110.777C184.338 110.856 184.526 110.894 184.572 110.812C184.63 110.723 184.593 110.527 184.55 110.372C184.503 110.209 184.438 110.046 184.369 109.885C184.227 109.564 184.062 109.252 183.889 108.943C183.542 108.326 183.158 107.726 182.77 107.136L183.006 106.973C183.478 107.616 183.974 108.248 184.499 108.845C184.764 109.141 185.036 109.434 185.331 109.687C185.477 109.809 185.635 109.933 185.785 109.993C185.862 110.028 185.92 110.02 185.922 110.013C185.922 110.02 185.953 109.958 185.946 109.873C185.93 109.532 185.773 109.141 185.637 108.779C185.49 108.412 185.324 108.049 185.15 107.689C184.802 106.971 184.424 106.262 184.029 105.568L184.284 105.412C184.727 106.099 185.201 106.771 185.696 107.422C185.946 107.745 186.204 108.063 186.488 108.348C186.629 108.489 186.78 108.625 186.94 108.719C187.018 108.762 187.105 108.79 187.153 108.776C187.195 108.771 187.222 108.718 187.23 108.627C187.239 108.258 187.086 107.852 186.954 107.474C186.813 107.09 186.657 106.71 186.491 106.334C186.158 105.583 185.796 104.843 185.414 104.113C185.829 104.825 186.226 105.547 186.595 106.285C186.779 106.655 186.957 107.028 187.113 107.412C187.256 107.803 187.427 108.18 187.433 108.641C187.432 108.746 187.383 108.931 187.212 108.979C187.057 109.017 186.938 108.958 186.837 108.911C186.638 108.8 186.479 108.66 186.325 108.516C186.019 108.225 185.75 107.908 185.487 107.587C184.963 106.943 184.493 106.264 184.034 105.573L184.288 105.417C184.694 106.117 185.079 106.824 185.438 107.549C185.618 107.911 185.789 108.279 185.944 108.655C186.09 109.04 186.252 109.408 186.275 109.873C186.272 109.983 186.276 110.148 186.107 110.281C185.936 110.388 185.768 110.334 185.666 110.292C185.444 110.197 185.285 110.062 185.125 109.927C184.812 109.653 184.538 109.353 184.27 109.048C183.739 108.435 183.248 107.797 182.774 107.14L183.01 106.977C183.403 107.578 183.762 108.196 184.101 108.829C184.268 109.146 184.427 109.468 184.565 109.803C184.632 109.971 184.696 110.142 184.742 110.322C184.773 110.501 184.852 110.692 184.721 110.921C184.639 111.036 184.491 111.051 184.393 111.031C184.288 111.014 184.2 110.973 184.117 110.929C183.951 110.84 183.808 110.727 183.668 110.613C183.391 110.38 183.139 110.126 182.893 109.867C182.404 109.344 181.945 108.796 181.506 108.235Z" fill="#2D4773"/>
<path d="M239.735 96.6749C228.684 117.911 227.949 170.235 227.949 170.235H219.496C219.496 170.235 219.891 136.316 226.28 114.194C228.995 104.795 235.968 97.3445 239.735 96.6749Z" fill="#F8F8FF"/>
<path d="M221.62 139.07C221.62 139.07 223.498 118.542 227.18 111.53" stroke="#2D4773" stroke-width="0.501236" stroke-miterlimit="10" stroke-linejoin="round"/>
<path d="M231.751 125.295L230.062 109.048L232.895 107.524L230.062 105.745C230.062 105.745 232.528 100.994 234.676 97.7161" stroke="#2D4773" stroke-width="0.501236" stroke-miterlimit="10" stroke-linejoin="round"/>
<path d="M253.3 95.5013C246.666 109.795 252.548 170.234 252.548 170.234H278.213C278.213 170.234 276.998 148.093 275.935 139.498C274.871 130.904 267.886 103.34 267.886 103.34L253.3 95.5013Z" fill="#F8F8FF"/>
<path d="M214.431 155.02L249.232 154.533L242.25 131.271C241.892 130.078 240.866 129.277 239.718 129.293L208.254 129.734C207.556 129.744 207.068 130.49 207.286 131.215L214.431 155.02Z" fill="#E3DEFF"/>
<path d="M212.867 155.042L247.668 154.554L240.686 131.293C240.328 130.1 239.302 129.298 238.154 129.314L206.691 129.755C205.992 129.765 205.504 130.511 205.722 131.236L212.867 155.042Z" fill="#F8F8FF"/>
<path d="M222.961 142.598C223.181 143.685 224.402 144.552 225.69 144.534C226.978 144.516 227.844 143.619 227.625 142.533C227.406 141.445 226.184 140.579 224.896 140.597C223.608 140.615 222.742 141.511 222.961 142.598Z" fill="#E3DEFF"/>
<path d="M262.619 126.02C262.619 126.02 269.424 137.945 269.026 140.698C268.726 142.775 250.177 147.537 250.177 147.537L251.014 159.218C251.014 159.218 282.047 156.581 285.653 150.357C290.589 141.837 276.921 119.784 276.921 119.784" fill="#FFBBB5"/>
<path d="M253.78 146.83C251.235 147.277 237.836 149.997 237.996 150.675C238.15 151.327 242.085 151.2 241.968 151.572C241.801 152.099 238.89 152.805 237.221 153.05C235.733 153.269 233.379 153.863 233.391 154.523C233.412 155.778 241.561 154.475 241.561 154.475C241.561 154.475 232.536 154.238 232.446 155.29C232.315 156.806 241.876 156.698 242.212 157.029C242.212 157.029 233.896 154.821 233.8 155.943C233.703 157.065 241.08 159.221 243.359 159.063C241.465 158.842 235.686 156.028 235.642 157.061C235.599 158.095 240.602 159.554 241.403 159.615C247.98 160.111 253.946 158.685 253.946 158.685" fill="#FFBBB5"/>
<path d="M234.304 155.014C235.367 154.843 236.432 154.762 237.497 154.692C238.564 154.634 239.627 154.593 240.703 154.609C240.18 154.736 239.648 154.813 239.116 154.881C238.584 154.952 238.05 154.99 237.516 155.026C236.448 155.081 235.378 155.103 234.304 155.014Z" fill="#2D4773"/>
<path d="M235.266 156.402C236.434 156.414 237.589 156.497 238.745 156.564C239.901 156.64 241.049 156.722 242.215 156.743C241.644 156.873 241.056 156.91 240.473 156.931C239.889 156.954 239.306 156.93 238.724 156.897C237.561 156.816 236.403 156.672 235.266 156.402Z" fill="#2D4773"/>
<path d="M236.752 157.737C237.794 157.783 238.818 157.908 239.843 158.031C240.867 158.165 241.884 158.307 242.914 158.46C242.394 158.521 241.872 158.515 241.353 158.496C240.832 158.48 240.317 158.424 239.801 158.363C238.772 158.224 237.75 158.039 236.752 157.737Z" fill="#2D4773"/>
<path d="M253.301 95.5013C260.551 96.6749 269.566 98.9365 273.23 103.716C278.853 111.048 293.857 141.745 288.301 149.273C283.577 155.674 257.362 160.524 257.362 160.524L250.297 146.067L268.216 139.383L257.068 115.065" fill="#F8F8FF"/>
<path d="M250.297 146.068L268.216 139.384L259.231 119.783" stroke="#2D4773" stroke-width="0.501236" stroke-miterlimit="10"/>
<path d="M257.362 160.526L277.239 155.676" stroke="#2D4773" stroke-width="0.501236" stroke-miterlimit="10"/>
<path d="M252.617 145.199L260.066 159.861" stroke="#2D4773" stroke-width="0.501236" stroke-miterlimit="10"/>
<path d="M250.177 126.004C251.325 118.466 256.178 112.325 256.178 112.325L253.177 109.054L257.362 107.529C257.362 107.529 259.298 99.539 260.686 97.0589" stroke="#2D4773" stroke-width="0.501236" stroke-miterlimit="10" stroke-linejoin="round"/>
<path d="M230.382 59.5355C230.382 47.9871 220.986 38.5906 209.437 38.5906C197.889 38.5906 188.492 47.9871 188.492 59.5355C188.492 71.084 197.889 80.4738 209.437 80.4738C212.912 80.4738 216.347 79.605 219.395 77.9543L226.619 81.9775L224.22 74.3654C228.197 70.4023 230.382 65.1561 230.382 59.5355ZM224.334 79.1706L219.729 76.611L219.094 76.5976C216.16 78.2617 212.819 79.1372 209.437 79.1372C198.624 79.1372 189.829 70.3422 189.829 59.5355C189.829 48.7222 198.624 39.9272 209.437 39.9272C220.25 39.9272 229.045 48.7222 229.045 59.5355C229.045 64.9355 226.887 69.9679 222.977 73.7105L222.823 74.3788L224.334 79.1706Z" fill="#D2A4FF"/>
<path d="M209.438 34.4305C209.808 34.4305 210.107 34.1311 210.107 33.7622V26.636C210.107 26.2671 209.808 25.9677 209.438 25.9677C209.069 25.9677 208.77 26.2671 208.77 26.636V33.7622C208.77 34.1311 209.069 34.4305 209.438 34.4305Z" fill="#D2A4FF"/>
<path d="M242.134 58.66H235.008C234.638 58.66 234.34 58.9594 234.34 59.3283C234.34 59.6973 234.638 59.9967 235.008 59.9967H242.134C242.504 59.9967 242.803 59.6973 242.803 59.3283C242.803 58.9594 242.504 58.66 242.134 58.66Z" fill="#D2A4FF"/>
<path d="M183.868 58.66H176.742C176.372 58.66 176.073 58.9594 176.073 59.3283C176.073 59.6973 176.372 59.9967 176.742 59.9967H183.868C184.238 59.9967 184.536 59.6973 184.536 59.3283C184.536 58.9594 184.238 58.66 183.868 58.66Z" fill="#D2A4FF"/>
<path d="M232.084 35.7354L227.045 40.7745C226.784 41.0358 226.784 41.4582 227.045 41.7195C227.176 41.8498 227.347 41.9153 227.518 41.9153C227.689 41.9153 227.86 41.8498 227.99 41.7195L233.029 36.6804C233.291 36.4191 233.291 35.9967 233.029 35.7354C232.768 35.4741 232.346 35.4741 232.084 35.7354Z" fill="#D2A4FF"/>
<path d="M191.358 41.9153C191.529 41.9153 191.7 41.8498 191.83 41.7195C192.091 41.4582 192.091 41.0358 191.83 40.7745L186.791 35.7354C186.53 35.4741 186.107 35.4741 185.846 35.7354C185.585 35.9967 185.585 36.4191 185.846 36.6804L190.885 41.7195C191.015 41.8498 191.187 41.9153 191.358 41.9153Z" fill="#D2A4FF"/>
<path d="M209.437 42.5038C199.82 42.5038 192.028 50.303 192.028 59.92C192.028 69.5371 199.82 77.3296 209.437 77.3296C219.054 77.3296 226.853 69.5371 226.853 59.92C226.853 50.303 219.054 42.5038 209.437 42.5038ZM219.789 65.6274H198.911V61.945H219.789V65.6274ZM219.789 59.1047H198.911V55.4223H219.789V59.1047Z" fill="#D2A4FF"/>
<path d="M84.7326 88.3379L85.4991 96.0215C85.4991 96.0215 84.8876 98.1962 80.6331 98.6661C75.4784 99.2355 73.2516 95.3084 73.2516 95.3084L74.2948 88.1682" fill="#FFBBB5"/>
<path d="M87.6113 78.832C87.6113 78.832 90.6455 88.4624 86.3402 90.9967C82.4366 93.295 75.9091 89.7169 75.5275 88.4978C75.1459 87.2788 73.4157 76.9119 75.8998 76.1347C80.3153 74.7526 86.3155 74.6925 87.6113 78.832Z" fill="#FFBBB5"/>
<path d="M83.0422 92.4311C81.5431 92.4311 79.4667 92.0843 77.703 90.5264L78.0345 90.1501C80.9443 92.7205 84.9054 91.7334 84.9455 91.7234L85.0712 92.2086C84.9963 92.2286 84.1877 92.4311 83.0422 92.4311Z" fill="#FFBBB5"/>
<path d="M90.4196 73.3411C89.9143 72.4723 89.0415 71.8026 88.0497 71.6048C87.0994 71.4157 86.0394 71.5914 85.2181 71.0782C85.0049 70.9452 84.8204 70.7714 84.6112 70.6331C83.9322 70.182 83.042 70.1365 82.2574 70.3564C81.4728 70.5763 80.7765 71.0347 80.1342 71.5353C79.6637 71.9022 79.1992 72.3039 78.6338 72.4963C77.5986 72.8479 76.4618 72.4282 75.3745 72.5411C74.1327 72.6694 73.0013 73.5569 72.5802 74.7318C72.1499 75.9321 72.4178 77.3383 71.801 78.4537C71.4802 79.0345 70.9395 79.4889 70.711 80.1118C70.4055 80.9432 70.7257 81.8728 71.1507 82.65C71.543 83.3665 72.0169 84.0401 72.2454 84.8334C72.4138 85.4189 72.502 86.0223 72.6972 86.6018C73.0781 87.7319 73.7732 88.7484 75.0557 88.8627C75.5115 88.9034 76.0127 88.9322 76.3823 88.6629C76.7472 88.3969 76.8768 87.915 76.9316 87.4666C77.0205 86.7354 76.9691 85.9896 76.7933 85.2738C77.235 85.5131 77.6514 85.9127 78.1466 85.8406C78.3097 85.8165 78.418 85.6889 78.5349 85.5719C79.6009 84.5059 78.3912 82.7797 78.2649 81.6663C78.1266 80.4439 79.2727 79.2436 80.4998 79.3252C81.0331 79.3606 81.5483 79.5978 82.081 79.5551C83.1242 79.4715 83.8206 78.3775 84.8358 78.1209C85.7728 77.8836 86.7632 78.1469 87.7062 78.1656C89.3356 78.1984 90.8165 76.7268 90.878 75.0981C90.9001 74.4792 90.729 73.8731 90.4196 73.3411Z" fill="#2D4773"/>
<path d="M77.3945 85.1146C77.0276 84.2091 76.3874 83.1184 75.3842 83.7332C75.0294 83.9504 74.8322 84.4142 74.6939 84.864C74.2341 86.3584 75.3067 88.664 76.7737 88.4508C77.4887 88.3466 77.8857 87.4978 78.1771 86.7981" fill="#FFBBB5"/>
<path d="M84.9655 86.3173C84.612 86.3173 84.3132 86.2398 84.2865 86.2331L84.4148 85.7486C84.4255 85.7513 85.4313 86.0019 85.6418 85.5307C85.7314 85.2661 85.1346 83.9 84.5211 82.7906L84.9595 82.548C85.3859 83.3186 86.3503 85.1718 86.0996 85.7352C85.8898 86.2071 85.3879 86.3173 84.9655 86.3173Z" fill="#2D4773"/>
<path d="M83.6703 87.7057L86.915 87.3147C86.915 87.3147 87.1576 89.6144 85.698 89.9612C83.9042 90.3883 83.6703 87.7057 83.6703 87.7057Z" fill="#F8F8FF"/>
<path d="M86.761 82.1512C86.7957 82.351 86.8418 82.5502 86.898 82.7453C86.9922 83.0708 87.5015 82.9325 87.4066 82.605C87.3498 82.4098 87.2823 82.2167 87.2041 82.0289C87.0911 81.7582 86.7095 81.8545 86.761 82.1512Z" fill="#2D4773"/>
<path d="M86.1372 81.1639C86.1031 81.1639 86.0684 81.1532 86.0397 81.1318C85.9648 81.0776 85.9481 80.9734 86.0022 80.8985C86.2722 80.5269 87.0214 79.9943 87.9283 80.6406C88.0032 80.694 88.0212 80.7983 87.9671 80.8738C87.9129 80.9493 87.8087 80.9654 87.7338 80.9132C86.869 80.295 86.2963 81.0623 86.2722 81.095C86.2395 81.1405 86.1887 81.1639 86.1372 81.1639Z" fill="#2D4773"/>
<path d="M81.3832 83.3266C81.4093 83.5498 81.4447 83.7717 81.4955 83.9902C81.5717 84.321 82.0796 84.1807 82.0041 83.8499C81.9586 83.652 81.9018 83.4569 81.835 83.2651C81.7548 83.0385 81.3518 83.0526 81.3832 83.3266Z" fill="#2D4773"/>
<path d="M79.8278 82.6168C79.7891 82.6168 79.751 82.6035 79.7189 82.5761C79.6494 82.5159 79.6414 82.4103 79.7015 82.3401C80.8918 80.9534 82.072 81.3196 82.1228 81.337C82.2104 81.3657 82.2578 81.46 82.2291 81.5475C82.201 81.6351 82.1108 81.6839 82.0192 81.6545C81.9778 81.6418 80.9947 81.3477 79.9548 82.5587C79.9221 82.5968 79.8753 82.6168 79.8278 82.6168Z" fill="#2D4773"/>
<path d="M89.2531 255.386L92.0032 277.527L91.8087 284.79L120.284 284.645C120.979 284.641 121.54 284.075 121.537 283.379C121.534 282.858 121.211 282.392 120.724 282.208L108.443 276.561L106.815 253.484" fill="#FFBBB5"/>
<path d="M122.706 284.335C122.415 283.422 121.881 282.399 121.342 282.167L108.32 276.558C101.143 279.467 91.8519 277.244 91.8519 277.244L90.1945 287.048C90.1965 287.373 90.4604 287.634 90.7852 287.633H122.488C123.126 287.629 122.715 284.363 122.706 284.335Z" fill="#7974F5"/>
<path d="M111.139 277.126C110.409 278.077 109.792 279.114 109.303 280.209" stroke="#2D4773" stroke-width="0.501236" stroke-miterlimit="10"/>
<path d="M112.778 278.107C112.022 279.154 111.72 279.758 111.269 280.728" stroke="#2D4773" stroke-width="0.501236" stroke-miterlimit="10"/>
<path d="M114.164 278.816C113.651 279.505 113.147 280.459 112.749 281.221" stroke="#2D4773" stroke-width="0.501236" stroke-miterlimit="10"/>
<path d="M90.3625 285.515L122.84 285.349" stroke="#2D4773" stroke-width="0.501236" stroke-miterlimit="10"/>
<path d="M91.264 280.723C91.264 280.723 98.8935 280.878 99.5498 285.475" stroke="#2D4773" stroke-width="0.501236" stroke-miterlimit="10"/>
<path d="M118.674 281.018C118.674 281.018 116.57 284.007 116.156 285.386" stroke="#2D4773" stroke-width="0.501236" stroke-miterlimit="10"/>
<path d="M102.619 160.076C107.333 193.945 110.924 273.952 110.924 273.952H85.0252C85.0252 273.952 80.9491 215.078 76.7454 178.374C69.7515 164.662 66.9346 155.216 68.1856 149.463" fill="#2D4773"/>
<path d="M88.3669 273.957C88.3669 273.957 84.2909 215.083 80.0872 178.379" stroke="#E3DEFF" stroke-width="0.501236" stroke-miterlimit="10"/>
<path d="M54.0349 255.386L52.4182 277.527L52.2238 284.79L80.6993 284.645C81.3943 284.641 81.9551 284.075 81.9517 283.379C81.949 282.858 81.6256 282.392 81.139 282.208L68.8581 276.561L71.5969 253.485" fill="#FFBBB5"/>
<path d="M83.1212 284.335C82.8304 283.422 82.2958 282.399 81.7571 282.167L68.735 276.558C61.5573 279.467 52.2664 277.244 52.2664 277.244L50.609 287.048C50.6103 287.373 50.875 287.634 51.1998 287.633H82.9026C83.5409 287.629 83.1298 284.363 83.1212 284.335Z" fill="#7974F5"/>
<path d="M71.5536 277.126C70.8238 278.077 70.207 279.114 69.7178 280.209" stroke="#2D4773" stroke-width="0.501236" stroke-miterlimit="10"/>
<path d="M73.193 278.107C72.4371 279.154 72.1351 279.758 71.684 280.728" stroke="#2D4773" stroke-width="0.501236" stroke-miterlimit="10"/>
<path d="M74.5785 278.816C74.0653 279.505 73.562 280.459 73.1637 281.221" stroke="#2D4773" stroke-width="0.501236" stroke-miterlimit="10"/>
<path d="M50.7776 285.515L83.255 285.349" stroke="#2D4773" stroke-width="0.501236" stroke-miterlimit="10"/>
<path d="M51.6791 280.723C51.6791 280.723 59.3086 280.878 59.9648 285.475" stroke="#2D4773" stroke-width="0.501236" stroke-miterlimit="10"/>
<path d="M79.0873 281.018C79.0873 281.018 76.9834 284.007 76.5691 285.386" stroke="#2D4773" stroke-width="0.501236" stroke-miterlimit="10"/>
<path d="M52.5853 156.943C50.4607 162.75 49.9595 173.008 52.2698 182.84C52.4256 183.502 52.4971 184.176 52.463 184.855C50.442 225.522 48.3689 273.953 48.3689 273.953H73.954C73.954 273.953 83.6024 172.929 85.4998 156.205" fill="#2D4773"/>
<path d="M56.5951 156.944C54.4705 162.751 53.9692 173.009 56.2796 182.842C56.4353 183.503 56.5068 184.178 56.4728 184.856C54.4518 225.523 52.3787 273.954 52.3787 273.954" stroke="#E3DEFF" stroke-width="0.501236" stroke-miterlimit="10"/>
<path d="M80.0157 211.039C80.0157 211.039 83.9187 171.395 85.1237 161.979" stroke="#E3DEFF" stroke-width="0.501236" stroke-miterlimit="10"/>
<path d="M55.0111 174.981C55.0111 174.981 62.2042 173.514 65.9387 166.178" stroke="#E3DEFF" stroke-width="0.501236" stroke-miterlimit="10"/>
<path d="M83.8419 173.384C83.8419 173.384 86.3468 172.984 86.6134 172.047C86.8801 171.11 88.214 162.897 88.214 162.897" stroke="#E3DEFF" stroke-width="0.501236" stroke-miterlimit="10"/>
<path d="M96.3518 164.441C96.3518 164.441 98.048 172.513 104.136 172.812" stroke="#E3DEFF" stroke-width="0.501236" stroke-miterlimit="10"/>
<path d="M48.5769 269.129H74.4146" stroke="#E3DEFF" stroke-width="0.501236" stroke-miterlimit="10"/>
<path d="M84.6821 269.129H110.698" stroke="#E3DEFF" stroke-width="0.501236" stroke-miterlimit="10"/>
<path d="M108.903 114.674C108.903 114.674 114.641 123.48 116.767 123.713C120.143 124.083 136.545 111.694 136.545 111.694L144.88 121.259C144.88 121.259 129.159 139.789 116.175 140.61C105.964 141.256 93.7333 125.065 93.7333 125.065" fill="#FFBBB5"/>
<path d="M131.368 115.46C131.368 115.46 145.474 104.503 146.182 104.726C146.891 104.949 144.944 107.024 145.56 107.098C146.176 107.172 150.646 102.587 151.294 102.999C152.174 103.557 147.576 107.93 147.576 107.93C147.576 107.93 152.921 103.439 153.543 104.144C153.984 104.643 148.741 109.658 148.741 109.658C148.741 109.658 154.042 105.787 154.489 106.314C154.932 106.838 150.249 111.292 150.249 111.292C150.249 111.292 153.927 108.063 154.519 108.604C155.11 109.146 147.294 119.142 140.507 125.91" fill="#FFBBB5"/>
<path d="M144.563 107.708C144.563 107.708 143.539 110.259 142.252 112.227" stroke="#2D4773" stroke-width="0.501236" stroke-miterlimit="10"/>
<path d="M143.978 113.425C145.482 111.89 147.481 111.621 149.359 111.709" stroke="#2D4773" stroke-width="0.501236" stroke-miterlimit="10"/>
<path d="M73.402 94.3543C73.402 94.3543 75.4571 96.948 79.2925 97.2722C83.128 97.5963 85.4978 95.5613 85.4978 95.5613C85.4978 95.5613 97.6277 101.677 101.053 127.157C104.478 152.636 104.812 165.974 104.812 165.974H50.5984C50.5984 165.974 43.8057 102.179 73.402 94.3543Z" fill="#A4A4FF"/>
<path d="M85.4987 95.562C88.9318 95.562 93.9381 96.922 97.1995 99.2437C104.193 104.222 106.331 109.999 112.836 118.849L97.138 129.929L85.4987 95.562Z" fill="#A4A4FF"/>
<path d="M75.5622 180.97L52.0542 169.503L67.398 137.795L90.906 149.261L75.5622 180.97Z" fill="#F8F8FF"/>
<path d="M85.6982 147.725L72.4923 141.283L73.3671 139.489C73.5001 139.217 73.8296 139.103 74.1023 139.236L86.3204 145.195C86.5937 145.328 86.7067 145.658 86.5737 145.931L85.6982 147.725Z" fill="#2D4773"/>
<path d="M81.649 139.272C80.549 138.735 79.2544 139.127 78.7572 140.146C78.26 141.166 78.7485 142.427 79.8486 142.963C80.9479 143.5 82.2431 143.108 82.7404 142.088C83.2369 141.069 82.749 139.808 81.649 139.272ZM80.3217 141.992C79.8004 141.738 79.5692 141.14 79.8051 140.657C80.0404 140.174 80.6539 139.989 81.1752 140.243C81.6958 140.497 81.9277 141.094 81.6918 141.577C81.4565 142.06 80.843 142.246 80.3217 141.992Z" fill="#2D4773"/>
<path d="M61.3283 127.413C61.3283 127.413 56.7203 137.624 56.4189 140.49C56.1175 143.356 74.6872 151.984 74.6872 151.984L69.8413 163.436C69.8413 163.436 40.1421 156.148 37.4207 147.225C34.7 138.301 44.2068 119.796 44.2068 119.796" fill="#FFBBB5"/>
<path d="M65.2017 147.184C65.2017 147.184 82.6534 155.1 82.7156 156.024C82.7778 156.948 79.4896 155.628 79.6821 156.376C79.8746 157.125 87.5255 159.962 87.3417 160.901C87.0924 162.173 80.843 159.431 80.843 159.431C80.843 159.431 87.5956 162.809 87.0596 163.851C86.68 164.588 80.9452 162.269 78.6422 161.657C81.0535 162.637 84.772 164.689 84.3623 165.446C83.9553 166.197 80.0183 164.701 76.9394 163.716C78.8033 164.511 82.1161 166.14 81.7699 166.857C81.4251 167.572 67.5669 162.952 58.4237 159.791" fill="#FFBBB5"/>
<path d="M73.4018 94.3547C65.644 94.2304 58.0252 96.5722 53.6966 100.685C47.2072 106.85 41.2385 122.269 41.2385 122.269L61.9563 130.289L70.9785 112.733" fill="#A4A4FF"/>
<path d="M60.5195 129.928L67.5014 117.829" stroke="#2D4773" stroke-width="0.501236" stroke-miterlimit="10"/>
<path d="M62.4894 126.516L42.5369 118.448" stroke="#2D4773" stroke-width="0.501236" stroke-miterlimit="10"/>
<path d="M101.138 126.989C100.241 119.852 98.2933 110.711 98.2933 110.711" stroke="#2D4773" stroke-width="0.501236" stroke-miterlimit="10"/>
<path d="M100.643 123.476L110.924 116.357" stroke="#2D4773" stroke-width="0.501236" stroke-miterlimit="10"/>
<path d="M104.524 74.3654L102.125 81.9775L109.349 77.9543C112.397 79.605 115.832 80.4738 119.307 80.4738C130.856 80.4738 140.252 71.084 140.252 59.5355C140.252 47.9871 130.856 38.5906 119.307 38.5906C107.759 38.5906 98.3622 47.9871 98.3622 59.5355C98.3622 65.1561 100.548 70.4023 104.524 74.3654ZM105.921 74.3788L105.767 73.7105C101.857 69.9679 99.6988 64.9355 99.6988 59.5355C99.6988 48.7222 108.494 39.9272 119.307 39.9272C130.12 39.9272 138.916 48.7222 138.916 59.5355C138.916 70.3422 130.12 79.1372 119.307 79.1372C115.925 79.1372 112.584 78.2617 109.65 76.5976L109.015 76.611L104.41 79.1706L105.921 74.3788Z" fill="#D2E8FF"/>
<path d="M119.306 34.4305C118.936 34.4305 118.638 34.1311 118.638 33.7622V26.636C118.638 26.2671 118.936 25.9677 119.306 25.9677C119.675 25.9677 119.974 26.2671 119.974 26.636V33.7622C119.974 34.1311 119.675 34.4305 119.306 34.4305Z" fill="#D2E8FF"/>
<path d="M86.6108 58.66H93.7371C94.1066 58.66 94.4054 58.9594 94.4054 59.3283C94.4054 59.6973 94.1066 59.9967 93.7371 59.9967H86.6108C86.2412 59.9967 85.9425 59.6973 85.9425 59.3283C85.9425 58.9594 86.2412 58.66 86.6108 58.66Z" fill="#D2E8FF"/>
<path d="M144.877 58.66H152.003C152.373 58.66 152.672 58.9594 152.672 59.3283C152.672 59.6973 152.373 59.9967 152.003 59.9967H144.877C144.507 59.9967 144.209 59.6973 144.209 59.3283C144.209 58.9594 144.507 58.66 144.877 58.66Z" fill="#D2E8FF"/>
<path d="M96.66 35.7354L101.699 40.7745C101.96 41.0358 101.96 41.4582 101.699 41.7195C101.569 41.8498 101.398 41.9153 101.227 41.9153C101.056 41.9153 100.884 41.8498 100.754 41.7195L95.715 36.6804C95.4537 36.4191 95.4537 35.9967 95.715 35.7354C95.9763 35.4741 96.3987 35.4741 96.66 35.7354Z" fill="#D2E8FF"/>
<path d="M137.387 41.9153C137.216 41.9153 137.045 41.8498 136.914 41.7195C136.653 41.4582 136.653 41.0358 136.914 40.7745L141.953 35.7354C142.215 35.4741 142.637 35.4741 142.898 35.7354C143.16 35.9967 143.16 36.4191 142.898 36.6804L137.859 41.7195C137.729 41.8498 137.558 41.9153 137.387 41.9153Z" fill="#D2E8FF"/>
<path d="M101.891 59.92C101.891 69.5371 109.69 77.3296 119.308 77.3296C128.925 77.3296 136.717 69.5371 136.717 59.92C136.717 50.303 128.925 42.5038 119.308 42.5038C109.69 42.5038 101.891 50.303 101.891 59.92ZM108.955 61.945H129.833V65.6274H108.955V61.945ZM108.955 55.4223H129.833V59.1047H108.955V55.4223Z" fill="#D2E8FF"/>
</g>
<defs>
<clipPath id="clip0_437_4986">
<rect width="305.879" height="305.884" fill="white" transform="translate(0.0603027 0.351562)"/>
</clipPath>
</defs>
</svg>
